<?xml version="1.0" encoding="utf-8"?>
<!-- Generator: Adobe Illustrator 15.1.0, SVG Export Plug-In . SVG Version: 6.00 Build 0)  -->
<!DOCTYPE svg PUBLIC "-//W3C//DTD SVG 1.1//EN" "http://www.w3.org/Graphics/SVG/1.1/DTD/svg11.dtd">
<svg version="1.1" id="Layer_1" xmlns="http://www.w3.org/2000/svg" xmlns:xlink="http://www.w3.org/1999/xlink" x="0px" y="0px"
	 width="556.123px" height="40px" viewBox="-188.813 87.347 556.123 40" enable-background="new -188.813 87.347 556.123 40"
	 xml:space="preserve">
<path fill="#FFE100" d="M-171.06,118.931v8.415h-17.752v-8.415h3.228V95.703h-3.228v-8.356h17.752v8.356h-3.228v23.228H-171.06
	L-171.06,118.931z M-147.43,127.347h-12.854c-4.668,0-7.723-3.056-7.723-8.069V95.415c0-4.957,3.112-8.068,7.723-8.068h12.854
	c4.668,0,7.723,3.111,7.723,8.068v23.862C-139.707,124.234-142.819,127.347-147.43,127.347L-147.43,127.347z M-151.061,95.703
	h-5.591v23.228h5.591V95.703L-151.061,95.703z M-87.833,95.703l-5.015,31.644h-13.545l-5.244-23.574l-5.361,23.574h-13.026
	l-5.648-31.644h-2.824v-8.356h16.83v8.356h-3.17l2.882,19.251l5.995-27.607h8.529l6.398,27.607l2.305-19.251h-2.94v-8.356h16.6
	v8.356H-87.833L-87.833,95.703z M-66.796,127.347l-1.269-9.741h-6.743l-1.21,9.741h-13.314v-8.415h3.055l6.051-31.585h18.156
	l5.995,31.584h2.824v8.415L-66.796,127.347L-66.796,127.347z M-71.35,94.148l-2.651,16.138h5.245L-71.35,94.148L-71.35,94.148z"/>
<g enable-background="new    ">
	<path fill="#FFFFFF" d="M-22.738,105.539c0,2.006-0.234,3.834-0.703,5.483s-1.184,3.062-2.145,4.236s-2.175,2.083-3.641,2.724
		s-3.195,0.962-5.189,0.962s-3.724-0.321-5.189-0.962c-1.466-0.641-2.676-1.549-3.632-2.724c-0.955-1.175-1.667-2.59-2.136-4.245
		c-0.469-1.656-0.704-3.492-0.704-5.51s0.234-3.848,0.704-5.492c0.468-1.644,1.184-3.047,2.145-4.21
		c0.961-1.163,2.174-2.062,3.64-2.696s3.201-0.953,5.207-0.953c1.994,0,3.721,0.318,5.18,0.953c1.46,0.635,2.667,1.536,3.623,2.705
		s1.667,2.576,2.136,4.22S-22.738,103.51-22.738,105.539z M-40.397,105.539c0,1.365,0.119,2.591,0.356,3.677
		c0.237,1.086,0.602,2.005,1.095,2.759c0.492,0.754,1.112,1.332,1.86,1.735c0.748,0.404,1.638,0.605,2.67,0.605
		c1.056,0,1.961-0.201,2.715-0.605c0.753-0.403,1.371-0.981,1.851-1.735c0.481-0.754,0.837-1.673,1.068-2.759
		s0.347-2.312,0.347-3.677c0-1.364-0.116-2.59-0.347-3.676s-0.587-2.009-1.068-2.768c-0.48-0.76-1.095-1.342-1.842-1.745
		s-1.644-0.605-2.688-0.605c-1.033,0-1.929,0.202-2.688,0.605c-0.76,0.403-1.386,0.985-1.878,1.745
		c-0.493,0.759-0.858,1.682-1.095,2.768C-40.279,102.949-40.397,104.175-40.397,105.539z"/>
	<path fill="#FFFFFF" d="M-11.933,118.588h-5.43V92.563h14.918v4.521h-9.488v6.711h8.83v4.504h-8.83V118.588z"/>
	<path fill="#FFFFFF" d="M8.076,118.588h-5.43V92.563h14.918v4.521H8.076v6.711h8.83v4.504h-8.83V118.588z"/>
	<path fill="#FFFFFF" d="M32.393,118.588H20.555v-3.133l3.169-1.46v-16.84l-3.169-1.46v-3.133h11.838v3.133l-3.168,1.46v16.84
		l3.168,1.46V118.588z"/>
	<path fill="#FFFFFF" d="M47.542,96.781c-1.056,0-1.991,0.204-2.804,0.614c-0.813,0.409-1.495,0.996-2.047,1.762
		c-0.552,0.766-0.97,1.697-1.255,2.795c-0.285,1.098-0.427,2.329-0.427,3.694c0,1.389,0.127,2.623,0.383,3.702
		c0.255,1.08,0.647,1.991,1.175,2.732c0.528,0.742,1.205,1.306,2.03,1.691c0.825,0.386,1.807,0.579,2.946,0.579
		c1.056,0,2.115-0.119,3.178-0.356c1.062-0.237,2.216-0.575,3.462-1.015v4.628c-0.57,0.238-1.133,0.439-1.691,0.605
		c-0.558,0.167-1.127,0.303-1.708,0.409c-0.582,0.107-1.178,0.188-1.789,0.241c-0.612,0.053-1.267,0.08-1.967,0.08
		c-2.006,0-3.745-0.321-5.216-0.962c-1.472-0.641-2.688-1.542-3.649-2.706c-0.961-1.162-1.673-2.563-2.136-4.201
		c-0.463-1.638-0.694-3.459-0.694-5.465c0-1.97,0.267-3.776,0.801-5.42s1.317-3.06,2.35-4.246c1.033-1.187,2.308-2.109,3.828-2.769
		c1.519-0.658,3.263-0.987,5.233-0.987c1.293,0,2.59,0.163,3.89,0.489c1.3,0.326,2.542,0.774,3.729,1.344l-1.78,4.486
		c-0.973-0.463-1.952-0.866-2.937-1.211C49.458,96.953,48.491,96.781,47.542,96.781z"/>
	<path fill="#FFFFFF" d="M74.707,118.588H59.718V92.563h14.989v4.521h-9.47v5.714h8.812v4.521h-8.812v6.711h9.47V118.588z"/>
	<path fill="#FFFFFF" d="M111.788,105.539c0,2.006-0.234,3.834-0.703,5.483s-1.184,3.062-2.145,4.236s-2.175,2.083-3.641,2.724
		s-3.195,0.962-5.189,0.962s-3.724-0.321-5.189-0.962c-1.466-0.641-2.676-1.549-3.632-2.724c-0.955-1.175-1.667-2.59-2.136-4.245
		c-0.469-1.656-0.704-3.492-0.704-5.51s0.234-3.848,0.704-5.492c0.468-1.644,1.184-3.047,2.145-4.21
		c0.961-1.163,2.174-2.062,3.64-2.696s3.201-0.953,5.207-0.953c1.994,0,3.721,0.318,5.18,0.953c1.46,0.635,2.667,1.536,3.623,2.705
		s1.667,2.576,2.136,4.22S111.788,103.51,111.788,105.539z M94.128,105.539c0,1.365,0.119,2.591,0.356,3.677
		c0.237,1.086,0.602,2.005,1.095,2.759c0.492,0.754,1.112,1.332,1.86,1.735c0.748,0.404,1.638,0.605,2.67,0.605
		c1.056,0,1.961-0.201,2.715-0.605c0.753-0.403,1.371-0.981,1.851-1.735c0.481-0.754,0.837-1.673,1.068-2.759
		s0.347-2.312,0.347-3.677c0-1.364-0.116-2.59-0.347-3.676s-0.587-2.009-1.068-2.768c-0.48-0.76-1.095-1.342-1.842-1.745
		s-1.644-0.605-2.688-0.605c-1.033,0-1.929,0.202-2.688,0.605c-0.76,0.403-1.386,0.985-1.878,1.745
		c-0.493,0.759-0.858,1.682-1.095,2.768C94.247,102.949,94.128,104.175,94.128,105.539z"/>
	<path fill="#FFFFFF" d="M122.593,118.588h-5.43V92.563h14.918v4.521h-9.488v6.711h8.83v4.504h-8.83V118.588z"/>
	<path fill="#FFFFFF" d="M161.489,118.588l-1.78-6.195h-8.972l-1.798,6.195h-5.572l8.456-26.133h6.747l8.491,26.133H161.489z
		 M158.428,107.765l-1.673-5.696c-0.071-0.214-0.179-0.563-0.321-1.051c-0.143-0.486-0.294-1.023-0.454-1.61
		c-0.16-0.588-0.312-1.178-0.454-1.771c-0.142-0.594-0.243-1.098-0.302-1.514c-0.048,0.262-0.11,0.57-0.187,0.926
		c-0.077,0.356-0.167,0.733-0.267,1.131c-0.101,0.397-0.205,0.798-0.312,1.201s-0.208,0.783-0.303,1.14
		c-0.095,0.355-0.181,0.671-0.258,0.943c-0.078,0.273-0.134,0.475-0.169,0.605l-1.655,5.696H158.428z"/>
	<path fill="#FFFFFF" d="M190.471,105.326c0,2.195-0.3,4.121-0.899,5.776s-1.466,3.038-2.599,4.147
		c-1.134,1.11-2.522,1.943-4.166,2.501c-1.644,0.559-3.516,0.837-5.616,0.837h-6.854V92.563h7.619c1.91,0,3.635,0.272,5.171,0.818
		c1.537,0.546,2.852,1.356,3.943,2.43c1.092,1.074,1.932,2.406,2.519,3.997C190.177,101.398,190.471,103.238,190.471,105.326z
		 M184.881,105.468c0-1.447-0.146-2.696-0.437-3.747c-0.291-1.05-0.712-1.919-1.264-2.607s-1.229-1.199-2.029-1.531
		s-1.718-0.498-2.75-0.498h-2.546v16.946h2.029c2.326,0,4.073-0.712,5.242-2.136S184.881,108.328,184.881,105.468z"/>
	<path fill="#FFFFFF" d="M206.332,118.588l-5.715-20.418h-0.16c0.071,1.092,0.131,2.147,0.178,3.168
		c0.024,0.439,0.045,0.891,0.063,1.354s0.036,0.92,0.054,1.37c0.018,0.451,0.029,0.885,0.035,1.3
		c0.006,0.416,0.009,0.789,0.009,1.121v12.105h-4.931V92.563h7.513l5.625,19.901h0.106l5.981-19.901h7.513v26.025h-5.145V106.27
		c0-0.309,0.002-0.659,0.009-1.051c0.006-0.392,0.015-0.807,0.026-1.246c0.012-0.438,0.026-0.884,0.045-1.335
		c0.018-0.451,0.032-0.89,0.044-1.317c0.048-0.997,0.089-2.035,0.125-3.115h-0.143l-6.159,20.383H206.332z"/>
	<path fill="#FFFFFF" d="M238.891,118.588h-11.838v-3.133l3.169-1.46v-16.84l-3.169-1.46v-3.133h11.838v3.133l-3.169,1.46v16.84
		l3.169,1.46V118.588z"/>
	<path fill="#FFFFFF" d="M257.6,111.361c0,1.163-0.198,2.211-0.596,3.143c-0.398,0.932-0.979,1.727-1.745,2.385
		c-0.766,0.659-1.703,1.166-2.813,1.522c-1.109,0.355-2.383,0.534-3.818,0.534c-1.258,0-2.472-0.131-3.641-0.392
		c-1.169-0.262-2.252-0.653-3.248-1.176v-5.126c0.569,0.272,1.145,0.537,1.727,0.792c0.581,0.255,1.172,0.483,1.771,0.686
		c0.6,0.201,1.199,0.361,1.799,0.48c0.599,0.118,1.195,0.178,1.789,0.178c0.604,0,1.124-0.068,1.558-0.205
		c0.433-0.136,0.783-0.326,1.05-0.569s0.463-0.534,0.588-0.872c0.124-0.338,0.187-0.709,0.187-1.112
		c0-0.487-0.104-0.917-0.312-1.291c-0.208-0.374-0.498-0.724-0.872-1.051c-0.374-0.326-0.825-0.644-1.354-0.952
		c-0.527-0.309-1.118-0.635-1.771-0.979c-0.546-0.285-1.157-0.629-1.834-1.033c-0.677-0.403-1.314-0.904-1.914-1.504
		c-0.599-0.599-1.101-1.323-1.504-2.172s-0.605-1.866-0.605-3.053c0-1.163,0.193-2.204,0.579-3.124s0.935-1.697,1.646-2.332
		s1.575-1.118,2.59-1.451c1.015-0.332,2.151-0.498,3.409-0.498c0.629,0,1.243,0.041,1.843,0.124c0.599,0.084,1.192,0.202,1.78,0.356
		c0.587,0.154,1.178,0.345,1.771,0.569c0.594,0.226,1.205,0.487,1.834,0.783l-1.78,4.29c-0.534-0.249-1.032-0.468-1.495-0.658
		c-0.463-0.189-0.914-0.35-1.354-0.48c-0.438-0.131-0.869-0.229-1.29-0.294c-0.422-0.065-0.846-0.098-1.272-0.098
		c-0.926,0-1.636,0.246-2.128,0.738c-0.492,0.493-0.738,1.148-0.738,1.968c0,0.438,0.073,0.827,0.223,1.166
		c0.147,0.338,0.385,0.655,0.712,0.952c0.326,0.297,0.747,0.6,1.264,0.907c0.517,0.31,1.142,0.659,1.878,1.051
		c0.891,0.475,1.709,0.958,2.457,1.451c0.747,0.492,1.391,1.038,1.931,1.638c0.54,0.599,0.959,1.278,1.256,2.038
		C257.451,109.45,257.6,110.34,257.6,111.361z"/>
	<path fill="#FFFFFF" d="M276.7,111.361c0,1.163-0.198,2.211-0.596,3.143c-0.398,0.932-0.979,1.727-1.745,2.385
		c-0.766,0.659-1.703,1.166-2.813,1.522c-1.109,0.355-2.383,0.534-3.818,0.534c-1.258,0-2.472-0.131-3.641-0.392
		c-1.169-0.262-2.252-0.653-3.248-1.176v-5.126c0.569,0.272,1.145,0.537,1.727,0.792c0.581,0.255,1.172,0.483,1.771,0.686
		c0.6,0.201,1.199,0.361,1.799,0.48c0.599,0.118,1.195,0.178,1.789,0.178c0.604,0,1.124-0.068,1.558-0.205
		c0.433-0.136,0.783-0.326,1.05-0.569s0.463-0.534,0.588-0.872c0.124-0.338,0.187-0.709,0.187-1.112
		c0-0.487-0.104-0.917-0.312-1.291c-0.208-0.374-0.498-0.724-0.872-1.051c-0.374-0.326-0.825-0.644-1.354-0.952
		c-0.527-0.309-1.118-0.635-1.771-0.979c-0.546-0.285-1.157-0.629-1.834-1.033c-0.677-0.403-1.314-0.904-1.914-1.504
		c-0.599-0.599-1.101-1.323-1.504-2.172s-0.605-1.866-0.605-3.053c0-1.163,0.193-2.204,0.579-3.124s0.935-1.697,1.646-2.332
		s1.575-1.118,2.59-1.451c1.015-0.332,2.151-0.498,3.409-0.498c0.629,0,1.243,0.041,1.843,0.124c0.599,0.084,1.192,0.202,1.78,0.356
		c0.587,0.154,1.178,0.345,1.771,0.569c0.594,0.226,1.205,0.487,1.834,0.783l-1.78,4.29c-0.534-0.249-1.032-0.468-1.495-0.658
		c-0.463-0.189-0.914-0.35-1.354-0.48c-0.438-0.131-0.869-0.229-1.29-0.294c-0.422-0.065-0.846-0.098-1.272-0.098
		c-0.926,0-1.636,0.246-2.128,0.738c-0.492,0.493-0.738,1.148-0.738,1.968c0,0.438,0.073,0.827,0.223,1.166
		c0.147,0.338,0.385,0.655,0.712,0.952c0.326,0.297,0.747,0.6,1.264,0.907c0.517,0.31,1.142,0.659,1.878,1.051
		c0.891,0.475,1.709,0.958,2.457,1.451c0.747,0.492,1.391,1.038,1.931,1.638c0.54,0.599,0.959,1.278,1.256,2.038
		C276.552,109.45,276.7,110.34,276.7,111.361z"/>
	<path fill="#FFFFFF" d="M291.28,118.588h-11.838v-3.133l3.169-1.46v-16.84l-3.169-1.46v-3.133h11.838v3.133l-3.169,1.46v16.84
		l3.169,1.46V118.588z"/>
	<path fill="#FFFFFF" d="M317.556,105.539c0,2.006-0.234,3.834-0.703,5.483s-1.184,3.062-2.145,4.236
		c-0.962,1.175-2.176,2.083-3.641,2.724c-1.466,0.641-3.195,0.962-5.189,0.962s-3.724-0.321-5.189-0.962s-2.676-1.549-3.631-2.724
		c-0.956-1.175-1.668-2.59-2.137-4.245c-0.469-1.656-0.703-3.492-0.703-5.51s0.234-3.848,0.703-5.492
		c0.469-1.644,1.184-3.047,2.146-4.21c0.961-1.163,2.175-2.062,3.641-2.696c1.465-0.635,3.201-0.953,5.207-0.953
		c1.993,0,3.72,0.318,5.18,0.953s2.667,1.536,3.623,2.705c0.955,1.169,1.667,2.576,2.136,4.22S317.556,103.51,317.556,105.539z
		 M299.896,105.539c0,1.365,0.119,2.591,0.356,3.677s0.602,2.005,1.095,2.759c0.492,0.754,1.112,1.332,1.86,1.735
		c0.747,0.404,1.638,0.605,2.67,0.605c1.057,0,1.961-0.201,2.715-0.605c0.754-0.403,1.371-0.981,1.852-1.735
		s0.836-1.673,1.067-2.759s0.348-2.312,0.348-3.677c0-1.364-0.116-2.59-0.348-3.676s-0.587-2.009-1.067-2.768
		c-0.48-0.76-1.095-1.342-1.843-1.745s-1.644-0.605-2.688-0.605c-1.033,0-1.929,0.202-2.688,0.605s-1.386,0.985-1.878,1.745
		c-0.493,0.759-0.857,1.682-1.095,2.768S299.896,104.175,299.896,105.539z"/>
	<path fill="#FFFFFF" d="M344.917,118.588h-6.996L327.685,98.9h-0.16c0.071,0.914,0.131,1.822,0.178,2.724
		c0.048,0.771,0.086,1.582,0.116,2.43c0.029,0.849,0.044,1.611,0.044,2.288v12.247h-4.931V92.563h6.961l10.218,19.492h0.106
		c-0.035-0.901-0.077-1.792-0.124-2.67c-0.013-0.38-0.027-0.769-0.045-1.166s-0.033-0.795-0.045-1.193
		c-0.012-0.397-0.021-0.78-0.026-1.147c-0.006-0.368-0.009-0.7-0.009-0.997V92.563h4.949V118.588z"/>
	<path fill="#FFFFFF" d="M365.744,111.361c0,1.163-0.198,2.211-0.596,3.143c-0.398,0.932-0.979,1.727-1.745,2.385
		c-0.766,0.659-1.703,1.166-2.813,1.522c-1.109,0.355-2.383,0.534-3.818,0.534c-1.258,0-2.472-0.131-3.641-0.392
		c-1.169-0.262-2.252-0.653-3.248-1.176v-5.126c0.569,0.272,1.145,0.537,1.727,0.792c0.581,0.255,1.172,0.483,1.771,0.686
		c0.6,0.201,1.199,0.361,1.799,0.48c0.599,0.118,1.195,0.178,1.789,0.178c0.604,0,1.124-0.068,1.558-0.205
		c0.433-0.136,0.783-0.326,1.05-0.569s0.463-0.534,0.588-0.872c0.124-0.338,0.187-0.709,0.187-1.112
		c0-0.487-0.104-0.917-0.312-1.291c-0.208-0.374-0.498-0.724-0.872-1.051c-0.374-0.326-0.825-0.644-1.354-0.952
		c-0.527-0.309-1.118-0.635-1.771-0.979c-0.546-0.285-1.157-0.629-1.834-1.033c-0.677-0.403-1.314-0.904-1.914-1.504
		c-0.599-0.599-1.101-1.323-1.504-2.172s-0.605-1.866-0.605-3.053c0-1.163,0.193-2.204,0.579-3.124s0.935-1.697,1.646-2.332
		s1.575-1.118,2.59-1.451c1.015-0.332,2.151-0.498,3.409-0.498c0.629,0,1.243,0.041,1.843,0.124c0.599,0.084,1.192,0.202,1.78,0.356
		c0.587,0.154,1.178,0.345,1.771,0.569c0.594,0.226,1.205,0.487,1.834,0.783l-1.78,4.29c-0.534-0.249-1.032-0.468-1.495-0.658
		c-0.463-0.189-0.914-0.35-1.354-0.48c-0.438-0.131-0.869-0.229-1.29-0.294c-0.422-0.065-0.846-0.098-1.272-0.098
		c-0.926,0-1.636,0.246-2.128,0.738c-0.492,0.493-0.738,1.148-0.738,1.968c0,0.438,0.073,0.827,0.223,1.166
		c0.147,0.338,0.385,0.655,0.712,0.952c0.326,0.297,0.747,0.6,1.264,0.907c0.517,0.31,1.142,0.659,1.878,1.051
		c0.891,0.475,1.709,0.958,2.457,1.451c0.747,0.492,1.391,1.038,1.931,1.638c0.54,0.599,0.959,1.278,1.256,2.038
		C365.596,109.45,365.744,110.34,365.744,111.361z"/>
</g>
</svg>
