<?xml version="1.0" encoding="utf-8"?>
<!-- Generator: Adobe Illustrator 15.1.0, SVG Export Plug-In . SVG Version: 6.00 Build 0)  -->
<!DOCTYPE svg PUBLIC "-//W3C//DTD SVG 1.1//EN" "http://www.w3.org/Graphics/SVG/1.1/DTD/svg11.dtd">
<svg version="1.1" id="Layer_1" xmlns="http://www.w3.org/2000/svg" xmlns:xlink="http://www.w3.org/1999/xlink" x="0px" y="0px"
	 width="662.412px" height="40.006px" viewBox="0 0 662.412 40.006" enable-background="new 0 0 662.412 40.006"
	 xml:space="preserve">
<g>
	<path fill="#FBBF15" d="M232.005,37.71c-8.053,0-12.877-6.921-12.877-15.644c0-10.444,5.495-13.128,10.318-13.128
		c6.879,0,12.289,5.831,12.289,15.225C241.735,36.285,234.94,37.71,232.005,37.71 M230.663,6.925
		c-12.583,0-17.322,9.27-17.322,16.442c0,7.422,4.864,16.44,16.903,16.44c10.652,0,17.363-7.591,17.363-17.195
		S241.105,6.925,230.663,6.925"/>
	<path fill="#FBBF15" d="M35.186,37.491c1.649-2.546,1.416-7.645,1.416-7.645h-1.18c-0.203,0.645-0.234,0.77-0.267,0.93
		c-0.21,0.872-0.887,2.275-1.777,3.194c-2.088,2.228-4.911,2.71-9.561,2.71c-6.994,0-16.447-5.707-16.447-17.226
		c0-4.692,0.993-9.288,4.807-12.529c2.298-1.936,5.274-3,9.812-3c4.807,0,8.882,1.306,10.606,3c1.161,1.118,2.019,2.384,1.994,5.522
		h1.215V2.941c-0.107-0.038-0.232-0.069-0.389-0.081c-1.565-0.146-3.239-0.581-5.226-0.822c-2.402-0.289-4.335-0.485-7.574-0.485
		c-7.774,0-12.739,1.937-16.501,5.129C1.1,10.941,0,16.648,0,19.939c0,4.694,1.362,10.112,6.481,14.273
		c4.754,3.822,10.76,5.274,17.91,5.274c3.345,0,9.126-0.33,9.774-0.677C34.74,38.504,34.831,38.037,35.186,37.491z"/>
	<path fill="#FBBF15" d="M507.677,7.628c-0.205,0-0.453,0.121-0.658,0.162c-0.331,0.082-0.989,0.164-1.773,0.246
		c-0.781,0.041-8.929,0.041-10.239,0.041c-1.146,0-3.722-0.123-5.891-0.123c-0.613,0-0.9,0.082-0.9,0.367
		c0,0.288,0.246,0.37,0.697,0.37c0.572,0,1.269,0.041,1.595,0.123c1.35,0.285,1.676,0.941,1.758,2.333
		c0.082,1.309,0.082,2.455,0.082,8.675v7.201c0,3.763,0,6.996-0.203,8.716c-0.164,1.186-0.369,2.084-1.188,2.248
		c-0.367,0.082-0.857,0.164-1.472,0.164c-0.492,0-0.654,0.124-0.654,0.329c0,0.287,0.285,0.41,0.816,0.41
		c1.638,0,4.214-0.123,5.156-0.123c2.415,0,5.155,0.246,11.35,0.246c1.563,0,1.937,0,2.226-1.067
		c0.203-0.816,0.531-3.599,0.531-4.538c0-0.41,0-0.738-0.328-0.738c-0.287,0-0.369,0.164-0.451,0.615
		c-0.289,1.675-0.783,2.536-1.854,3.028c-1.071,0.488-2.801,0.488-3.863,0.488c-4.173,0-4.827-0.611-4.909-3.435
		c-0.041-1.189,0-4.952,0-6.344V23.79c0-0.242,0.041-0.406,0.244-0.406c0.982,0,5.034,0.041,5.81,0.123
		c1.524,0.164,2.102,0.775,2.309,1.592c0.123,0.534,0.123,1.067,0.164,1.478c0,0.201,0.082,0.365,0.371,0.365
		c0.369,0,0.369-0.447,0.369-0.775c0-0.287,0.082-1.924,0.164-2.741c0.126-2.089,0.331-2.741,0.331-2.987s-0.123-0.329-0.287-0.329
		c-0.208,0-0.372,0.206-0.659,0.534c-0.371,0.406-0.989,0.529-1.978,0.611c-0.946,0.082-5.652,0.082-6.551,0.082
		c-0.246,0-0.287-0.164-0.287-0.447V10.531c0-0.285,0.082-0.408,0.287-0.408c0.818,0,5.114,0.082,5.808,0.164
		c2.061,0.244,2.473,0.737,2.76,1.473c0.207,0.491,0.248,1.186,0.248,1.474c0,0.367,0.082,0.573,0.372,0.573
		c0.287,0,0.369-0.247,0.41-0.452c0.084-0.491,0.166-2.292,0.207-2.701c0.121-1.881,0.328-2.374,0.328-2.659
		C507.923,7.79,507.882,7.628,507.677,7.628"/>
	<path fill="#FBBF15" d="M526.194,37.334c-3.23,0-4.827-0.861-5.358-1.637c-0.326-0.451-0.408-2.089-0.449-3.11
		c-0.041-0.775-0.082-3.927-0.082-8.264v-5.154c0-3.233,0-6.796,0.041-8.187c0-0.452,0.121-0.654,0.49-0.819
		c0.328-0.164,1.841-0.287,2.659-0.287c3.192,0,7.855,0.493,11.62,4.092c1.759,1.68,3.927,5.037,3.927,10.231
		c0,4.214-0.818,7.94-3.437,10.189C533.152,36.514,530.368,37.334,526.194,37.334 M524.149,7.954c-2.454,0-5.033,0.123-6.301,0.123
		c-1.145,0-3.722-0.123-5.891-0.123c-0.615,0-0.9,0.082-0.9,0.367c0,0.288,0.246,0.37,0.695,0.37c0.572,0,1.269,0.041,1.597,0.123
		c1.35,0.285,1.676,0.941,1.758,2.333c0.082,1.309,0.082,2.455,0.082,8.675v7.201c0,3.763,0,6.996-0.205,8.716
		c-0.162,1.186-0.367,2.084-1.186,2.248c-0.367,0.082-0.859,0.164-1.474,0.164c-0.49,0-0.654,0.124-0.654,0.329
		c0,0.287,0.287,0.41,0.819,0.41c1.637,0,4.214-0.123,5.153-0.123c2.048,0,5.729,0.488,8.716,0.488
		c7.568,0,11.823-2.905,13.704-4.825c2.292-2.335,4.461-6.262,4.461-11.416c0-4.871-1.923-8.264-3.968-10.396
		C536.096,7.954,529.265,7.954,524.149,7.954"/>
	<path fill="#FBBF15" d="M557.714,7.954c-1.555,0-3.968,0.123-4.991,0.123c-1.186,0-3.763-0.123-5.317-0.123
		c-0.655,0-0.983,0.082-0.983,0.326c0,0.329,0.246,0.411,0.654,0.411c0.491,0,1.024,0.041,1.474,0.164
		c0.9,0.205,1.309,0.9,1.391,2.292c0.082,1.309,0.082,2.455,0.082,8.675v7.201c0,3.968,0,7.201-0.205,8.921
		c-0.121,1.186-0.367,1.879-1.186,2.043c-0.369,0.082-0.859,0.164-1.474,0.164c-0.49,0-0.654,0.124-0.654,0.329
		c0,0.287,0.287,0.41,0.819,0.41c1.637,0,4.214-0.123,5.153-0.123c1.105,0,3.683,0.123,6.383,0.123c0.451,0,0.777-0.123,0.777-0.41
		c0-0.205-0.203-0.329-0.654-0.329c-0.613,0-1.515-0.082-2.087-0.164c-1.227-0.164-1.514-0.898-1.635-2.002
		c-0.164-1.761-0.164-4.994-0.164-8.962v-7.201c0-6.221,0-7.366,0.082-8.675c0.082-1.434,0.408-2.127,1.512-2.333
		c0.492-0.082,0.818-0.123,1.229-0.123c0.408,0,0.654-0.082,0.654-0.411C558.574,8.036,558.246,7.954,557.714,7.954"/>
	<path fill="#FBBF15" d="M578.319,7.382c-6.096,0-9.981,1.637-12.928,4.337c-3.927,3.604-4.786,8.432-4.786,11.213
		c0,3.968,1.063,8.552,5.071,12.068c3.724,3.233,8.428,4.46,14.033,4.46c2.62,0,5.729-0.287,7.365-0.939
		c0.695-0.287,0.86-0.493,1.063-1.187c0.41-1.391,0.9-4.952,0.9-5.44c0-0.328-0.082-0.616-0.367-0.616
		c-0.328,0-0.41,0.165-0.533,0.817c-0.162,0.738-0.696,1.924-1.392,2.704c-1.635,1.879-3.845,2.289-7.486,2.289
		c-5.482,0-12.887-4.829-12.887-14.566c0-3.968,0.775-7.854,3.763-10.6c1.802-1.635,4.133-2.536,7.692-2.536
		c3.765,0,6.955,1.104,8.305,2.536c1.023,1.066,1.555,2.498,1.596,3.768c0,0.574,0.083,0.903,0.409,0.903
		c0.369,0,0.451-0.329,0.492-0.944c0.08-0.819,0.041-3.072,0.123-4.422c0.08-1.432,0.203-1.922,0.203-2.249
		c0-0.246-0.162-0.452-0.613-0.493c-1.228-0.121-2.536-0.49-4.091-0.695C582.371,7.546,580.856,7.382,578.319,7.382"/>
	<path fill="#FBBF15" d="M602.437,7.954c-1.556,0-3.971,0.123-4.992,0.123c-1.188,0-3.765-0.123-5.319-0.123
		c-0.655,0-0.981,0.082-0.981,0.326c0,0.329,0.244,0.411,0.655,0.411c0.49,0,1.021,0.041,1.473,0.164
		c0.898,0.205,1.309,0.9,1.392,2.292c0.079,1.309,0.079,2.455,0.079,8.675v7.201c0,3.968,0,7.201-0.203,8.921
		c-0.123,1.186-0.369,1.879-1.186,2.043c-0.369,0.082-0.859,0.164-1.473,0.164c-0.493,0-0.655,0.124-0.655,0.329
		c0,0.287,0.285,0.41,0.817,0.41c1.637,0,4.214-0.123,5.155-0.123c1.104,0,3.683,0.123,6.383,0.123c0.449,0,0.777-0.123,0.777-0.41
		c0-0.205-0.205-0.329-0.654-0.329c-0.613,0-1.514-0.082-2.086-0.164c-1.228-0.164-1.515-0.898-1.638-2.002
		c-0.164-1.761-0.164-4.994-0.164-8.962v-7.201c0-6.221,0-7.366,0.082-8.675c0.082-1.434,0.41-2.127,1.514-2.333
		c0.491-0.082,0.819-0.123,1.228-0.123c0.41,0,0.654-0.082,0.654-0.411C603.294,8.036,602.968,7.954,602.437,7.954"/>
	<path fill="#FBBF15" d="M610.07,7.259c-0.408,0-0.531,0.572-0.531,1.391l-0.367,24.225c-0.041,3.558-0.205,4.747-1.268,5.071
		c-0.575,0.164-1.312,0.205-1.843,0.205c-0.408,0-0.654,0.083-0.654,0.329c0,0.369,0.369,0.41,0.9,0.41
		c2.128,0,4.05-0.123,4.419-0.123c0.776,0,2.413,0.123,5.072,0.123c0.572,0,0.941-0.082,0.941-0.41c0-0.246-0.246-0.329-0.695-0.329
		c-0.654,0-1.433-0.041-2.128-0.287c-0.818-0.283-1.35-1.35-1.432-4.538l-0.449-17.185h0.123c0.736,0.776,5.276,5.893,9.737,10.312
		c4.255,4.214,9.49,9.573,12.067,12.027c0.451,0.451,0.941,0.898,1.391,0.898c0.37,0,0.534-0.365,0.534-1.269l0.449-25.818
		c0.041-2.292,0.367-3.151,1.514-3.478c0.49-0.123,0.819-0.123,1.228-0.123c0.49,0,0.736-0.123,0.736-0.37
		c0-0.326-0.41-0.367-0.941-0.367c-2.005,0-3.561,0.123-4.01,0.123c-0.859,0-2.822-0.123-4.95-0.123
		c-0.613,0-1.063,0.041-1.063,0.367c0,0.247,0.162,0.37,0.654,0.37c0.572,0,1.553,0,2.169,0.246c0.98,0.408,1.35,1.186,1.391,3.681
		l0.408,18.373h-0.205c-0.695-0.652-6.219-6.544-9.001-9.326c-5.972-5.934-12.192-12.604-12.683-13.138
		C610.889,7.79,610.521,7.259,610.07,7.259"/>
	<path fill="#FBBF15" d="M661.188,7.628c-0.205,0-0.451,0.121-0.657,0.162c-0.326,0.082-0.98,0.164-1.758,0.246
		c-0.777,0.041-8.921,0.041-10.229,0.041c-1.145,0-3.722-0.123-5.891-0.123c-0.613,0-0.9,0.082-0.9,0.367
		c0,0.288,0.246,0.37,0.695,0.37c0.572,0,1.269,0.041,1.597,0.123c1.35,0.285,1.676,0.941,1.758,2.333
		c0.082,1.309,0.082,2.455,0.082,8.675v7.201c0,3.763,0,6.996-0.205,8.716c-0.162,1.186-0.367,2.084-1.186,2.248
		c-0.367,0.082-0.857,0.164-1.474,0.164c-0.49,0-0.654,0.124-0.654,0.329c0,0.287,0.287,0.41,0.819,0.41
		c1.637,0,4.214-0.123,5.155-0.123c2.413,0,5.153,0.246,11.333,0.246c1.554,0,1.923,0,2.208-1.067
		c0.205-0.816,0.531-3.599,0.531-4.538c0-0.41,0-0.738-0.326-0.738c-0.285,0-0.367,0.164-0.449,0.615
		c-0.287,1.675-0.777,2.536-1.841,3.028c-1.064,0.488-2.783,0.488-3.847,0.488c-4.173,0-4.827-0.611-4.909-3.435
		c-0.041-1.189,0-4.952,0-6.344V23.79c0-0.242,0.041-0.406,0.244-0.406c0.982,0,5.032,0.041,5.811,0.123
		c1.514,0.164,2.086,0.775,2.291,1.592c0.123,0.534,0.123,1.067,0.164,1.478c0,0.201,0.08,0.365,0.367,0.365
		c0.369,0,0.369-0.447,0.369-0.775c0-0.287,0.08-1.924,0.165-2.741c0.12-2.089,0.326-2.741,0.326-2.987s-0.123-0.329-0.288-0.329
		c-0.203,0-0.367,0.206-0.654,0.534c-0.367,0.406-0.98,0.529-1.963,0.611c-0.941,0.082-5.646,0.082-6.545,0.082
		c-0.246,0-0.287-0.164-0.287-0.447V10.531c0-0.285,0.082-0.408,0.287-0.408c0.816,0,5.112,0.082,5.809,0.164
		c2.045,0.244,2.455,0.737,2.74,1.473c0.205,0.491,0.246,1.186,0.246,1.474c0,0.367,0.082,0.573,0.367,0.573
		c0.288,0,0.37-0.247,0.411-0.452c0.082-0.491,0.164-2.292,0.203-2.701c0.123-1.881,0.328-2.374,0.328-2.659
		C661.432,7.79,661.391,7.628,661.188,7.628"/>
	<path fill="#FBBF15" d="M67.169,39.8c-0.259,0.005-0.507,0.007-0.737,0.007c0.038,0,0.075,0,0.111,0
		C66.778,39.807,66.986,39.805,67.169,39.8 M46.535,27.085c-0.162,0-0.203-0.124-0.162-0.288l3.763-10.065
		c0.041-0.162,0.123-0.367,0.246-0.367s0.164,0.205,0.205,0.367l3.682,10.106c0.041,0.123,0,0.247-0.206,0.247H46.535 M51.404,7.978
		c-0.409,0-0.655,0.451-1.146,1.636L39.988,35.308c-0.816,2.045-1.594,3.437-3.476,3.683c-0.328,0.041-0.9,0.082-1.268,0.082
		c-0.328,0-0.492,0.08-0.492,0.326c0,0.326,0.246,0.408,0.777,0.408c2.128,0,4.378-0.121,4.828-0.121
		c1.268,0,3.027,0.121,4.337,0.121c0.449,0,0.695-0.082,0.695-0.408c0-0.246-0.123-0.326-0.613-0.326h-0.616
		c-1.268,0-1.635-0.533-1.635-1.271c0-0.49,0.203-1.471,0.613-2.494l2.21-5.852c0.08-0.244,0.162-0.326,0.367-0.326h9.126
		c0.203,0,0.326,0.082,0.408,0.285l3.272,8.675c0.205,0.49-0.082,0.859-0.369,0.941c-0.409,0.041-0.571,0.121-0.571,0.367
		c0,0.287,0.488,0.287,1.228,0.326c3.185,0.08,6.098,0.082,7.611,0.082c-0.529-0.001-0.812-0.122-0.812-0.408
		c0-0.205,0.162-0.326,0.652-0.326c0.275,0,0.526-0.017,0.751-0.042c-0.271-0.025-0.555-0.065-0.839-0.122
		c-0.859-0.205-2.046-0.777-3.601-4.461c-2.618-6.218-9.163-22.91-10.146-25.161C52.02,8.346,51.773,7.978,51.404,7.978"/>
	<path fill="#FBBF15" d="M66.421,39.807c0.001,0,0.003,0,0.004,0c0.002,0,0.004,0,0.006,0
		C66.429,39.807,66.425,39.807,66.421,39.807 M77.431,25.122c-1.021,0-2.248-0.124-3.107-0.411
		c-0.287-0.123-0.367-0.287-0.367-0.736V11.538c0-0.328,0.08-0.492,0.367-0.574c0.408-0.122,1.145-0.163,2.168-0.163
		c2.413,0,6.26,1.677,6.26,7.486c0,3.354-1.188,5.238-2.415,6.137C79.6,24.957,79.068,25.122,77.431,25.122 M77.267,8.877
		C75.999,8.877,72.891,9,71.5,9c-0.859,0-3.437-0.123-5.605-0.123c-0.613,0-0.9,0.083-0.9,0.368c0,0.287,0.246,0.368,0.695,0.368
		c0.572,0,1.269,0.041,1.597,0.123c1.35,0.287,1.676,0.941,1.758,2.332c0.082,1.309,0.082,2.454,0.082,8.674v7.202
		c0,3.763,0,6.996-0.205,8.713c-0.162,1.186-0.367,2.087-1.186,2.251c-0.203,0.045-0.444,0.091-0.723,0.122
		c0.315,0.03,0.614,0.042,0.878,0.042c0.329,0,0.534,0.041,0.534,0.326c0,0.275-0.263,0.377-1.255,0.401
		c1.587-0.025,3.581-0.114,4.249-0.114c0.613,0,3.642,0.121,6.013,0.121c0.534,0,0.819-0.121,0.819-0.408
		c0-0.205-0.162-0.326-0.49-0.326c-0.493,0-1.392-0.082-2.007-0.164c-1.227-0.164-1.471-1.065-1.594-2.251
		c-0.203-1.717-0.203-4.95-0.203-8.754v-0.575c0-0.244,0.121-0.327,0.326-0.327l3.56,0.083c0.287,0,0.531,0.041,0.736,0.285
		c0.531,0.613,2.413,3.395,4.05,5.646c2.292,3.151,3.847,5.074,5.605,6.016c1.064,0.572,2.086,0.775,4.378,0.775h3.888
		c0.488,0,0.775-0.082,0.775-0.408c0-0.205-0.164-0.326-0.49-0.326c-0.328,0-0.695-0.041-1.146-0.123
		c-0.613-0.123-2.29-0.41-4.582-2.782c-2.414-2.536-5.237-6.18-8.877-10.761c4.132-3.354,5.4-6.137,5.4-9.165
		c0-2.741-1.638-4.828-2.782-5.605C82.587,9.123,79.846,8.877,77.267,8.877"/>
	<path fill="#FBBF15" d="M67.013,39.031c-0.225,0.025-0.476,0.042-0.751,0.042c-0.49,0-0.652,0.121-0.652,0.326
		c0,0.286,0.283,0.407,0.812,0.408c0.003,0,0.007,0,0.011,0c0.23,0,0.478-0.002,0.737-0.007c0.992-0.024,1.255-0.126,1.255-0.401
		c0-0.285-0.205-0.326-0.534-0.326C67.627,39.073,67.328,39.061,67.013,39.031"/>
	<path fill="#FBBF15" d="M111.542,8.138c-0.779,0-1.146,0.082-1.146,0.409c0,0.287,0.328,0.328,0.695,0.328
		c0.533,0,1.145,0.041,1.637,0.205c0.367,0.122,0.531,0.449,0.531,0.777c0,0.367-0.164,0.982-0.367,1.513
		c-0.982,2.701-6.303,15.875-8.061,20.374h-0.164L97.632,13.17c-0.574-1.473-0.941-2.619-0.941-3.15
		c0-0.368,0.121-0.654,0.408-0.859c0.328-0.245,0.941-0.286,1.596-0.286c0.367,0,0.613-0.082,0.613-0.367
		c0-0.288-0.449-0.37-0.941-0.37c-2.046,0-4.009,0.123-5.03,0.123c-1.433,0-3.765-0.123-5.934-0.123
		c-0.613,0-1.063,0.041-1.063,0.37c0,0.244,0.12,0.367,0.49,0.367c0.326,0,0.98,0,1.594,0.163c1.474,0.41,2.169,0.86,3.11,3.11
		l10.31,24.998c0.777,1.923,1.023,2.495,1.556,2.495c0.572,0,0.818-0.654,1.881-3.026c0.9-2.048,2.823-6.506,5.443-12.48
		c2.209-5.032,3.313-7.24,4.909-11.087c1.104-2.618,1.718-3.313,2.249-3.682c0.366-0.244,0.761-0.366,1.116-0.428
		c-0.354-0.042-0.828-0.063-1.237-0.063c-0.449,0-0.695-0.082-0.695-0.367c0-0.147,0.075-0.241,0.23-0.297
		c-0.614,0.027-1.154,0.05-1.458,0.05C115.305,8.261,113.585,8.138,111.542,8.138 M119.683,8.138c-0.198,0-0.415,0.003-0.642,0.008
		c0.363,0.006,0.729,0.013,1.091,0.022C120.006,8.146,119.855,8.138,119.683,8.138"/>
	<path fill="#FBBF15" d="M117.964,8.138c-0.298,0-0.52,0.02-0.668,0.073c0.562-0.024,1.185-0.051,1.745-0.064
		C118.677,8.141,118.315,8.138,117.964,8.138 M136.531,7.811c-0.205,0-0.449,0.123-0.654,0.164
		c-0.329,0.082-0.983,0.163-1.759,0.245c-0.777,0.041-8.953,0.041-10.262,0.041c-0.775,0-2.208-0.057-3.725-0.093
		c0.26,0.044,0.408,0.145,0.408,0.339c0,0.285-0.244,0.367-0.652,0.367c-0.207,0-0.527,0-0.89,0.063
		c0.142,0.017,0.264,0.037,0.356,0.06c1.353,0.286,1.679,0.94,1.761,2.332c0.082,1.31,0.082,2.455,0.082,8.673v7.201
		c0,3.765,0,6.996-0.205,8.714c-0.165,1.188-0.37,2.088-1.187,2.25c-0.369,0.082-0.859,0.164-1.473,0.164
		c-0.492,0-0.654,0.123-0.654,0.329c0,0.285,0.285,0.408,0.818,0.408c1.637,0,4.214-0.123,5.153-0.123
		c2.421,0,5.181,0.246,11.366,0.246c1.556,0,1.923,0,2.21-1.065c0.205-0.818,0.531-3.601,0.531-4.54c0-0.41,0-0.736-0.326-0.736
		c-0.287,0-0.369,0.164-0.451,0.613c-0.285,1.678-0.777,2.536-1.841,3.028c-1.063,0.49-2.781,0.49-3.845,0.49
		c-4.193,0-4.852-0.613-4.934-3.437c-0.041-1.186,0-4.95,0-6.342v-3.231c0-0.246,0.041-0.41,0.246-0.41
		c0.988,0,5.055,0.041,5.833,0.123c1.514,0.164,2.086,0.778,2.291,1.596c0.121,0.532,0.121,1.063,0.162,1.473
		c0,0.203,0.082,0.367,0.369,0.367c0.367,0,0.367-0.449,0.367-0.777c0-0.287,0.082-1.922,0.164-2.741
		c0.124-2.086,0.329-2.741,0.329-2.987c0-0.244-0.123-0.326-0.287-0.326c-0.206,0-0.368,0.203-0.655,0.532
		c-0.369,0.41-0.982,0.531-1.963,0.613c-0.941,0.082-5.663,0.082-6.569,0.082c-0.246,0-0.287-0.164-0.287-0.449V10.716
		c0-0.287,0.082-0.41,0.287-0.41c0.824,0,5.137,0.082,5.833,0.165c2.045,0.245,2.453,0.736,2.74,1.472
		c0.205,0.492,0.246,1.187,0.246,1.474c0,0.367,0.08,0.573,0.368,0.573c0.287,0,0.367-0.247,0.41-0.452
		c0.08-0.49,0.162-2.29,0.203-2.699c0.123-1.882,0.328-2.374,0.328-2.66C136.777,7.975,136.736,7.811,136.531,7.811"/>
	<path fill="#FBBF15" d="M119.041,8.146c-0.561,0.014-1.184,0.04-1.745,0.064c-0.155,0.056-0.23,0.149-0.23,0.297
		c0,0.285,0.246,0.367,0.695,0.367c0.409,0,0.883,0.021,1.237,0.063c0.362-0.063,0.683-0.063,0.89-0.063
		c0.408,0,0.652-0.082,0.652-0.367c0-0.194-0.148-0.295-0.408-0.339C119.771,8.159,119.404,8.152,119.041,8.146"/>
	<path fill="#FBBF15" d="M153.652,24.381c-1.022,0-2.251-0.124-3.11-0.409c-0.285-0.123-0.367-0.287-0.367-0.736V10.798
		c0-0.327,0.082-0.492,0.367-0.574c0.41-0.122,1.146-0.163,2.168-0.163c2.415,0,6.262,1.677,6.262,7.488
		c0,3.354-1.188,5.236-2.414,6.136C155.82,24.216,155.289,24.381,153.652,24.381 M153.488,8.138c-1.269,0-4.377,0.123-5.768,0.123
		c-0.859,0-3.437-0.123-5.605-0.123c-0.615,0-0.9,0.082-0.9,0.37c0,0.285,0.244,0.367,0.695,0.367c0.573,0,1.269,0.041,1.597,0.123
		c1.35,0.286,1.676,0.94,1.758,2.332c0.082,1.31,0.082,2.455,0.082,8.673v7.201c0,3.765,0,6.996-0.205,8.714
		c-0.164,1.188-0.367,2.088-1.186,2.25c-0.369,0.082-0.859,0.164-1.473,0.164c-0.491,0-0.655,0.123-0.655,0.329
		c0,0.285,0.287,0.408,0.819,0.408c1.637,0,4.214-0.123,4.991-0.123c0.613,0,3.64,0.123,6.014,0.123
		c0.531,0,0.818-0.123,0.818-0.408c0-0.206-0.164-0.329-0.49-0.329c-0.492,0-1.394-0.082-2.005-0.164
		c-1.229-0.162-1.473-1.063-1.596-2.25c-0.205-1.718-0.205-4.949-0.205-8.755V26.59c0-0.246,0.123-0.328,0.328-0.328l3.558,0.082
		c0.287,0,0.533,0.041,0.736,0.287c0.533,0.613,2.415,3.396,4.052,5.646c2.29,3.148,3.845,5.071,5.605,6.013
		c1.063,0.573,2.086,0.778,4.376,0.778h3.888c0.49,0,0.777-0.082,0.777-0.408c0-0.206-0.164-0.329-0.492-0.329
		c-0.326,0-0.695-0.041-1.145-0.123c-0.613-0.121-2.292-0.408-4.581-2.782c-2.415-2.535-5.238-6.177-8.88-10.76
		c4.132-3.354,5.4-6.137,5.4-9.163c0-2.741-1.636-4.829-2.782-5.605C158.808,8.384,156.067,8.138,153.488,8.138"/>
	<path fill="#FBBF15" d="M260.935,8.138c-1.596,0-4.581,0.123-5.563,0.123c-1.104,0-3.681-0.123-5.605-0.123
		c-0.613,0-0.898,0.082-0.898,0.37c0,0.285,0.244,0.367,0.693,0.367c0.533,0,1.023,0.041,1.353,0.123
		c1.348,0.286,1.676,0.94,1.758,2.332c0.082,1.31,0.082,2.455,0.082,8.673v7.201c0,3.765,0,6.996-0.205,8.714
		c-0.164,1.188-0.367,2.088-1.186,2.25c-0.37,0.082-0.86,0.164-1.474,0.164c-0.49,0-0.654,0.123-0.654,0.329
		c0,0.285,0.287,0.408,0.818,0.408c1.638,0,4.214-0.123,5.156-0.123c3.313,0,6.013,0.246,11.903,0.246
		c2.128,0,2.333-0.205,2.579-1.104c0.326-1.188,0.613-4.257,0.613-4.706c0-0.49-0.041-0.695-0.328-0.695
		c-0.326,0-0.408,0.246-0.449,0.613c-0.082,0.777-0.572,1.922-1.063,2.456c-1.024,1.104-2.62,1.145-4.789,1.145
		c-3.19,0-4.255-0.285-4.95-0.9c-0.857-0.737-0.857-3.56-0.857-8.796v-7.201c0-6.219,0-7.363,0.08-8.673
		c0.082-1.431,0.41-2.127,1.514-2.332c0.492-0.082,1.146-0.123,1.596-0.123c0.493,0,0.737-0.082,0.737-0.367
		C261.795,8.22,261.51,8.138,260.935,8.138"/>
	<path fill="#FBBF15" d="M282.014,8.138c-1.595,0-4.581,0.123-5.564,0.123c-1.104,0-3.681-0.123-5.604-0.123
		c-0.613,0-0.898,0.082-0.898,0.37c0,0.285,0.244,0.367,0.695,0.367c0.531,0,1.021,0.041,1.35,0.123
		c1.35,0.286,1.676,0.94,1.758,2.332c0.082,1.31,0.082,2.455,0.082,8.673v7.201c0,3.765,0,6.996-0.205,8.714
		c-0.162,1.188-0.367,2.088-1.186,2.25c-0.367,0.082-0.859,0.164-1.473,0.164c-0.49,0-0.654,0.123-0.654,0.329
		c0,0.285,0.287,0.408,0.818,0.408c1.637,0,4.214-0.123,5.153-0.123c3.315,0,6.016,0.246,11.908,0.246
		c2.125,0,2.33-0.205,2.577-1.104c0.326-1.188,0.613-4.257,0.613-4.706c0-0.49-0.041-0.695-0.326-0.695
		c-0.328,0-0.411,0.246-0.452,0.613c-0.082,0.777-0.572,1.922-1.063,2.456c-1.023,1.104-2.62,1.145-4.788,1.145
		c-3.19,0-4.256-0.285-4.949-0.9c-0.859-0.737-0.859-3.56-0.859-8.796v-7.201c0-6.219,0-7.363,0.082-8.673
		c0.08-1.431,0.408-2.127,1.514-2.332c0.491-0.082,1.146-0.123,1.595-0.123c0.49,0,0.736-0.082,0.736-0.367
		C282.873,8.22,282.588,8.138,282.014,8.138"/>
	<path fill="#FBBF15" d="M312.657,7.811c-0.205,0-0.451,0.123-0.654,0.164c-0.328,0.082-0.983,0.163-1.761,0.245
		c-0.777,0.041-8.919,0.041-10.228,0.041c-1.145,0-3.724-0.123-5.893-0.123c-0.613,0-0.898,0.082-0.898,0.37
		c0,0.285,0.244,0.367,0.693,0.367c0.574,0,1.271,0.041,1.597,0.123c1.35,0.286,1.678,0.94,1.76,2.332
		c0.082,1.31,0.082,2.455,0.082,8.673v7.201c0,3.765,0,6.996-0.205,8.714c-0.164,1.188-0.369,2.088-1.186,2.25
		c-0.369,0.082-0.859,0.164-1.474,0.164c-0.492,0-0.654,0.123-0.654,0.329c0,0.285,0.285,0.408,0.816,0.408
		c1.638,0,4.217-0.123,5.156-0.123c2.415,0,5.156,0.246,11.333,0.246c1.556,0,1.923,0,2.21-1.065
		c0.205-0.818,0.531-3.601,0.531-4.54c0-0.41,0-0.736-0.326-0.736c-0.287,0-0.369,0.164-0.451,0.613
		c-0.285,1.678-0.777,2.536-1.841,3.028c-1.064,0.49-2.781,0.49-3.847,0.49c-4.173,0-4.827-0.613-4.909-3.437
		c-0.041-1.186,0-4.95,0-6.342v-3.231c0-0.246,0.041-0.41,0.246-0.41c0.98,0,5.032,0.041,5.808,0.123
		c1.515,0.164,2.089,0.778,2.292,1.596c0.123,0.532,0.123,1.063,0.164,1.473c0,0.203,0.082,0.367,0.369,0.367
		c0.368,0,0.368-0.449,0.368-0.777c0-0.287,0.082-1.922,0.164-2.741c0.123-2.086,0.326-2.741,0.326-2.987
		c0-0.244-0.123-0.326-0.285-0.326c-0.205,0-0.37,0.203-0.655,0.532c-0.369,0.41-0.982,0.531-1.965,0.613
		c-0.94,0.082-5.645,0.082-6.545,0.082c-0.246,0-0.287-0.164-0.287-0.449V10.716c0-0.287,0.082-0.41,0.287-0.41
		c0.818,0,5.112,0.082,5.811,0.165c2.045,0.245,2.453,0.736,2.738,1.472c0.205,0.492,0.246,1.187,0.246,1.474
		c0,0.367,0.083,0.573,0.37,0.573c0.285,0,0.367-0.247,0.408-0.452c0.082-0.49,0.164-2.29,0.205-2.699
		c0.123-1.882,0.326-2.374,0.326-2.66C312.901,7.975,312.86,7.811,312.657,7.811"/>
	<path fill="#FBBF15" d="M332.889,7.565c-3.437,0-7.078,0.286-11.005,2.659c-3.725,2.251-7.12,6.832-7.12,13.379
		c0,11.292,8.878,16.038,18.902,16.038c3.192,0,7.201-0.449,9.86-1.841c0.49-0.287,0.531-0.369,0.531-1.473v-4.502
		c0-2.045,0-3.681,0.041-4.909c0.041-1.432,0.449-2.127,1.555-2.331c0.49-0.082,0.778-0.123,1.104-0.123
		c0.287,0,0.531-0.082,0.531-0.329c0-0.326-0.285-0.408-0.816-0.408c-1.351,0-3.519,0.123-4.787,0.123
		c-1.229,0-3.806-0.123-5.933-0.123c-0.573,0-0.86,0.082-0.86,0.408c0,0.247,0.246,0.329,0.613,0.329
		c0.573,0,1.271,0.041,1.597,0.123c1.35,0.285,1.717,0.939,1.758,2.331c0.043,1.229,0.043,2.782,0.043,4.827v3.848
		c0,0.695-0.164,1.227-0.777,1.514c-0.982,0.449-2.414,0.449-3.478,0.449c-8.633,0-14.238-6.586-14.238-15.383
		c0-5.033,1.474-8.1,3.763-10.023c2.866-2.373,5.852-2.537,8.102-2.537c4.623,0,7.897,1.882,9.124,3.192
		c1.065,1.145,1.269,2.454,1.392,3.396c0.041,0.326,0.123,0.531,0.41,0.531c0.326,0,0.449-0.205,0.449-0.859
		c0-5.114,0.285-6.26,0.285-6.71c0-0.286-0.08-0.449-0.572-0.49c-0.939-0.041-2.374-0.287-3.231-0.451
		C339.312,8.057,335.712,7.565,332.889,7.565"/>
	<path fill="#FBBF15" d="M366.179,7.811c-0.203,0-0.449,0.123-0.654,0.164c-0.326,0.082-0.981,0.163-1.759,0.245
		c-0.777,0.041-8.919,0.041-10.229,0.041c-1.145,0-3.722-0.123-5.891-0.123c-0.615,0-0.9,0.082-0.9,0.37
		c0,0.285,0.246,0.367,0.695,0.367c0.572,0,1.269,0.041,1.597,0.123c1.35,0.286,1.676,0.94,1.758,2.332
		c0.082,1.31,0.082,2.455,0.082,8.673v7.201c0,3.765,0,6.996-0.203,8.714c-0.164,1.188-0.369,2.088-1.188,2.25
		c-0.367,0.082-0.859,0.164-1.474,0.164c-0.49,0-0.654,0.123-0.654,0.329c0,0.285,0.287,0.408,0.818,0.408
		c1.638,0,4.215-0.123,5.156-0.123c2.413,0,5.154,0.246,11.333,0.246c1.554,0,1.923,0,2.208-1.065
		c0.205-0.818,0.531-3.601,0.531-4.54c0-0.41,0-0.736-0.326-0.736c-0.287,0-0.367,0.164-0.451,0.613
		c-0.285,1.678-0.775,2.536-1.841,3.028c-1.063,0.49-2.782,0.49-3.845,0.49c-4.173,0-4.827-0.613-4.909-3.437
		c-0.041-1.186,0-4.95,0-6.342v-3.231c0-0.246,0.041-0.41,0.244-0.41c0.982,0,5.032,0.041,5.81,0.123
		c1.515,0.164,2.087,0.778,2.292,1.596c0.123,0.532,0.123,1.063,0.164,1.473c0,0.203,0.08,0.367,0.367,0.367
		c0.367,0,0.367-0.449,0.367-0.777c0-0.287,0.083-1.922,0.165-2.741c0.123-2.086,0.328-2.741,0.328-2.987
		c0-0.244-0.123-0.326-0.287-0.326c-0.206,0-0.367,0.203-0.655,0.532c-0.367,0.41-0.982,0.531-1.963,0.613
		c-0.942,0.082-5.646,0.082-6.545,0.082c-0.246,0-0.287-0.164-0.287-0.449V10.716c0-0.287,0.082-0.41,0.287-0.41
		c0.816,0,5.112,0.082,5.808,0.165c2.046,0.245,2.456,0.736,2.741,1.472c0.205,0.492,0.247,1.187,0.247,1.474
		c0,0.367,0.082,0.573,0.367,0.573c0.287,0,0.369-0.247,0.41-0.452c0.082-0.49,0.164-2.29,0.205-2.699
		c0.121-1.882,0.326-2.374,0.326-2.66C366.425,7.975,366.384,7.811,366.179,7.811"/>
	<path fill="#FBBF15" d="M210.801,37.491c1.649-2.544,1.416-7.645,1.416-7.645h-1.178c-0.205,0.645-0.234,0.77-0.267,0.93
		c-0.212,0.872-0.889,2.275-1.777,3.194c-2.091,2.228-4.911,2.71-9.563,2.71c-7.002,0-16.458-5.707-16.458-17.226
		c0-4.692,0.993-9.288,4.807-12.529c2.298-1.936,5.276-3,9.823-3c4.807,0,8.882,1.306,10.605,3c1.161,1.118,2.019,2.384,1.994,5.522
		h1.214V2.941c-0.106-0.038-0.231-0.069-0.388-0.081c-1.565-0.146-3.237-0.581-5.226-0.822c-2.402-0.289-4.335-0.485-7.574-0.485
		c-7.784,0-12.747,1.937-16.51,5.129c-5.017,4.259-6.114,9.966-6.114,13.257c0,4.694,1.36,10.112,6.479,14.273
		c4.756,3.822,10.763,5.274,17.921,5.274c3.345,0,9.126-0.33,9.776-0.677C210.355,38.504,210.448,38.037,210.801,37.491z"/>
	<path fill="#FBBF15" d="M395.283,37.925c-6.614,0-10.574-5.683-10.574-12.847c0-8.58,4.512-10.786,8.474-10.786
		c5.647,0,10.092,4.791,10.092,12.505C403.274,36.752,397.694,37.925,395.283,37.925 M394.18,12.638
		c-10.332,0-14.225,7.615-14.225,13.507c0,6.098,3.995,13.5,13.88,13.5c8.75,0,14.261-6.233,14.261-14.12
		C408.096,17.635,402.757,12.638,394.18,12.638"/>
	<path fill="#FBBF15" d="M426.054,12.845c-0.172,0-0.345,0.139-0.552,0.208c-0.345,0.103-0.757,0.103-1.414,0.137
		c-0.792,0.033-7.783,0.033-9.093,0.033c-0.997,0-3.168-0.103-4.959-0.103c-0.517,0-0.791,0.07-0.791,0.345
		c0,0.208,0.239,0.275,0.584,0.275c0.484,0,1.069,0.035,1.344,0.104c1.137,0.24,1.414,0.794,1.481,1.964
		c0.067,1.104,0.067,2.068,0.067,7.304v6.061c0,3.308,0,5.893-0.172,7.337c-0.136,1.001-0.308,1.76-0.997,1.896
		c-0.312,0.069-0.725,0.14-1.239,0.14c-0.38,0-0.517,0.103-0.517,0.274c0,0.275,0.239,0.345,0.722,0.345
		c1.309,0,3.479-0.103,4.374-0.103c0.896,0,3.065,0.103,5.236,0.103c0.517,0,0.759-0.103,0.759-0.345
		c0-0.172-0.14-0.274-0.587-0.274c-0.481,0-1.239-0.07-1.724-0.14c-1.031-0.136-1.238-0.895-1.342-1.896
		c-0.172-1.444-0.172-4.029-0.172-7.337v-2.79c0-0.238,0.069-0.308,0.242-0.308c0.582,0,4.234,0,5.096,0.103
		c1.067,0.14,1.584,0.759,1.757,1.239c0.14,0.415,0.207,0.829,0.207,1.071c0,0.238,0.067,0.48,0.277,0.48
		c0.343,0,0.343-0.345,0.343-0.652c0-0.242,0.067-1.826,0.137-2.516c0.103-1.067,0.275-1.928,0.275-2.138
		c0-0.205-0.068-0.308-0.205-0.308c-0.207,0-0.275,0.135-0.447,0.345c-0.345,0.447-0.827,0.586-1.481,0.62
		c-0.482,0.033-0.964,0.033-1.551,0.033l-4.407,0.037c-0.209,0-0.242-0.103-0.242-0.312v-8.611c0-0.379,0.103-0.482,0.31-0.482
		l5.304,0.103c1.309,0.035,2.033,0.552,2.273,1.034c0.207,0.484,0.207,1.034,0.207,1.309c0.035,0.377,0.104,0.55,0.345,0.55
		s0.31-0.205,0.345-0.48c0.067-0.415,0.138-2.448,0.172-2.792c0.103-0.896,0.275-1.311,0.275-1.551
		C426.294,12.984,426.191,12.845,426.054,12.845"/>
	<path fill="#FBBF15" d="M476.756,0c-0.463,0-0.771,0.41-1.13,1.233L461.64,30.597L447.604,1.594C446.936,0.256,446.628,0,446.216,0
		c-0.413,0-0.721,0.461-0.875,1.335l-5.09,33.529c-0.258,1.748-0.669,3.75-2.109,4.063c-0.771,0.151-1.13,0.151-1.542,0.151
		c-0.513,0-0.821,0.103-0.821,0.361c0,0.464,0.41,0.566,0.924,0.566c1.646,0,4.115-0.156,5.092-0.156
		c0.926,0,3.237,0.156,5.398,0.156c0.771,0,1.232-0.103,1.232-0.566c0-0.259-0.359-0.361-0.771-0.361
		c-0.513,0-1.232-0.049-2.158-0.254c-0.874-0.21-1.543-0.669-1.543-1.646c0-0.825,0.052-1.494,0.154-2.417l2.673-20.47h0.208
		c1.799,3.859,4.885,10.338,5.346,11.417c0.618,1.44,4.68,9.306,5.913,11.674c0.823,1.543,1.336,2.568,1.8,2.568
		c0.463,0,0.72-0.464,1.901-2.881l11.208-23.343h0.205l3.086,22.625c0.207,1.44,0.054,2.109-0.256,2.212
		c-0.359,0.151-0.564,0.308-0.564,0.566c0,0.308,0.308,0.459,1.489,0.566c2.056,0.151,9.152,0.308,10.438,0.308
		c0.719,0,1.336-0.156,1.336-0.566c0-0.308-0.359-0.361-0.822-0.361c-0.669,0-1.697-0.049-3.188-0.513
		c-1.543-0.464-2.056-1.953-2.52-5.195l-4.678-31.776C477.525,0.513,477.218,0,476.756,0"/>
</g>
</svg>
