<?xml version="1.0" encoding="utf-8"?>
<!-- Generator: Adobe Illustrator 15.1.0, SVG Export Plug-In . SVG Version: 6.00 Build 0)  -->
<!DOCTYPE svg PUBLIC "-//W3C//DTD SVG 1.1//EN" "http://www.w3.org/Graphics/SVG/1.1/DTD/svg11.dtd">
<svg version="1.1" id="Layer_1" xmlns="http://www.w3.org/2000/svg" xmlns:xlink="http://www.w3.org/1999/xlink" x="0px" y="0px"
	 width="954.426px" height="40px" viewBox="-159.387 -6.68 954.426 40" enable-background="new -159.387 -6.68 954.426 40"
	 xml:space="preserve">
<path fill="#FFC000" d="M-125.049,29.305c-4.442,3.034-9.197,4.016-14.012,4.016c-12.78,0-20.326-8.914-20.326-20.005
	c0-10.703,8.029-19.995,21.429-19.995c5.356,0,9.126,1.089,13.143,3.632v6.694c0,1.197-0.72,1.896-1.589,1.896
	c-1.153,0-1.756-0.268-2.36-1.787l-1.889-4.782c-0.611-1.521-4.086-2.394-7.307-2.394c-8.221,0-14.86,5.759-14.86,16.736
	c0,10.815,5.611,16.745,13.757,16.745c4.082,0,7.25-1.199,8.042-2.937l2.557-5.378c0.306-0.599,0.857-1.092,1.701-1.092
	c1.035,0,1.712,0.597,1.712,1.524L-125.049,29.305L-125.049,29.305z"/>
<path fill="#FFC000" d="M-103.979-2.366c11.369,0,18.088,7.936,18.088,17.804c0,9.54-7.586,17.809-18.088,17.809
	c-11.376,0-18.096-7.937-18.096-17.809C-122.073,5.903-114.491-2.366-103.979-2.366z M-103.979,30.343
	c6.34,0,12.241-5.132,12.241-14.904c0-9.635-4.987-14.905-12.241-14.905c-6.346,0-12.244,5.129-12.244,14.905
	C-116.222,25.072-111.237,30.343-103.979,30.343z"/>
<path fill="#FFC000" d="M-80.356,1.792c0-0.876-0.375-1.163-0.803-1.259l-2.275-0.582c-0.71-0.189-1.147-0.385-1.147-0.822
	c0-0.681,0.708-0.922,1.528-0.922h10.607c0.819,0,1.523,0.242,1.523,0.922c0,0.437-0.439,0.633-1.141,0.822l-2.278,0.582
	c-0.43,0.096-0.803,0.383-0.803,1.259v26.904c0,0.677,0.431,1.067,1.186,1.067h9.269c0.586,0,1.072-0.391,1.404-0.77l2.752-3.684
	c0.332-0.437,0.769-0.771,1.417-0.771c0.484,0,1.026,0.535,1.026,0.97c0,0.432-0.159,0.965-0.323,1.595l-1.518,5.559h-23.124
	c-0.818,0-1.526-0.239-1.526-0.916c0-0.434,0.436-0.628,1.146-0.819l2.275-0.585c0.43-0.092,0.803-0.382,0.803-1.251V1.792H-80.356z
	"/>
<path fill="#FFC000" d="M-52.23,1.792c0-0.876-0.385-1.163-0.813-1.259l-2.274-0.582c-0.704-0.189-1.142-0.385-1.142-0.822
	c0-0.681,0.709-0.922,1.515-0.922h10.622c0.812,0,1.516,0.242,1.516,0.922c0,0.437-0.436,0.633-1.133,0.822l-2.277,0.582
	c-0.435,0.096-0.812,0.383-0.812,1.259v26.904c0,0.677,0.426,1.067,1.188,1.067h9.257c0.604,0,1.09-0.391,1.414-0.77l2.766-3.684
	c0.32-0.437,0.754-0.771,1.402-0.771c0.483,0,1.035,0.535,1.035,0.97c0,0.432-0.166,0.965-0.328,1.595l-1.509,5.559h-23.139
	c-0.805,0-1.514-0.239-1.514-0.916c0-0.434,0.437-0.628,1.142-0.819l2.273-0.585c0.429-0.092,0.813-0.382,0.813-1.251L-52.23,1.792
	L-52.23,1.792z"/>
<path fill="#FFC000" d="M-24.105,1.792c0-0.876-0.375-1.163-0.825-1.259l-2.261-0.582c-0.712-0.189-1.147-0.385-1.147-0.822
	c0-0.681,0.705-0.922,1.527-0.922h23.336l0.542,4.746c0.049,0.389,0.049,0.77,0.049,1.156c0,0.588-0.484,1.217-1.19,1.217
	c-0.436,0-0.86-0.243-1.189-0.92l-1.359-2.663C-6.835,1.359-7.159,1.117-7.75,1.117h-11.155v12.483h9.361
	c0.813,0,1.361-0.191,1.577-0.919l0.598-1.841c0.142-0.534,0.48-0.822,1.079-0.822c0.865,0,1.189,0.193,1.189,1.017v8.031
	c0,0.824-0.325,1.021-1.189,1.021c-0.599,0-0.937-0.297-1.079-0.82l-0.598-1.842c-0.216-0.729-0.762-0.917-1.577-0.917h-9.363V28.7
	c0,0.674,0.422,1.065,1.189,1.065h9.86c0.593,0,1.084-0.392,1.404-0.771l2.762-3.685c0.324-0.436,0.759-0.771,1.407-0.771
	c0.489,0,1.035,0.535,1.035,0.971c0,0.431-0.166,0.964-0.33,1.595l-1.521,5.559h-23.712c-0.82,0-1.527-0.241-1.527-0.917
	c0-0.431,0.436-0.626,1.148-0.82l2.261-0.584c0.449-0.089,0.825-0.383,0.825-1.251v-27.3H-24.105z"/>
<path fill="#FFC000" d="M32.828,6.725c0,1.166-0.762,1.404-1.577,1.404c-0.923,0-1.409-0.379-1.731-1.258l-1.404-3.529
	c-0.823-2.034-3.037-2.811-6.29-2.811c-9.095,0-13.756,6.292-13.756,14.906c0,9.635,4.994,14.904,12.241,14.904
	c3.028,0.094,6.064-1.064,7.854-2.222v-7.212c0-0.386-0.219-0.532-0.542-0.63l-2.433-0.867c-0.493-0.193-0.871-0.635-0.871-1.021
	c0-0.583,0.322-0.874,1.027-0.874h11.482c0.705,0,1.033,0.291,1.033,0.874c0,0.386-0.378,0.728-0.863,0.876l-2.607,0.917
	c-0.484,0.147-0.704,0.436-0.704,0.917v7.692c-3.141,2.861-8.122,4.504-13.321,4.454c-11.434,0-18.144-7.937-18.144-17.809
	c0-9.535,7.902-17.804,18.842-17.804c5.099,0,8.354,1.295,11.761,3.382v5.708H32.828z"/>
<path fill="#FFC000" d="M43.775,1.792c0-0.876-0.375-1.163-0.805-1.259l-2.278-0.582c-0.701-0.189-1.14-0.385-1.14-0.822
	c0-0.681,0.705-0.922,1.522-0.922h23.337l0.543,4.746c0.057,0.389,0.057,0.77,0.057,1.156c0,0.588-0.483,1.217-1.191,1.217
	c-0.438,0-0.867-0.243-1.189-0.92l-1.361-2.663c-0.213-0.384-0.535-0.626-1.133-0.626H48.983v12.483h9.362
	c0.811,0,1.366-0.191,1.566-0.919l0.597-1.841c0.169-0.534,0.493-0.822,1.09-0.822c0.861,0,1.183,0.193,1.183,1.017v8.031
	c0,0.824-0.322,1.021-1.183,1.021c-0.598,0-0.921-0.297-1.09-0.82l-0.597-1.842c-0.2-0.729-0.756-0.917-1.566-0.917h-9.362V28.7
	c0,0.674,0.43,1.065,1.191,1.065h9.85c0.597,0,1.092-0.392,1.41-0.771l2.767-3.685c0.328-0.436,0.753-0.771,1.403-0.771
	c0.492,0,1.034,0.535,1.034,0.971c0,0.431-0.168,0.964-0.323,1.595l-1.522,5.559H41.075c-0.817,0-1.522-0.241-1.522-0.917
	c0-0.431,0.441-0.626,1.142-0.82l2.278-0.584c0.43-0.089,0.805-0.383,0.805-1.251v-27.3H43.775z"/>
<path fill="#FFC000" d="M100.339-2.366c11.376,0,18.085,7.936,18.085,17.804c0,9.54-7.58,17.809-18.085,17.809
	c-11.369,0-18.088-7.937-18.088-17.809C82.25,5.903,89.831-2.366,100.339-2.366z M100.339,30.343
	c6.333,0,12.244-5.132,12.244-14.904c0-9.635-4.979-14.905-12.244-14.905c-6.341,0-12.239,5.129-12.239,14.905
	C88.1,25.072,93.08,30.343,100.339,30.343z"/>
<path fill="#FFC000" d="M123.59,1.792c0-0.876-0.378-1.163-0.813-1.259l-2.274-0.582c-0.705-0.189-1.134-0.385-1.134-0.822
	c0-0.681,0.699-0.922,1.515-0.922h23.337l0.541,4.746c0.058,0.389,0.058,0.77,0.058,1.156c0,0.588-0.487,1.217-1.196,1.217
	c-0.437,0-0.865-0.243-1.185-0.92l-1.353-2.663c-0.224-0.384-0.542-0.626-1.148-0.626h-11.149v12.483h9.369
	c0.813,0,1.358-0.191,1.569-0.919l0.594-1.841c0.167-0.534,0.486-0.822,1.091-0.822c0.857,0,1.191,0.193,1.191,1.017v8.031
	c0,0.824-0.334,1.021-1.191,1.021c-0.604,0-0.924-0.297-1.091-0.82l-0.594-1.842c-0.211-0.729-0.756-0.917-1.569-0.917h-9.369
	v12.584c0,0.867,0.21,1.104,0.654,1.251l2.045,0.585c0.766,0.193,1.091,0.434,1.091,1.023c0,0.38-0.27,0.714-0.918,0.714h-10.777
	c-0.814,0-1.514-0.242-1.514-0.919c0-0.431,0.43-0.625,1.133-0.818l2.275-0.585c0.432-0.09,0.812-0.381,0.812-1.251V1.792H123.59z"
	/>
<path fill="#FFC000" d="M162.665-2.004c0-0.982-0.422-1.303-0.901-1.417l-2.563-0.647c-0.784-0.227-1.283-0.442-1.283-0.929
	c0-0.761,0.792-1.034,1.699-1.034h11.939c0.924,0,1.715,0.275,1.715,1.034c0,0.487-0.491,0.703-1.287,0.929l-2.56,0.647
	c-0.486,0.114-0.913,0.434-0.913,1.417v30.212c0,0.759,0.486,1.205,1.341,1.205h10.409c0.676,0,1.223-0.446,1.585-0.872l3.103-4.135
	c0.362-0.488,0.853-0.873,1.586-0.873c0.542,0,1.159,0.598,1.159,1.084c0,0.498-0.189,1.097-0.362,1.805l-1.716,6.24h-26
	c-0.907,0-1.699-0.266-1.699-1.027c0-0.484,0.5-0.701,1.283-0.924l2.563-0.648c0.479-0.111,0.901-0.439,0.901-1.414L162.665-2.004
	L162.665-2.004z"/>
<path fill="#FFC000" d="M193.779,1.792c0-0.876-0.388-1.163-0.818-1.259l-2.281-0.582c-0.691-0.189-1.137-0.385-1.137-0.822
	c0-0.681,0.698-0.922,1.517-0.922h10.622c0.804,0,1.509,0.242,1.509,0.922c0,0.437-0.433,0.633-1.142,0.822l-2.265,0.582
	c-0.435,0.096-0.816,0.383-0.816,1.259v27.301c0,0.867,0.381,1.161,0.816,1.251l2.265,0.585c0.708,0.193,1.142,0.388,1.142,0.818
	c0,0.677-0.705,0.919-1.509,0.919H191.06c-0.818,0-1.517-0.242-1.517-0.919c0-0.431,0.446-0.625,1.137-0.818l2.281-0.585
	c0.43-0.09,0.818-0.381,0.818-1.251V1.792z"/>
<path fill="#FFC000" d="M210.669,1.792c0-0.876-0.375-1.163-0.805-1.259l-2.282-0.582c-0.703-0.189-1.136-0.385-1.136-0.822
	c0-0.681,0.698-0.922,1.517-0.922h12.729c6.063,0,10.728,3.194,10.728,8.23c0,3.094-2.277,5.95-5.633,7.209v0.1
	c4.874,1.06,8.284,4.208,8.284,8.811c0,6.094-5.632,10.104-12.18,10.104h-13.926c-0.818,0-1.517-0.239-1.517-0.916
	c0-0.434,0.432-0.628,1.136-0.819l2.281-0.585c0.43-0.092,0.806-0.382,0.806-1.251V1.792H210.669z M215.866,12.584h3.522
	c4.339,0,6.504-2.521,6.504-6.146c0-2.908-2.051-5.321-6.229-5.321h-3.795v11.467H215.866z M215.866,28.696
	c0,0.677,0.438,1.067,1.196,1.067h3.418c5.413,0,8.063-3.622,8.063-7.206c0-3.976-2.708-7.07-8.283-7.07h-4.395V28.696z"/>
<path fill="#FFC000" d="M240.582,1.792c0-0.876-0.382-1.163-0.817-1.259l-2.275-0.582c-0.704-0.189-1.126-0.385-1.126-0.822
	c0-0.681,0.699-0.922,1.507-0.922h23.336l0.554,4.746c0.051,0.389,0.051,0.77,0.051,1.156c0,0.588-0.486,1.217-1.191,1.217
	c-0.435,0-0.875-0.243-1.189-0.92l-1.353-2.663c-0.219-0.384-0.549-0.626-1.142-0.626h-11.158v12.483h9.369
	c0.814,0,1.36-0.191,1.569-0.919l0.598-1.841c0.156-0.534,0.488-0.822,1.087-0.822c0.866,0,1.191,0.193,1.191,1.017v8.031
	c0,0.824-0.325,1.021-1.191,1.021c-0.597,0-0.931-0.297-1.087-0.82l-0.598-1.842c-0.208-0.729-0.755-0.917-1.569-0.917h-9.369V28.7
	c0,0.674,0.43,1.065,1.197,1.065h9.848c0.605,0,1.084-0.392,1.416-0.771l2.755-3.685c0.328-0.436,0.764-0.771,1.407-0.771
	c0.492,0,1.031,0.535,1.031,0.971c0,0.431-0.164,0.964-0.32,1.595l-1.52,5.559h-23.726c-0.809,0-1.507-0.241-1.507-0.917
	c0-0.431,0.423-0.626,1.126-0.82l2.274-0.584c0.437-0.089,0.817-0.383,0.817-1.251v-27.3H240.582z"/>
<path fill="#FFC000" d="M270.702,1.792c0-0.876-0.376-1.163-0.806-1.259l-2.28-0.582c-0.697-0.189-1.133-0.385-1.133-0.822
	c0-0.681,0.699-0.922,1.52-0.922h12.672c7.738,0,11.856,3.194,11.856,9.393c0,3.723-3.185,7.45-7.251,8.808l7.476,13.21
	c0.209,0.388,0.479,0.579,0.913,0.725l1.902,0.584c1.24,0.341,1.509,0.532,1.509,1.064c0,0.484-0.486,0.671-0.968,0.671h-7.641
	l-8.501-15.239h-4.066v11.669c0,0.868,0.219,1.104,0.652,1.251l2.056,0.584c0.761,0.194,1.091,0.433,1.091,1.021
	c0,0.384-0.273,0.716-0.921,0.716h-10.778c-0.819,0-1.52-0.241-1.52-0.917c0-0.431,0.437-0.626,1.133-0.82l2.28-0.584
	c0.43-0.089,0.806-0.383,0.806-1.251V1.792z M275.905,14.526h3.36c4.172,0,8.072-2.089,8.072-6.877c0-4.069-2.059-6.533-7.311-6.533
	h-4.121V14.526L275.905,14.526z"/>
<path fill="#FFC000" d="M313.83-1.792h3.74l12.186,31.264c0.157,0.438,0.438,0.782,0.809,0.871l1.944,0.584
	c0.875,0.24,1.313,0.48,1.313,0.966c0,0.531-0.486,0.771-1.028,0.771h-10.886c-0.711,0-1.09-0.332-1.09-0.771
	c0-0.384,0.336-0.53,1.526-0.966l1.452-0.53c0.435-0.143,0.542-0.344,0.542-0.633c0-0.146-0.107-0.432-0.217-0.77l-2.382-6.298
	h-13.537l-2.279,5.955c-0.107,0.289-0.271,0.781-0.271,1.015c0,0.246,0.164,0.588,0.493,0.677l1.84,0.584
	c0.859,0.24,1.133,0.532,1.133,0.915c0,0.49-0.373,0.822-1.077,0.822h-9.696c-0.712,0-1.03-0.332-1.03-0.771
	c0-0.384,0.269-0.67,1.304-0.966l2.108-0.584c0.272-0.048,0.704-0.532,1.147-1.789L313.83-1.792z M309.555,19.219h10.827
	l-5.25-14.329h-0.106L309.555,19.219z"/>
<path fill="#FFC000" d="M338.869,1.792c0-0.876-0.379-1.163-0.811-1.259l-2.273-0.582c-0.704-0.189-1.138-0.385-1.138-0.822
	c0-0.681,0.696-0.922,1.509-0.922h10.627c0.807,0,1.511,0.242,1.511,0.922c0,0.437-0.438,0.633-1.142,0.822l-2.271,0.582
	c-0.435,0.096-0.813,0.383-0.813,1.259v26.904c0,0.677,0.429,1.067,1.188,1.067h9.261c0.594,0,1.085-0.391,1.41-0.77l2.767-3.684
	c0.325-0.437,0.753-0.771,1.409-0.771c0.477,0,1.019,0.535,1.019,0.97c0,0.432-0.164,0.965-0.321,1.595l-1.518,5.559h-23.128
	c-0.813,0-1.51-0.239-1.51-0.916c0-0.434,0.432-0.628,1.137-0.819l2.274-0.585c0.433-0.092,0.811-0.382,0.811-1.251V1.792H338.869z"
	/>
<path fill="#FFC000" d="M392.925-6.031h4.202l13.699,35.117c0.179,0.484,0.485,0.869,0.911,0.977l2.193,0.648
	c0.97,0.271,1.463,0.549,1.463,1.092c0,0.594-0.555,0.861-1.159,0.861h-12.24c-0.781,0-1.21-0.371-1.21-0.861
	c0-0.44,0.362-0.6,1.704-1.092l1.638-0.595c0.487-0.161,0.612-0.385,0.612-0.703c0-0.167-0.125-0.496-0.237-0.872l-2.691-7.071
	h-15.216l-2.551,6.689c-0.121,0.321-0.308,0.863-0.308,1.146c0,0.267,0.187,0.649,0.542,0.757l2.08,0.648
	c0.963,0.271,1.271,0.605,1.271,1.023c0,0.559-0.424,0.93-1.219,0.93h-10.896c-0.782,0-1.159-0.371-1.159-0.861
	c0-0.44,0.313-0.76,1.468-1.092l2.375-0.648c0.305-0.057,0.786-0.601,1.28-2.018L392.925-6.031z M388.11,17.556h12.173
	l-5.896-16.082h-0.124L388.11,17.556z"/>
<path fill="#FFC000" d="M420.345,1.792c0-0.876-0.381-1.163-0.818-1.259l-2.282-0.582c-0.696-0.189-1.126-0.385-1.126-0.822
	c0-0.681,0.704-0.922,1.513-0.922h12.672c7.742,0,11.86,3.194,11.86,9.393c0,3.723-3.198,7.45-7.259,8.808l7.474,13.21
	c0.219,0.388,0.485,0.579,0.931,0.725l1.896,0.584c1.243,0.341,1.505,0.532,1.505,1.064c0,0.484-0.485,0.671-0.967,0.671h-7.642
	l-8.511-15.239h-4.047v11.669c0,0.868,0.213,1.104,0.642,1.251l2.063,0.584c0.752,0.194,1.078,0.433,1.078,1.021
	c0,0.384-0.27,0.716-0.925,0.716h-10.771c-0.809,0-1.513-0.241-1.513-0.917c0-0.431,0.43-0.626,1.126-0.82l2.282-0.584
	c0.438-0.089,0.818-0.383,0.818-1.251V1.792L420.345,1.792z M425.543,14.526h3.347c4.176,0,8.069-2.089,8.069-6.877
	c0-4.069-2.055-6.533-7.306-6.533h-4.11V14.526z"/>
<path fill="#FFC000" d="M457.662,1.117h-6.172c-0.648,0-0.92,0.191-1.189,0.626l-1.781,3.046c-0.387,0.688-0.813,1.068-1.685,1.068
	c-0.697,0-1.246-0.482-1.246-1.262c0-0.579,0.112-1.162,0.214-1.738l0.928-4.65h27.076l0.922,4.65
	c0.104,0.576,0.217,1.159,0.217,1.738c0,0.78-0.539,1.262-1.246,1.262c-0.867,0-1.311-0.381-1.684-1.068l-1.778-3.046
	c-0.264-0.435-0.556-0.626-1.196-0.626h-6.182v27.975c0,0.868,0.388,1.162,0.824,1.251l2.262,0.584
	c0.711,0.194,1.143,0.39,1.143,0.82c0,0.676-0.699,0.917-1.518,0.917h-10.606c-0.818,0-1.523-0.241-1.523-0.917
	c0-0.431,0.432-0.626,1.139-0.82l2.28-0.584c0.422-0.089,0.803-0.383,0.803-1.251V1.117z"/>
<path fill="#FFC000" d="M477.61,25.458c-0.05-0.343-0.05-0.781-0.05-1.065c0-0.871,0.322-1.312,1.131-1.312
	c0.818,0,1.078,0.583,1.463,1.312l1.951,3.683c0.76,1.497,2.061,2.268,5.529,2.268c3.732,0,7.302-2.467,7.302-6.387
	c0-2.034-1.837-4.066-3.569-4.986l-7.585-4.063c-3.628-1.933-5.679-4.401-5.679-8.179c0-6.381,6.168-9.092,11.373-9.092
	c2.869,0,6.225,0.527,8.771,1.837l0.486,4.596c0.05,0.34,0.05,0.779,0.05,1.065c0,0.873-0.587,1.306-1.296,1.306
	c-0.762,0-1.189-0.486-1.567-1.306l-1.142-2.568c-0.654-1.402-2.603-2.031-5.093-2.031c-3.355,0-6.718,1.749-6.718,5.085
	c0,1.982,1.518,4.014,3.953,5.273l7.479,3.821c3.408,1.742,5.74,4.553,5.74,8.276c0,5.277-5.584,10.26-12.452,10.26
	c-3.038,0-6.616-0.485-9.217-1.935L477.61,25.458z"/>
<path fill="#FFC000" d="M537.766,29.878c-2.848,2.155-5.252,3.276-8.926,3.276c-5.599,0-11.344-3.517-11.344-9.042
	c0-4.994,4.325-8.809,8.336-11.597c-2.038-2.782-3.188-4.889-3.188-7.433c0-3.865,2.961-7.236,8.005-7.236
	c3.669,0,7.011,2.049,7.011,5.87c0,2.787-1.806,5.084-6.356,8.799l7.896,11.448c0.98-1.665,1.967-4.206,1.967-6.067
	c0-0.684-0.606-1.026-1.366-1.27l-1.643-0.439c-0.662-0.147-1.045-0.394-1.045-1.032c0-0.729,0.606-0.729,1.816-0.729h8.434
	c0.71,0,1.09,0.099,1.09,0.876c0,0.491-0.705,0.737-1.14,0.883l-2.363,0.782c-0.387,0.143-0.429,0.441-0.5,0.78
	c-0.209,1.771-0.539,3.321-1.032,4.547c-0.542,1.466-1.366,3.038-2.288,4.402l1.961,2.984c0.33,0.485,0.658,0.786,1.313,0.929
	l2.193,0.59c0.548,0.144,0.662,0.44,0.662,0.832c0,0.442-0.322,0.629-0.935,0.629h-6.467L537.766,29.878z M527.685,15.399
	c-2.564,1.711-5.586,5.142-5.586,8.271c0,3.62,3.335,6.258,7.188,6.258c2.499,0,4.92-0.877,6.73-2.491L527.685,15.399z
	 M529.445,9.925c3.552-3.125,4.601-4.498,4.601-6.064c0-1.855-1.534-3.376-3.618-3.376c-2.195,0-3.832,1.618-3.832,3.57
	C526.596,5.625,527.03,6.894,529.445,9.925z"/>
<path fill="#FFC000" d="M558.311,24.568c-0.066-0.383-0.066-0.861-0.066-1.191c0-0.987,0.357-1.465,1.276-1.465
	c0.917,0,1.226,0.648,1.646,1.465l2.18,4.129c0.869,1.686,2.328,2.555,6.225,2.555c4.199,0,8.222-2.777,8.222-7.179
	c0-2.281-2.076-4.562-4.022-5.595l-8.526-4.568c-4.076-2.17-6.393-4.942-6.393-9.182c0-7.174,6.939-10.216,12.782-10.216
	c3.233,0,7.009,0.597,9.866,2.063l0.541,5.164c0.074,0.376,0.074,0.869,0.074,1.196c0,0.976-0.671,1.467-1.465,1.467
	c-0.847,0-1.345-0.54-1.77-1.467l-1.272-2.875c-0.736-1.583-2.92-2.288-5.728-2.288c-3.771,0-7.545,1.953-7.545,5.71
	c0,2.226,1.698,4.51,4.446,5.922l8.396,4.291c3.842,1.961,6.455,5.107,6.455,9.294c0,5.925-6.275,11.523-14.008,11.523
	c-3.404,0-7.418-0.539-10.342-2.17L558.311,24.568z"/>
<path fill="#FFC000" d="M618.069,29.666c-3.953,2.719-8.179,3.581-12.46,3.581c-11.369,0-18.078-7.937-18.078-17.809
	c0-9.535,7.145-17.804,19.068-17.804c4.757,0,8.113,0.965,11.685,3.234v5.957c0,1.065-0.645,1.696-1.399,1.696
	c-1.03,0-1.578-0.25-2.107-1.603l-1.695-4.255c-0.529-1.354-3.621-2.13-6.482-2.13c-7.323,0-13.228,5.129-13.228,14.905
	c0,9.636,4.992,14.904,12.235,14.904c3.643,0,6.452-1.063,7.162-2.606l2.269-4.801c0.27-0.532,0.768-0.96,1.517-0.96
	c0.929,0,1.515,0.527,1.515,1.353V29.666z"/>
<path fill="#FFC000" d="M627.668,1.792c0-0.876-0.371-1.163-0.799-1.259l-2.28-0.582c-0.713-0.189-1.14-0.385-1.14-0.822
	c0-0.681,0.711-0.922,1.515-0.922h10.607c0.824,0,1.527,0.242,1.527,0.922c0,0.437-0.435,0.633-1.142,0.822l-2.272,0.582
	c-0.439,0.096-0.804,0.383-0.804,1.259v27.301c0,0.867,0.364,1.161,0.804,1.251l2.272,0.585c0.707,0.193,1.142,0.388,1.142,0.818
	c0,0.677-0.703,0.919-1.527,0.919h-10.607c-0.804,0-1.515-0.242-1.515-0.919c0-0.431,0.427-0.625,1.14-0.818l2.28-0.585
	c0.428-0.09,0.799-0.381,0.799-1.251V1.792z"/>
<path fill="#FFC000" d="M644.585,1.792c0-0.876-0.384-1.163-0.813-1.259l-2.285-0.582c-0.7-0.189-1.128-0.385-1.128-0.822
	c0-0.681,0.698-0.922,1.509-0.922h23.35l0.54,4.746c0.053,0.389,0.053,0.77,0.053,1.156c0,0.588-0.482,1.217-1.187,1.217
	c-0.442,0-0.87-0.243-1.196-0.92l-1.359-2.663c-0.21-0.384-0.541-0.626-1.136-0.626h-11.148v12.483h9.361
	c0.818,0,1.353-0.191,1.573-0.919l0.59-1.841c0.168-0.534,0.5-0.822,1.092-0.822c0.86,0,1.192,0.193,1.192,1.017v8.031
	c0,0.824-0.332,1.021-1.192,1.021c-0.592,0-0.923-0.297-1.092-0.82l-0.59-1.842c-0.219-0.729-0.755-0.917-1.573-0.917h-9.361V28.7
	c0,0.674,0.421,1.065,1.182,1.065h9.859c0.596,0,1.084-0.392,1.406-0.771l2.762-3.685c0.335-0.436,0.765-0.771,1.416-0.771
	c0.484,0,1.021,0.535,1.021,0.971c0,0.431-0.163,0.964-0.318,1.595l-1.53,5.559h-23.714c-0.811,0-1.509-0.241-1.509-0.917
	c0-0.431,0.428-0.626,1.128-0.82l2.285-0.584c0.429-0.089,0.813-0.383,0.813-1.251V1.792z"/>
<path fill="#FFC000" d="M674.17,1.548c0-0.532-0.381-0.919-0.818-1.015l-2.381-0.582c-0.818-0.189-1.033-0.682-1.033-1.107
	c0-0.396,0.436-0.637,1.033-0.637h7.092l20.805,26.667h0.098V1.455c0-0.539-0.206-0.777-0.649-0.922l-2.057-0.582
	c-0.749-0.189-1.083-0.438-1.083-1.022c0-0.382,0.263-0.722,0.918-0.722h9.976c0.584,0,1.024,0.242,1.024,0.637
	c0,0.425-0.22,0.918-1.024,1.107l-2.396,0.582c-0.422,0.096-0.813,0.485-0.813,1.015v31.114h-3.308L678.17,5.477h-0.107v23.955
	c0,0.528,0.218,0.764,0.65,0.91l2.061,0.585c0.756,0.191,1.076,0.432,1.076,1.021c0,0.382-0.264,0.714-0.91,0.714h-9.968
	c-0.598,0-1.032-0.239-1.032-0.621c0-0.436,0.215-0.92,1.032-1.114l2.38-0.585c0.44-0.092,0.82-0.483,0.82-1.012V1.548H674.17z"/>
<path fill="#FFC000" d="M738.632,29.666c-3.961,2.719-8.185,3.581-12.46,3.581c-11.368,0-18.081-7.937-18.081-17.809
	c0-9.535,7.147-17.804,19.06-17.804c4.764,0,8.126,0.965,11.701,3.234v5.957c0,1.065-0.65,1.696-1.404,1.696
	c-1.033,0-1.59-0.25-2.125-1.603l-1.678-4.255c-0.54-1.354-3.617-2.13-6.493-2.13c-7.312,0-13.227,5.129-13.227,14.905
	c0,9.636,4.989,14.904,12.245,14.904c3.628,0,6.445-1.063,7.152-2.606l2.273-4.801c0.264-0.532,0.762-0.96,1.522-0.96
	c0.914,0,1.514,0.527,1.514,1.353V29.666z"/>
<path fill="#FFC000" d="M746.937,1.792c0-0.876-0.378-1.163-0.818-1.259l-2.271-0.582c-0.703-0.189-1.14-0.385-1.14-0.822
	c0-0.681,0.705-0.922,1.509-0.922h23.356l0.536,4.746c0.043,0.389,0.043,0.77,0.043,1.156c0,0.588-0.48,1.217-1.184,1.217
	c-0.43,0-0.862-0.243-1.191-0.92l-1.352-2.663c-0.227-0.384-0.54-0.626-1.141-0.626h-11.153v12.483h9.367
	c0.818,0,1.352-0.191,1.58-0.919l0.578-1.841c0.17-0.534,0.506-0.822,1.088-0.822c0.87,0,1.188,0.193,1.188,1.017v8.031
	c0,0.824-0.318,1.021-1.188,1.021c-0.582,0-0.915-0.297-1.088-0.82l-0.578-1.842c-0.228-0.729-0.762-0.917-1.58-0.917h-9.367V28.7
	c0,0.674,0.432,1.065,1.19,1.065h9.86c0.596,0,1.087-0.392,1.406-0.771l2.759-3.685c0.324-0.436,0.762-0.771,1.407-0.771
	c0.486,0,1.022,0.535,1.022,0.971c0,0.431-0.148,0.964-0.316,1.595l-1.527,5.559h-23.72c-0.803,0-1.509-0.241-1.509-0.917
	c0-0.431,0.438-0.626,1.141-0.82l2.272-0.584c0.44-0.089,0.818-0.383,0.818-1.251V1.792L746.937,1.792z"/>
<path fill="#FFC000" d="M772.505,25.458c-0.061-0.343-0.061-0.781-0.061-1.065c0-0.871,0.335-1.312,1.151-1.312
	c0.805,0,1.071,0.583,1.461,1.312L777,28.075c0.76,1.497,2.063,2.268,5.529,2.268c3.732,0,7.319-2.467,7.319-6.387
	c0-2.034-1.852-4.066-3.587-4.986l-7.577-4.063c-3.628-1.933-5.692-4.401-5.692-8.179c0-6.381,6.177-9.092,11.382-9.092
	c2.86,0,6.227,0.527,8.771,1.837l0.486,4.596c0.063,0.34,0.063,0.779,0.063,1.065c0,0.873-0.604,1.306-1.309,1.306
	c-0.758,0-1.186-0.486-1.564-1.306l-1.139-2.568c-0.652-1.402-2.6-2.031-5.099-2.031c-3.349,0-6.717,1.749-6.717,5.085
	c0,1.982,1.528,4.014,3.959,5.273l7.476,3.821c3.41,1.742,5.738,4.553,5.738,8.276c0,5.277-5.583,10.26-12.452,10.26
	c-3.034,0-6.603-0.485-9.218-1.935L772.505,25.458z"/>
</svg>
