<?xml version="1.0" encoding="utf-8"?>
<!-- Generator: Adobe Illustrator 16.0.3, SVG Export Plug-In . SVG Version: 6.00 Build 0)  -->
<!DOCTYPE svg PUBLIC "-//W3C//DTD SVG 1.1//EN" "http://www.w3.org/Graphics/SVG/1.1/DTD/svg11.dtd">
<svg version="1.1" id="Layer_1" xmlns="http://www.w3.org/2000/svg" xmlns:xlink="http://www.w3.org/1999/xlink" x="0px" y="0px"
	 width="603.291px" height="40px" viewBox="0 0 603.291 40" enable-background="new 0 0 603.291 40" xml:space="preserve">
<path fill="#FDC010" d="M567.215,39.033h8.386V11.936h0.108l16.613,27.097h10.969V0.967h-8.39V27.42h-0.106L578.612,0.967h-11.397
	V39.033z M529.149,19.999c0-7.096,4.678-12.257,11.829-12.257c7.15,0,11.828,5.161,11.828,12.257
	c0,7.098-4.678,12.259-11.828,12.259C533.827,32.258,529.149,27.097,529.149,19.999 M520.438,19.999
	c0,12.205,8.656,20.001,20.54,20.001c11.88,0,20.537-7.796,20.537-20.001C561.516,7.796,552.858,0,540.979,0
	C529.095,0,520.438,7.796,520.438,19.999 M506.461,39.033h8.387V0.967h-8.387V39.033z M483.073,39.033h8.39V8.386h10.858V0.967
	h-30.107v7.419h10.859V39.033z M461.247,23.872h-9.303l4.624-11.83L461.247,23.872z M436.89,39.033h9.249l3.169-8.065h14.789
	l3.279,8.065h9.462L460.276,0.967h-6.936L436.89,39.033z M435.333,5.591C432.106,1.451,426.729,0,422.481,0
	c-11.882,0-20.538,7.796-20.538,19.999C401.943,32.204,410.6,40,422.481,40c5.214,0,10.592-2.095,13.765-6.612l-6.989-5.215
	c-1.722,2.581-4.463,4.085-7.851,4.085c-6.076,0-10.752-5.161-10.752-12.259c0-7.096,4.676-12.257,11.021-12.257
	c3.119,0,5.539,1.127,7.204,3.116L435.333,5.591z M396.246,0.967h-8.389v23.065c0,4.676-3.227,8.226-7.633,8.226
	c-4.463,0-7.69-3.549-7.69-8.226V0.967h-8.386v23.388c0,8.98,5.484,15.645,16.076,15.645c10.537,0,16.021-6.665,16.021-15.645V0.967
	z M331.728,8.709h4.946c7.098,0,13.066,3.494,13.066,10.969c0,8.657-5.862,11.613-13.656,11.613h-4.356V8.709z M323.342,39.033
	h13.71c11.344,0,21.399-6.612,21.399-18.925c0-13.925-10.271-19.14-22.531-19.14h-12.578V39.033z M289.792,39.033h26.831v-7.742
	H298.18v-7.742h16.505v-7.744H298.18V8.709h17.472V0.967h-25.859V39.033z"/>
<path fill="#FDC010" d="M252.751,35.857h2.954V20.806h14.918V18.12h-14.918V6.83h16.039V4.14h-18.993V35.857z M216.282,20.001
	c0-7.884,5.151-13.977,13.44-13.977c8.288,0,13.439,6.093,13.439,13.977c0,7.883-5.151,13.976-13.439,13.976
	C221.434,33.977,216.282,27.884,216.282,20.001 M213.325,20.001c0,9.676,6.72,16.665,16.397,16.665
	c9.676,0,16.396-6.989,16.396-16.665c0-9.677-6.72-16.666-16.396-16.666C220.045,3.335,213.325,10.324,213.325,20.001
	 M177.178,35.857h20.112v-2.686h-17.155V20.806h15.411V18.12h-15.411V6.83h16.441V4.14h-19.398V35.857z M168.486,18.746h-10.573
	v2.686h7.615v10.664c-2.417,1.435-5.466,1.881-8.869,1.881c-8.287,0-13.439-6.093-13.439-13.976c0-7.884,5.153-13.977,13.439-13.977
	c3.45,0,7.347,1.613,9.272,3.941l2.152-2.24c-2.911-2.955-6.72-4.39-11.424-4.39c-9.674,0-16.395,6.989-16.395,16.666
	c0,9.676,6.721,16.665,16.395,16.665c4.121,0,8.152-0.762,11.827-2.867V18.746z M115.76,35.857h20.113v-2.686h-17.158V20.806h15.411
	V18.12h-15.411V6.83h16.44V4.14H115.76V35.857z M93.362,35.857h17.739v-2.686H96.316V4.14h-2.954V35.857z M70.962,35.857h17.739
	v-2.686H73.917V4.14h-2.955V35.857z M34.495,20.001c0-7.884,5.152-13.977,13.438-13.977c8.289,0,13.439,6.093,13.439,13.977
	c0,7.883-5.15,13.976-13.439,13.976C39.647,33.977,34.495,27.884,34.495,20.001 M31.539,20.001c0,9.676,6.719,16.665,16.395,16.665
	c9.677,0,16.397-6.989,16.397-16.665c0-9.677-6.72-16.666-16.397-16.666C38.258,3.335,31.539,10.324,31.539,20.001 M25.759,29.051
	c-2.24,3.403-6.182,4.926-9.362,4.926c-8.288,0-13.44-6.093-13.44-13.976c0-7.884,5.152-13.977,13.44-13.977
	c3.18,0,6.541,1.342,8.512,4.3l2.419-2.016c-2.778-3.538-6.63-4.973-10.931-4.973C6.72,3.335,0,10.324,0,20.001
	c0,9.676,6.72,16.665,16.397,16.665c4.659,0,8.78-1.657,11.781-5.781L25.759,29.051z"/>
<g>
</g>
<g>
</g>
<g>
</g>
<g>
</g>
<g>
</g>
<g>
</g>
</svg>
