<?xml version="1.0" encoding="utf-8"?>
<!-- Generator: Adobe Illustrator 15.1.0, SVG Export Plug-In . SVG Version: 6.00 Build 0)  -->
<!DOCTYPE svg PUBLIC "-//W3C//DTD SVG 1.1//EN" "http://www.w3.org/Graphics/SVG/1.1/DTD/svg11.dtd">
<svg version="1.1" id="Layer_1" xmlns="http://www.w3.org/2000/svg" xmlns:xlink="http://www.w3.org/1999/xlink" x="0px" y="0px"
	 width="762.705px" height="40px" viewBox="17.433 -84.64 762.705 40" enable-background="new 17.433 -84.64 762.705 40"
	 xml:space="preserve">
<g>
	<path fill="#FFC000" d="M51.008-83.162c0.255,0.591,0.778,2.276,1.566,5.054c0.354,1.261,0.542,2.601,0.562,4.02h-2.689
		c-1.892-2.679-3.842-4.606-5.852-5.778c-2.01-1.172-4.256-1.758-6.739-1.758c-3.054,0-5.517,1.192-7.389,3.576
		c-2.542,3.232-3.813,7.733-3.813,13.507c0,3.35,0.217,5.733,0.65,7.152c0.709,2.305,1.605,4.187,2.689,5.645
		c0.827,1.104,1.911,1.98,3.251,2.63c1.733,0.887,3.586,1.33,5.556,1.33c2.167,0,4.261-0.672,6.281-2.017
		c2.02-1.345,3.956-3.353,5.808-6.023c0.729-0.137,1.685-0.216,2.867-0.235c-0.079,0.746-0.207,1.521-0.384,2.326
		c-0.059,0.315-0.286,1.562-0.68,3.74l-0.266,0.884l-0.414,1.384c-1.202,0.926-2.892,1.621-5.069,2.083
		c-2.177,0.462-4.852,0.694-8.024,0.694c-2.423,0-4.714-0.227-6.872-0.68c-2.157-0.453-4.004-1.172-5.542-2.157
		c-2.246-1.419-4.01-2.956-5.29-4.611c-1.281-1.655-2.231-3.458-2.853-5.409c-0.621-1.951-0.931-4.138-0.931-6.561
		c0-5.871,1.936-10.718,5.808-14.541c3.872-3.823,8.812-5.734,14.822-5.734c2.443,0,4.744,0.123,6.901,0.37
		C47.121-84.023,49.135-83.654,51.008-83.162z"/>
	<path fill="#FFC000" d="M57.983-62.493c0-2.117,0.409-4.243,1.229-6.378c0.597-1.537,1.433-2.945,2.508-4.226
		s2.423-2.421,4.044-3.42c1.621-0.999,3.276-1.716,4.965-2.151c1.689-0.436,3.575-0.653,5.657-0.653c3.549,0,6.629,0.666,9.24,1.998
		s4.667,3.134,6.169,5.405c1.945,2.955,2.918,6.054,2.918,9.298c0,4.833-1.642,8.974-4.928,12.423
		c-3.285,3.45-7.854,5.174-13.707,5.174c-1.45,0-2.808-0.094-4.07-0.282c-0.956-0.136-1.792-0.324-2.508-0.563
		c-1.297-0.427-2.022-0.674-2.176-0.743c-1.86-1.059-3.354-2.143-4.479-3.253c-1.126-1.109-2.083-2.365-2.867-3.765
		c-0.427-0.785-0.914-2.203-1.459-4.252C58.162-59.197,57.983-60.734,57.983-62.493z M75.415-76.786
		c-1.484,0-2.797,0.346-3.94,1.037c-1.143,0.692-2.004,1.456-2.583,2.292c-0.973,1.418-1.663,2.967-2.072,4.649
		c-0.41,1.683-0.614,3.727-0.614,6.135c0,1.469,0.06,2.519,0.179,3.151c0.034,0.205,0.085,0.555,0.154,1.05
		c0.153,1.264,0.333,2.187,0.537,2.767c0.733,2.169,1.253,3.509,1.561,4.021c0.511,0.871,1.271,1.733,2.277,2.587
		c0.511,0.444,1.254,0.85,2.226,1.217c0.972,0.368,1.944,0.551,2.917,0.551c1.842,0,3.551-0.431,5.129-1.293
		s2.844-2.327,3.799-4.393c0.955-2.066,1.433-4.755,1.433-8.068c0-1.366-0.094-3.219-0.281-5.559l-0.128-0.487
		c-0.051-0.136-0.136-0.486-0.255-1.05c-0.632-2.8-1.838-4.935-3.62-6.404C80.347-76.051,78.109-76.786,75.415-76.786z"/>
	<path fill="#FFC000" d="M98.377-47.611c0.529-0.154,1.276-0.301,2.241-0.441c0.964-0.141,1.532-0.211,1.703-0.211
		c0.666-0.016,1.11-0.124,1.332-0.322c0.103-0.41,0.154-0.751,0.154-1.025l-0.051-3.282l0.154-3.333v-2.128l0.025-2.512
		l-0.051-2.667l0.103-5.718l0.026-2.589v-0.359c-0.12-1.794-0.235-2.782-0.346-2.961c-0.111-0.18-0.602-0.406-1.473-0.679
		c-0.086-0.034-0.41-0.162-0.973-0.385c-0.427-0.17-0.812-0.291-1.153-0.359c-0.598-0.153-1.016-0.333-1.255-0.538
		c-0.034-0.444-0.051-0.785-0.051-1.025c0-0.136,0.008-0.341,0.025-0.615c0.154-0.085,0.316-0.128,0.487-0.128
		c0.41,0,1.896,0.068,4.457,0.205l3.663-0.026l2.715,0.051c1.178,0,2.689-0.071,4.534-0.212c0.546-0.046,0.862-0.069,0.948-0.069
		c0.256,0,0.436,0.067,0.538,0.203c0.137,0.186,0.205,0.523,0.205,1.012c0,0.388-0.094,0.683-0.282,0.886
		c-0.103,0.12-0.478,0.222-1.127,0.308l-3.176,0.743c-0.086,0.035-0.23,0.103-0.436,0.205c-0.068,0.12-0.12,0.223-0.153,0.308
		l-0.026,0.718l-0.077,1.615v0.462v0.282c0,0.085-0.02,0.556-0.058,1.41c-0.013,0.222-0.02,0.444-0.02,0.667
		c0,0.274,0.017,0.735,0.051,1.385c0.051,1.026,0.077,1.923,0.077,2.692c0,0.889-0.026,1.906-0.077,3.051
		c-0.017,0.427-0.025,0.983-0.025,1.666l-0.103,12.154c0,0.513,0.085,0.846,0.256,1l2.433,0.099l1.511-0.026l1.614,0.026
		c2.749,0,4.909-0.315,6.48-0.944c1.178-0.477,1.947-0.953,2.305-1.429c0.581-0.51,1.054-1.063,1.422-1.659
		c0.367-0.595,0.781-1.582,1.242-2.96h0.82c0.41,0,0.871,0.035,1.383,0.103v0.715c0,1.226-0.153,3.372-0.461,6.437
		c-0.12,1.227-0.239,1.977-0.358,2.248c-0.393,0.069-0.641,0.103-0.743,0.103h-0.948l-1.332,0.026c-0.154,0-1.17-0.068-3.048-0.205
		c-0.342-0.017-1.972-0.077-4.893-0.179c-2.92-0.103-5.78-0.154-8.581-0.154l-5.226,0.154c-2.015,0.051-3.902,0.146-5.661,0.282
		h-0.384c-0.103,0-0.265-0.008-0.487-0.026c-0.034-0.188-0.051-0.35-0.051-0.486C98.197-46.766,98.257-47.286,98.377-47.611z"/>
	<path fill="#FFC000" d="M131.701-47.611c0.529-0.154,1.276-0.301,2.241-0.441c0.965-0.141,1.533-0.211,1.704-0.211
		c0.666-0.016,1.11-0.124,1.332-0.322c0.103-0.41,0.153-0.751,0.153-1.025l-0.051-3.282l0.153-3.333v-2.128l0.026-2.512
		l-0.051-2.667l0.103-5.718l0.025-2.589v-0.359c-0.12-1.794-0.235-2.782-0.346-2.961c-0.111-0.18-0.602-0.406-1.473-0.679
		c-0.086-0.034-0.41-0.162-0.974-0.385c-0.427-0.17-0.811-0.291-1.153-0.359c-0.598-0.153-1.016-0.333-1.255-0.538
		c-0.035-0.444-0.051-0.785-0.051-1.025c0-0.136,0.008-0.341,0.026-0.615c0.153-0.085,0.315-0.128,0.486-0.128
		c0.41,0,1.896,0.068,4.457,0.205l3.663-0.026l2.715,0.051c1.178,0,2.689-0.071,4.534-0.212c0.546-0.046,0.862-0.069,0.948-0.069
		c0.256,0,0.436,0.067,0.538,0.203c0.136,0.186,0.205,0.523,0.205,1.012c0,0.388-0.094,0.683-0.282,0.886
		c-0.103,0.12-0.479,0.222-1.127,0.308l-3.176,0.743c-0.086,0.035-0.231,0.103-0.436,0.205c-0.068,0.12-0.12,0.223-0.154,0.308
		l-0.025,0.718l-0.077,1.615v0.462v0.282c0,0.085-0.019,0.556-0.058,1.41c-0.013,0.222-0.019,0.444-0.019,0.667
		c0,0.274,0.017,0.735,0.051,1.385c0.051,1.026,0.077,1.923,0.077,2.692c0,0.889-0.025,1.906-0.077,3.051
		c-0.018,0.427-0.026,0.983-0.026,1.666l-0.103,12.154c0,0.513,0.085,0.846,0.256,1l2.434,0.099l1.511-0.026l1.614,0.026
		c2.749,0,4.909-0.315,6.48-0.944c1.178-0.477,1.946-0.953,2.305-1.429c0.58-0.51,1.054-1.063,1.421-1.659
		c0.367-0.595,0.781-1.582,1.242-2.96h0.82c0.41,0,0.871,0.035,1.383,0.103v0.715c0,1.226-0.154,3.372-0.461,6.437
		c-0.12,1.227-0.24,1.977-0.359,2.248c-0.393,0.069-0.64,0.103-0.743,0.103h-0.948l-1.332,0.026c-0.154,0-1.17-0.068-3.048-0.205
		c-0.342-0.017-1.973-0.077-4.893-0.179s-5.781-0.154-8.581-0.154l-5.225,0.154c-2.015,0.051-3.902,0.146-5.661,0.282h-0.384
		c-0.103,0-0.265-0.008-0.487-0.026c-0.035-0.188-0.051-0.35-0.051-0.486C131.522-46.766,131.582-47.286,131.701-47.611z"/>
	<path fill="#FFC000" d="M164.897-78.656c0.974,0.051,1.819,0.128,2.536,0.23c1.349,0.188,2.911,0.282,4.688,0.282
		c0.615,0,2.194-0.051,4.739-0.153c3.808-0.154,7.249-0.231,10.322-0.231l4.636-0.051c1.042,0,2.578,0.128,4.611,0.384
		c0.307,0.342,0.461,0.803,0.461,1.383v5.277l0.051,1.05c0,0.103-0.009,0.256-0.025,0.461l-1.05,0.051
		c-0.137,0-0.427-0.017-0.871-0.051c-0.154-0.341-0.358-0.846-0.615-1.511l-1.024-1.819c-0.393-0.769-0.939-1.554-1.64-2.356
		c-0.427-0.119-0.973-0.188-1.639-0.205c-0.171-0.017-0.691-0.06-1.563-0.128c-1.588-0.137-3.296-0.205-5.123-0.205
		c-2.083,0-3.944,0.035-5.584,0.103c-0.051,0.427-0.077,2.109-0.077,5.046l0.026,4.303v3.228c0.427,0.051,0.795,0.077,1.104,0.077
		c3.063,0,5.245-0.06,6.546-0.18c1.301-0.119,2.104-0.286,2.413-0.5c0.308-0.213,0.582-0.584,0.821-1.114
		c0.154-0.375,0.454-1.63,0.898-3.765l0.333-0.025l1.486,0.025c0.068,1.52,0.103,2.673,0.103,3.458c0,1.793-0.013,2.946-0.039,3.458
		c-0.025,0.512-0.038,0.914-0.038,1.204c0,0.461,0.025,1.2,0.077,2.216c0.051,1.016,0.077,1.772,0.077,2.267v0.563h-1.818
		c-0.069-0.273-0.197-0.836-0.385-1.691c-0.342-1.588-0.65-2.578-0.924-2.971c-0.205-0.307-0.548-0.538-1.026-0.691
		c-0.342-0.119-1.609-0.179-3.799-0.179c-2.584,0-4.526,0.068-5.827,0.205c0,0.444,0,0.734,0,0.871c0,2.032,0.034,3.723,0.102,5.072
		l-0.051,5.533c0,0.649,0.231,1.093,0.692,1.332c0.7,0.358,2.843,0.538,6.429,0.538c2.373,0,4.389-0.179,6.045-0.538
		c1.144-0.256,2.152-0.828,3.022-1.716c1.161-1.144,2.126-2.749,2.895-4.815c0.529-0.051,0.964-0.077,1.306-0.077
		c0.188,0,0.47,0.009,0.846,0.026c-0.05,0.427-0.093,0.786-0.126,1.076l-0.151,0.769l-0.934,4.841l-0.454,2.92
		c-1.111,0.051-1.991,0.077-2.64,0.077c-0.958,0-3.512-0.085-7.665-0.256c-2.922-0.119-6.443-0.179-10.562-0.179
		c-2.051,0-4.572,0.086-7.563,0.256h-1.076l-3.102,0.103v-1.768c0.324-0.085,0.974-0.179,1.947-0.282
		c1.776-0.205,3.005-0.478,3.688-0.82c0.188-0.495,0.282-1.118,0.282-1.87c0-0.29-0.009-0.785-0.025-1.486l0.025-0.794l-0.077-9.657
		l0.025-2.895l-0.128-4.098l0.025-2.895l-0.23-3.176c0-0.085-0.017-0.256-0.051-0.512c-0.171-0.188-0.427-0.307-0.768-0.358
		c-0.188-0.034-0.444-0.085-0.769-0.154c-0.974-0.205-1.913-0.324-2.818-0.358c-0.325-0.017-0.7-0.051-1.127-0.103L164.897-78.656z"
		/>
	<path fill="#FFC000" d="M234.159-76.504c0.119,0.495,0.256,1.473,0.41,2.933c0.153,1.46,0.23,2.523,0.23,3.189
		c0,0.256-0.06,0.572-0.18,0.948c-0.734-0.017-1.357-0.085-1.87-0.205c-1.298-1.998-2.212-3.253-2.741-3.765
		c-0.991-0.956-2.263-1.768-3.816-2.433c-1.145-0.495-2.459-0.743-3.945-0.743c-2.852,0-5.362,1.28-7.531,3.839
		c-2.169,2.559-3.253,6.364-3.253,11.414c0,2.372,0.423,4.675,1.268,6.91s2.113,3.988,3.804,5.259
		c1.69,1.271,3.68,1.907,5.968,1.907c1.109,0,2.288-0.144,3.535-0.434c0.631-0.136,1.144-0.408,1.537-0.816
		c0.273-0.272,0.452-0.68,0.538-1.224c0.136-0.986,0.205-2.389,0.205-4.208c0-1.768-0.026-2.984-0.077-3.647
		c-0.12-0.255-0.235-0.42-0.346-0.497c-0.111-0.076-0.457-0.2-1.037-0.37l-2.28-0.612c-0.496-0.119-0.803-0.265-0.922-0.436
		c-0.034-0.222-0.051-0.384-0.051-0.487c0-0.239,0.06-0.572,0.18-0.999c0.307-0.102,0.521-0.153,0.64-0.153
		c1.861,0,3.475,0.062,4.841,0.185c0.478,0.031,0.999,0.046,1.563,0.046l4.047-0.051l1.716-0.051c0.205-0.017,0.777,0,1.716,0.051
		c0.017,0.444,0.025,0.82,0.025,1.127c0,0.188-0.06,0.401-0.179,0.641c-0.291,0.174-0.786,0.392-1.486,0.652
		c-0.7,0.261-1.093,0.435-1.178,0.522c-0.137,0.136-0.23,0.35-0.282,0.639c-0.051,0.29-0.077,1.304-0.077,3.043
		c0,2.012-0.009,3.213-0.026,3.606c-0.068,1.261-0.103,1.977-0.103,2.147c0,0.631-0.085,1.023-0.256,1.177
		c-0.479,0.477-1.959,1.019-4.444,1.624c-2.484,0.604-5.375,0.908-8.67,0.908c-2.305,0-4.308-0.184-6.006-0.551
		c-1.7-0.367-3.147-0.909-4.342-1.626c-1.605-0.956-2.98-2.117-4.124-3.483c-1.145-1.366-1.998-2.843-2.562-4.432
		c-0.786-2.254-1.178-4.499-1.178-6.736c0-2.51,0.58-5.055,1.742-7.633c0.854-1.861,2.053-3.539,3.599-5.033
		c1.545-1.494,3.479-2.685,5.801-3.573c2.322-0.888,4.85-1.332,7.582-1.332c0.341,0,0.896,0.043,1.665,0.128
		c2.083,0,4.03,0.261,5.84,0.781C231.461-77.84,232.964-77.221,234.159-76.504z"/>
	<path fill="#FFC000" d="M240.307-78.656c0.974,0.051,1.819,0.128,2.536,0.23c1.349,0.188,2.911,0.282,4.688,0.282
		c0.615,0,2.194-0.051,4.738-0.153c3.808-0.154,7.25-0.231,10.323-0.231l4.637-0.051c1.041,0,2.578,0.128,4.61,0.384
		c0.308,0.342,0.461,0.803,0.461,1.383v5.277l0.051,1.05c0,0.103-0.009,0.256-0.025,0.461l-1.05,0.051
		c-0.137,0-0.427-0.017-0.871-0.051c-0.153-0.341-0.358-0.846-0.614-1.511l-1.025-1.819c-0.393-0.769-0.938-1.554-1.639-2.356
		c-0.427-0.119-0.974-0.188-1.64-0.205c-0.171-0.017-0.691-0.06-1.563-0.128c-1.588-0.137-3.296-0.205-5.123-0.205
		c-2.083,0-3.944,0.035-5.584,0.103c-0.051,0.427-0.077,2.109-0.077,5.046l0.025,4.303v3.228c0.428,0.051,0.796,0.077,1.104,0.077
		c3.063,0,5.245-0.06,6.546-0.18c1.301-0.119,2.104-0.286,2.413-0.5c0.309-0.213,0.582-0.584,0.821-1.114
		c0.154-0.375,0.453-1.63,0.898-3.765l0.333-0.025l1.485,0.025c0.068,1.52,0.103,2.673,0.103,3.458c0,1.793-0.013,2.946-0.038,3.458
		s-0.038,0.914-0.038,1.204c0,0.461,0.025,1.2,0.076,2.216c0.052,1.016,0.077,1.772,0.077,2.267v0.563h-1.818
		c-0.069-0.273-0.197-0.836-0.386-1.691c-0.343-1.588-0.649-2.578-0.924-2.971c-0.206-0.307-0.548-0.538-1.026-0.691
		c-0.343-0.119-1.609-0.179-3.799-0.179c-2.585,0-4.527,0.068-5.828,0.205c0,0.444,0,0.734,0,0.871c0,2.032,0.035,3.723,0.103,5.072
		l-0.051,5.533c0,0.649,0.23,1.093,0.692,1.332c0.701,0.358,2.843,0.538,6.429,0.538c2.373,0,4.389-0.179,6.045-0.538
		c1.144-0.256,2.151-0.828,3.022-1.716c1.161-1.144,2.126-2.749,2.895-4.815c0.529-0.051,0.965-0.077,1.307-0.077
		c0.188,0,0.47,0.009,0.845,0.026c-0.05,0.427-0.093,0.786-0.126,1.076l-0.151,0.769l-0.934,4.841l-0.454,2.92
		c-1.111,0.051-1.99,0.077-2.64,0.077c-0.958,0-3.513-0.085-7.665-0.256c-2.923-0.119-6.443-0.179-10.562-0.179
		c-2.051,0-4.572,0.086-7.563,0.256h-1.077l-3.102,0.103v-1.768c0.324-0.085,0.973-0.179,1.947-0.282
		c1.776-0.205,3.005-0.478,3.688-0.82c0.188-0.495,0.282-1.118,0.282-1.87c0-0.29-0.009-0.785-0.026-1.486l0.026-0.794l-0.077-9.657
		l0.025-2.895l-0.128-4.098l0.025-2.895l-0.23-3.176c0-0.085-0.017-0.256-0.051-0.512c-0.171-0.188-0.427-0.307-0.769-0.358
		c-0.188-0.034-0.444-0.085-0.768-0.154c-0.974-0.205-1.913-0.324-2.818-0.358c-0.325-0.017-0.7-0.051-1.127-0.103L240.307-78.656z"
		/>
	<path fill="#FFC000" d="M291.843-62.493c0-2.117,0.41-4.243,1.229-6.378c0.597-1.537,1.434-2.945,2.508-4.226
		c1.075-1.281,2.424-2.421,4.045-3.42c1.621-0.999,3.276-1.716,4.966-2.151c1.688-0.436,3.575-0.653,5.657-0.653
		c3.549,0,6.629,0.666,9.239,1.998c2.611,1.332,4.668,3.134,6.17,5.405c1.944,2.955,2.918,6.054,2.918,9.298
		c0,4.833-1.643,8.974-4.928,12.423c-3.285,3.45-7.854,5.174-13.707,5.174c-1.45,0-2.807-0.094-4.07-0.282
		c-0.955-0.136-1.792-0.324-2.508-0.563c-1.298-0.427-2.022-0.674-2.176-0.743c-1.86-1.059-3.354-2.143-4.48-3.253
		c-1.126-1.109-2.081-2.365-2.865-3.765c-0.427-0.785-0.913-2.203-1.459-4.252C292.022-59.197,291.843-60.734,291.843-62.493z
		 M309.275-76.786c-1.483,0-2.797,0.346-3.939,1.037c-1.144,0.692-2.004,1.456-2.585,2.292c-0.971,1.418-1.662,2.967-2.071,4.649
		c-0.409,1.683-0.614,3.727-0.614,6.135c0,1.469,0.061,2.519,0.18,3.151c0.033,0.205,0.085,0.555,0.153,1.05
		c0.153,1.264,0.332,2.187,0.537,2.767c0.733,2.169,1.253,3.509,1.561,4.021c0.512,0.871,1.271,1.733,2.277,2.587
		c0.511,0.444,1.253,0.85,2.226,1.217c0.971,0.368,1.943,0.551,2.916,0.551c1.842,0,3.551-0.431,5.13-1.293
		c1.577-0.862,2.843-2.327,3.799-4.393c0.954-2.066,1.432-4.755,1.432-8.068c0-1.366-0.093-3.219-0.281-5.559l-0.128-0.487
		c-0.052-0.136-0.137-0.486-0.256-1.05c-0.631-2.8-1.838-4.935-3.62-6.404C314.208-76.051,311.969-76.786,309.275-76.786z"/>
	<path fill="#FFC000" d="M332.596-45.331l0.051-1.869c0.375-0.086,0.999-0.215,1.87-0.385s1.741-0.367,2.612-0.588l0.487-0.308
		c0.17-0.682,0.256-1.381,0.256-2.098v-0.154l-0.103-5.912l0.025-2.482l-0.103-3.66l0.052-4.35l-0.308-8.573
		c-0.256-0.239-1.085-0.478-2.484-0.717c-0.342-0.068-0.837-0.205-1.486-0.41l-0.614-0.154v-1.793l3.378,0.128
		c2.047,0.205,5.059,0.308,9.034,0.308c1.996,0,4.078-0.051,6.244-0.154l0.486-0.026l1.253,0.026l0.513-0.026h1.075l4.581-0.153
		c0.205,0,0.473-0.017,0.806-0.051c0.332-0.034,0.644-0.06,0.934-0.077c0.103,0.513,0.171,1.025,0.205,1.537l0.384,4.815
		c0,0.512-0.051,0.905-0.153,1.178c-0.614,0.086-1.066,0.128-1.357,0.128c-0.342,0-0.615-0.077-0.819-0.23
		c-0.103-0.103-0.299-0.486-0.589-1.152c-0.716-1.725-1.325-2.745-1.828-3.061c-0.503-0.316-1.904-0.474-4.206-0.474l-3.528,0.103
		c-1.5,0.018-2.685,0.103-3.555,0.256c-0.188,0.034-0.46,0.12-0.817,0.256c-0.222,0.394-0.333,0.898-0.333,1.515l0.076,3.055
		l-0.076,3.491c0,1.78,0.06,2.875,0.179,3.286c0.154,0.103,0.281,0.163,0.384,0.18l1.814,0.025h3.066
		c0.683,0,1.729-0.085,3.145-0.256c0.97-0.12,1.567-0.256,1.789-0.41c0.408-0.273,0.702-0.619,0.881-1.037s0.311-1.438,0.396-3.061
		c0.086,0,0.316-0.008,0.691-0.026c0.239-0.017,0.401-0.025,0.487-0.025c0.188,0,0.563,0.025,1.127,0.077l-0.154,4.099
		c-0.013,0.871-0.038,1.623-0.077,2.254l0.052,0.563c0.017,0.171,0.025,1.435,0.025,3.791c0,0.154-0.009,0.41-0.025,0.769
		c-0.329,0.068-0.588,0.103-0.778,0.103c-0.138,0-0.475-0.051-1.011-0.154c-0.153-0.324-0.324-0.794-0.512-1.409
		c-0.392-1.349-0.818-2.135-1.278-2.357c-0.817-0.41-3.392-0.615-7.721-0.615c-0.631,0-1.364,0.061-2.199,0.18
		c-0.119,0.717-0.179,1.545-0.179,2.484l0.128,7.685c0.017,1.417,0.17,2.289,0.461,2.612c0.188,0.205,0.828,0.41,1.921,0.615
		l0.513,0.051c0.769,0.051,1.443,0.163,2.023,0.333l0.691,0.156c0.068,0.449,0.103,0.795,0.103,1.037
		c0,0.259-0.025,0.587-0.077,0.985l-0.486-0.026l-0.794,0.026l-3.638-0.202c-0.409-0.019-2.322-0.029-5.737-0.029
		c-0.939,0-1.836,0.051-2.689,0.154c-1.349,0.154-2.084,0.23-2.203,0.23C333.765-45.306,333.005-45.314,332.596-45.331z"/>
	<path fill="#FFC000" d="M377.634-83.783c1.123,0.059,2.099,0.148,2.926,0.266c1.557,0.217,3.359,0.325,5.408,0.325
		c0.71,0,2.532-0.059,5.468-0.177c4.395-0.177,8.364-0.266,11.911-0.266l5.35-0.059c1.201,0,2.975,0.148,5.319,0.443
		c0.355,0.395,0.532,0.926,0.532,1.596v6.088l0.06,1.212c0,0.118-0.01,0.295-0.03,0.532l-1.212,0.059
		c-0.157,0-0.492-0.02-1.004-0.059c-0.178-0.394-0.414-0.976-0.71-1.744l-1.182-2.098c-0.453-0.887-1.084-1.792-1.892-2.719
		c-0.493-0.137-1.123-0.217-1.892-0.236c-0.197-0.019-0.798-0.069-1.803-0.148c-1.833-0.158-3.803-0.236-5.911-0.236
		c-2.404,0-4.552,0.04-6.443,0.118c-0.059,0.493-0.089,2.434-0.089,5.822l0.03,4.965v3.724c0.493,0.059,0.918,0.089,1.273,0.089
		c3.535,0,6.052-0.069,7.553-0.207s2.428-0.33,2.783-0.576c0.356-0.247,0.672-0.675,0.949-1.286
		c0.178-0.433,0.523-1.881,1.036-4.345l0.385-0.03l1.714,0.03c0.079,1.754,0.118,3.084,0.118,3.99c0,2.069-0.015,3.399-0.044,3.99
		c-0.03,0.591-0.045,1.054-0.045,1.389c0,0.532,0.029,1.385,0.089,2.557c0.06,1.172,0.089,2.044,0.089,2.616v0.65h-2.099
		c-0.08-0.315-0.228-0.965-0.444-1.951c-0.395-1.833-0.751-2.975-1.066-3.429c-0.237-0.354-0.632-0.621-1.185-0.798
		c-0.396-0.137-1.856-0.207-4.383-0.207c-2.982,0-5.224,0.079-6.724,0.237c0,0.513,0,0.847,0,1.005c0,2.345,0.039,4.296,0.118,5.852
		l-0.06,6.384c0,0.749,0.266,1.261,0.798,1.537c0.808,0.414,3.281,0.621,7.419,0.621c2.738,0,5.063-0.207,6.975-0.621
		c1.32-0.295,2.482-0.956,3.487-1.98c1.34-1.32,2.453-3.172,3.34-5.557c0.611-0.059,1.113-0.088,1.508-0.088
		c0.217,0,0.541,0.01,0.975,0.029c-0.058,0.493-0.106,0.906-0.146,1.241l-0.175,0.887l-1.076,5.586l-0.524,3.37
		c-1.281,0.059-2.297,0.088-3.046,0.088c-1.105,0-4.053-0.099-8.844-0.295c-3.372-0.138-7.436-0.207-12.187-0.207
		c-2.367,0-5.276,0.099-8.726,0.295h-1.243l-3.579,0.119v-2.04c0.375-0.099,1.123-0.207,2.247-0.325
		c2.049-0.236,3.468-0.551,4.256-0.946c0.217-0.571,0.324-1.29,0.324-2.157c0-0.335-0.01-0.906-0.029-1.714l0.029-0.916
		l-0.088-11.143l0.029-3.34l-0.147-4.729l0.029-3.34l-0.266-3.665c0-0.098-0.021-0.295-0.06-0.591
		c-0.197-0.217-0.492-0.355-0.887-0.414c-0.217-0.039-0.513-0.098-0.887-0.177c-1.123-0.236-2.207-0.374-3.251-0.414
		c-0.374-0.02-0.808-0.059-1.301-0.118L377.634-83.783z"/>
	<path fill="#FFC000" d="M419.588-76.632l-0.103-1.793h2.178l0.742-0.025c1.025-0.051,1.733-0.077,2.126-0.077
		c0.205,0,0.804,0.018,1.793,0.051c0.222,0.018,0.41,0.026,0.564,0.026c0.153,0,0.691-0.017,1.613-0.051s1.443-0.051,1.563-0.051
		c0.188,0,0.452,0.009,0.794,0.025c2.63,2.391,4.773,4.449,6.43,6.173c1.655,1.725,7.701,7.761,18.135,18.109v-0.64l-0.103-2.972
		c-0.051-1.742-0.119-3.12-0.205-4.137c-0.086-1.016-0.137-2.229-0.153-3.637s-0.077-2.685-0.18-3.829
		c-0.205-2.237-0.308-3.526-0.308-3.868c-0.017-1.109-0.137-1.784-0.358-2.023c-0.358-0.375-1.178-0.657-2.459-0.845
		c-0.938-0.154-1.639-0.35-2.101-0.589l0.026-1.511l0.666-0.077l5.046-0.154l5.635-0.153c0.376-0.017,0.734-0.026,1.076-0.026
		l0.025,1.665c-0.393,0.205-0.794,0.358-1.204,0.461c-1.093,0.256-1.725,0.436-1.896,0.538c-0.87,0.496-1.341,0.794-1.408,0.896
		c-0.154,0.205-0.23,0.521-0.23,0.948c0,0.103,0.017,0.461,0.051,1.076c0.017,0.308,0.025,1.024,0.025,2.152
		c0.018,2.476,0.086,4.431,0.205,5.866c0.035,0.461,0.061,0.982,0.077,1.563l0.281,8.991c0.018,0.632,0.026,1.076,0.026,1.332v3.151
		l0.076,1.332l-0.076,1.383c0.067,0.701,0.103,1.119,0.103,1.255v1.357l-2.946,0.103l-3.048-3.15l-6.225-6.173l-4.354-4.354
		l-3.201-3.279c-2.084-2.049-3.979-3.85-5.687-5.404l-4.176-3.766l0.23,9.529c0.017,0.581,0.026,1.178,0.026,1.793l-0.026,1.819
		l0.154,3.355c0.051,1.4,0.145,2.92,0.281,4.559c0.035,0.444,0.077,0.756,0.128,0.935c0.052,0.179,0.154,0.44,0.308,0.781
		c0.666,0.239,2.117,0.418,4.354,0.538c0.154,0.034,0.375,0.094,0.666,0.179l0.103,2.075l-0.999,0.025
		c-0.547,0-2.271-0.128-5.174-0.384c-2.716,0.035-4.525,0.086-5.431,0.154c-0.905,0.068-1.399,0.103-1.485,0.103
		c-0.205,0-0.486-0.034-0.846-0.103c-0.034-0.393-0.051-0.734-0.051-1.024c0-0.188,0.009-0.495,0.025-0.922
		c0.478-0.085,0.871-0.128,1.179-0.128c0.103,0,0.435,0.017,0.999,0.051c1.434,0,2.283-0.106,2.548-0.32
		c0.266-0.213,0.414-0.79,0.448-1.729c0.119-2.715,0.18-4.371,0.18-4.969v-1.409l0.051-8.325l-0.076-5.2
		c-0.017-1.98-0.146-3.355-0.385-4.124c-0.103-0.393-0.298-0.734-0.589-1.024c-0.598-0.615-1.264-1.076-1.998-1.383
		C422.602-76.103,421.45-76.341,419.588-76.632z"/>
	<path fill="#FFC000" d="M496.713-76.504c0.12,0.495,0.257,1.473,0.41,2.933c0.154,1.46,0.23,2.523,0.23,3.189
		c0,0.256-0.06,0.572-0.179,0.948c-0.734-0.017-1.358-0.085-1.87-0.205c-1.298-1.998-2.212-3.253-2.741-3.765
		c-0.99-0.956-2.263-1.768-3.816-2.433c-1.144-0.495-2.459-0.743-3.944-0.743c-2.853,0-5.362,1.28-7.531,3.839
		c-2.168,2.559-3.253,6.364-3.253,11.414c0,2.372,0.423,4.675,1.269,6.91c0.845,2.235,2.113,3.988,3.804,5.259
		c1.69,1.271,3.68,1.907,5.968,1.907c1.11,0,2.289-0.144,3.535-0.434c0.631-0.136,1.144-0.408,1.537-0.816
		c0.272-0.272,0.452-0.68,0.537-1.224c0.138-0.986,0.205-2.389,0.205-4.208c0-1.768-0.025-2.984-0.076-3.647
		c-0.12-0.255-0.235-0.42-0.347-0.497c-0.111-0.076-0.457-0.2-1.037-0.37l-2.279-0.612c-0.496-0.119-0.803-0.265-0.923-0.436
		c-0.034-0.222-0.051-0.384-0.051-0.487c0-0.239,0.061-0.572,0.18-0.999c0.307-0.102,0.521-0.153,0.64-0.153
		c1.861,0,3.475,0.062,4.842,0.185c0.478,0.031,0.999,0.046,1.563,0.046l4.047-0.051l1.716-0.051c0.205-0.017,0.777,0,1.717,0.051
		c0.017,0.444,0.025,0.82,0.025,1.127c0,0.188-0.061,0.401-0.18,0.641c-0.29,0.174-0.785,0.392-1.485,0.652
		c-0.7,0.261-1.093,0.435-1.179,0.522c-0.137,0.136-0.23,0.35-0.281,0.639c-0.052,0.29-0.077,1.304-0.077,3.043
		c0,2.012-0.009,3.213-0.025,3.606c-0.068,1.261-0.103,1.977-0.103,2.147c0,0.631-0.086,1.023-0.256,1.177
		c-0.479,0.477-1.96,1.019-4.444,1.624c-2.484,0.604-5.375,0.908-8.671,0.908c-2.305,0-4.307-0.184-6.006-0.551
		c-1.7-0.367-3.147-0.909-4.342-1.626c-1.605-0.956-2.98-2.117-4.124-3.483s-1.998-2.843-2.562-4.432
		c-0.785-2.254-1.179-4.499-1.179-6.736c0-2.51,0.581-5.055,1.742-7.633c0.854-1.861,2.053-3.539,3.599-5.033
		c1.546-1.494,3.479-2.685,5.802-3.573c2.322-0.888,4.851-1.332,7.582-1.332c0.342,0,0.896,0.043,1.665,0.128
		c2.084,0,4.03,0.261,5.84,0.781C494.015-77.84,495.519-77.221,496.713-76.504z"/>
	<path fill="#FFC000" d="M503.912-45.485v-1.844c0.339-0.103,0.899-0.248,1.68-0.436c1.104-0.273,1.927-0.555,2.47-0.845
		c0.308-0.529,0.461-1.264,0.461-2.203l-0.025-3.023l0.051-5.84l-0.025-1.383c0.137-3.381,0.205-5.123,0.205-5.225l-0.051-3.407
		l0.076-1.383l-0.128-2.92l-0.051-1.102c-0.018-0.17-0.077-0.444-0.18-0.82c-0.7-0.324-1.835-0.529-3.406-0.615
		c-0.376-0.017-0.676-0.042-0.897-0.077l-0.051-2.254l7.324,0.308c0.904,0.035,1.468,0.051,1.689,0.051
		c1.007,0,2.62-0.068,4.84-0.205c1.245-0.085,2.03-0.136,2.355-0.154c0.02,0.325,0.03,0.598,0.03,0.82
		c0,0.291-0.021,0.666-0.062,1.127c-0.682,0.24-1.461,0.466-2.339,0.679c-0.877,0.214-1.597,0.432-2.159,0.653
		c-0.102,0.444-0.153,1.085-0.153,1.921c0,0.734,0.025,1.332,0.077,1.793c-0.052,2.886-0.077,5.106-0.077,6.66l0.025,6.762
		l-0.128,3.432l0.103,5.123l-0.077,0.973c0,0.137,0.052,0.333,0.154,0.589c1.035,0.222,1.978,0.376,2.826,0.461
		c0.154,0.018,0.671,0.086,1.554,0.205c0.068,0.512,0.103,0.939,0.103,1.281c0,0.188-0.009,0.478-0.025,0.871
		c-0.222,0-0.393,0.009-0.512,0.026c-0.546,0.034-0.861,0.051-0.946,0.051c-0.119,0-0.341-0.026-0.665-0.077
		c-0.238-0.034-1.373-0.153-3.401-0.358l-4.526-0.051c-0.903,0-2.217,0.086-3.938,0.256
		C504.985-45.562,504.252-45.501,503.912-45.485z"/>
	<path fill="#FFC000" d="M522.867-76.632l-0.103-1.793h2.177l0.743-0.025c1.024-0.051,1.732-0.077,2.126-0.077
		c0.205,0,0.803,0.018,1.793,0.051c0.222,0.018,0.409,0.026,0.563,0.026c0.153,0,0.691-0.017,1.613-0.051
		c0.923-0.034,1.443-0.051,1.563-0.051c0.188,0,0.452,0.009,0.794,0.025c2.63,2.391,4.773,4.449,6.43,6.173
		c1.656,1.725,7.701,7.761,18.135,18.109v-0.64l-0.103-2.972c-0.051-1.742-0.119-3.12-0.205-4.137
		c-0.085-1.016-0.137-2.229-0.153-3.637s-0.077-2.685-0.179-3.829c-0.205-2.237-0.308-3.526-0.308-3.868
		c-0.017-1.109-0.137-1.784-0.358-2.023c-0.359-0.375-1.179-0.657-2.459-0.845c-0.939-0.154-1.64-0.35-2.101-0.589l0.025-1.511
		l0.666-0.077l5.046-0.154l5.636-0.153c0.375-0.017,0.733-0.026,1.075-0.026l0.025,1.665c-0.393,0.205-0.794,0.358-1.203,0.461
		c-1.093,0.256-1.726,0.436-1.896,0.538c-0.871,0.496-1.341,0.794-1.409,0.896c-0.153,0.205-0.23,0.521-0.23,0.948
		c0,0.103,0.017,0.461,0.051,1.076c0.018,0.308,0.026,1.024,0.026,2.152c0.017,2.476,0.085,4.431,0.204,5.866
		c0.035,0.461,0.061,0.982,0.077,1.563l0.282,8.991c0.017,0.632,0.025,1.076,0.025,1.332v3.151l0.077,1.332l-0.077,1.383
		c0.068,0.701,0.103,1.119,0.103,1.255v1.357l-2.946,0.103l-3.048-3.15l-6.224-6.173l-4.354-4.354l-3.202-3.279
		c-2.084-2.049-3.979-3.85-5.687-5.404l-4.175-3.766l0.23,9.529c0.017,0.581,0.025,1.178,0.025,1.793l-0.025,1.819l0.153,3.355
		c0.052,1.4,0.145,2.92,0.282,4.559c0.034,0.444,0.076,0.756,0.128,0.935c0.051,0.179,0.153,0.44,0.308,0.781
		c0.665,0.239,2.116,0.418,4.354,0.538c0.154,0.034,0.376,0.094,0.666,0.179l0.103,2.075l-0.999,0.025
		c-0.547,0-2.271-0.128-5.174-0.384c-2.715,0.035-4.524,0.086-5.43,0.154c-0.906,0.068-1.4,0.103-1.486,0.103
		c-0.205,0-0.486-0.034-0.845-0.103c-0.035-0.393-0.052-0.734-0.052-1.024c0-0.188,0.009-0.495,0.025-0.922
		c0.479-0.085,0.871-0.128,1.179-0.128c0.103,0,0.436,0.017,0.999,0.051c1.435,0,2.283-0.106,2.549-0.32
		c0.265-0.213,0.413-0.79,0.448-1.729c0.119-2.715,0.179-4.371,0.179-4.969v-1.409l0.052-8.325l-0.077-5.2
		c-0.017-1.98-0.145-3.355-0.384-4.124c-0.103-0.393-0.299-0.734-0.59-1.024c-0.598-0.615-1.264-1.076-1.997-1.383
		C525.879-76.103,524.727-76.341,522.867-76.632z"/>
	<path fill="#FFC000" d="M567.897-78.656c0.973,0.051,1.818,0.128,2.535,0.23c1.349,0.188,2.911,0.282,4.688,0.282
		c0.615,0,2.194-0.051,4.739-0.153c3.808-0.154,7.249-0.231,10.322-0.231l4.636-0.051c1.042,0,2.579,0.128,4.611,0.384
		c0.307,0.342,0.461,0.803,0.461,1.383v5.277l0.051,1.05c0,0.103-0.009,0.256-0.025,0.461l-1.05,0.051
		c-0.138,0-0.427-0.017-0.871-0.051c-0.153-0.341-0.358-0.846-0.615-1.511l-1.024-1.819c-0.393-0.769-0.938-1.554-1.639-2.356
		c-0.427-0.119-0.974-0.188-1.64-0.205c-0.171-0.017-0.691-0.06-1.563-0.128c-1.588-0.137-3.296-0.205-5.123-0.205
		c-2.084,0-3.944,0.035-5.584,0.103c-0.051,0.427-0.077,2.109-0.077,5.046l0.026,4.303v3.228c0.427,0.051,0.796,0.077,1.103,0.077
		c3.064,0,5.245-0.06,6.547-0.18c1.301-0.119,2.104-0.286,2.413-0.5c0.308-0.213,0.582-0.584,0.821-1.114
		c0.153-0.375,0.453-1.63,0.898-3.765l0.333-0.025l1.485,0.025c0.068,1.52,0.103,2.673,0.103,3.458c0,1.793-0.013,2.946-0.038,3.458
		s-0.038,0.914-0.038,1.204c0,0.461,0.025,1.2,0.076,2.216c0.052,1.016,0.077,1.772,0.077,2.267v0.563h-1.818
		c-0.069-0.273-0.197-0.836-0.386-1.691c-0.343-1.588-0.65-2.578-0.924-2.971c-0.206-0.307-0.548-0.538-1.026-0.691
		c-0.343-0.119-1.609-0.179-3.799-0.179c-2.585,0-4.527,0.068-5.827,0.205c0,0.444,0,0.734,0,0.871c0,2.032,0.034,3.723,0.103,5.072
		l-0.052,5.533c0,0.649,0.23,1.093,0.691,1.332c0.701,0.358,2.844,0.538,6.43,0.538c2.373,0,4.389-0.179,6.045-0.538
		c1.144-0.256,2.151-0.828,3.022-1.716c1.161-1.144,2.126-2.749,2.895-4.815c0.529-0.051,0.965-0.077,1.307-0.077
		c0.188,0,0.47,0.009,0.845,0.026c-0.05,0.427-0.093,0.786-0.126,1.076l-0.151,0.769l-0.934,4.841l-0.454,2.92
		c-1.111,0.051-1.991,0.077-2.64,0.077c-0.958,0-3.513-0.085-7.665-0.256c-2.923-0.119-6.443-0.179-10.563-0.179
		c-2.05,0-4.57,0.086-7.562,0.256h-1.077l-3.102,0.103v-1.768c0.324-0.085,0.974-0.179,1.947-0.282
		c1.776-0.205,3.006-0.478,3.688-0.82c0.188-0.495,0.281-1.118,0.281-1.87c0-0.29-0.009-0.785-0.025-1.486l0.025-0.794l-0.076-9.657
		l0.025-2.895l-0.128-4.098l0.025-2.895l-0.23-3.176c0-0.085-0.017-0.256-0.051-0.512c-0.171-0.188-0.427-0.307-0.769-0.358
		c-0.188-0.034-0.444-0.085-0.769-0.154c-0.974-0.205-1.912-0.324-2.818-0.358c-0.323-0.017-0.7-0.051-1.127-0.103L567.897-78.656z"
		/>
	<path fill="#FFC000" d="M605.063-78.656c0.974,0.051,1.818,0.128,2.536,0.23c1.349,0.188,2.911,0.282,4.688,0.282
		c0.614,0,2.194-0.051,4.738-0.153c3.808-0.154,7.249-0.231,10.323-0.231l4.636-0.051c1.041,0,2.578,0.128,4.61,0.384
		c0.308,0.342,0.462,0.803,0.462,1.383v5.277l0.051,1.05c0,0.103-0.009,0.256-0.025,0.461l-1.051,0.051
		c-0.137,0-0.426-0.017-0.87-0.051c-0.154-0.341-0.359-0.846-0.615-1.511l-1.024-1.819c-0.394-0.769-0.938-1.554-1.64-2.356
		c-0.427-0.119-0.973-0.188-1.639-0.205c-0.171-0.017-0.692-0.06-1.563-0.128c-1.589-0.137-3.296-0.205-5.123-0.205
		c-2.084,0-3.945,0.035-5.584,0.103c-0.052,0.427-0.077,2.109-0.077,5.046l0.025,4.303v3.228c0.428,0.051,0.796,0.077,1.104,0.077
		c3.064,0,5.245-0.06,6.547-0.18c1.3-0.119,2.104-0.286,2.412-0.5c0.309-0.213,0.583-0.584,0.822-1.114
		c0.153-0.375,0.453-1.63,0.898-3.765l0.333-0.025l1.485,0.025c0.068,1.52,0.103,2.673,0.103,3.458c0,1.793-0.013,2.946-0.038,3.458
		c-0.026,0.512-0.039,0.914-0.039,1.204c0,0.461,0.026,1.2,0.077,2.216c0.051,1.016,0.077,1.772,0.077,2.267v0.563h-1.819
		c-0.068-0.273-0.196-0.836-0.385-1.691c-0.343-1.588-0.65-2.578-0.924-2.971c-0.206-0.307-0.548-0.538-1.027-0.691
		c-0.343-0.119-1.608-0.179-3.799-0.179c-2.585,0-4.526,0.068-5.827,0.205c0,0.444,0,0.734,0,0.871c0,2.032,0.035,3.723,0.103,5.072
		l-0.051,5.533c0,0.649,0.23,1.093,0.691,1.332c0.7,0.358,2.843,0.538,6.43,0.538c2.373,0,4.389-0.179,6.045-0.538
		c1.144-0.256,2.151-0.828,3.022-1.716c1.161-1.144,2.126-2.749,2.895-4.815c0.528-0.051,0.964-0.077,1.306-0.077
		c0.188,0,0.47,0.009,0.846,0.026c-0.051,0.427-0.093,0.786-0.126,1.076l-0.152,0.769l-0.933,4.841l-0.454,2.92
		c-1.111,0.051-1.991,0.077-2.641,0.077c-0.957,0-3.512-0.085-7.664-0.256c-2.923-0.119-6.443-0.179-10.563-0.179
		c-2.05,0-4.571,0.086-7.563,0.256h-1.076l-3.102,0.103v-1.768c0.324-0.085,0.974-0.179,1.946-0.282
		c1.776-0.205,3.006-0.478,3.689-0.82c0.188-0.495,0.281-1.118,0.281-1.87c0-0.29-0.009-0.785-0.025-1.486l0.025-0.794l-0.077-9.657
		l0.026-2.895l-0.129-4.098l0.026-2.895l-0.23-3.176c0-0.085-0.018-0.256-0.052-0.512c-0.17-0.188-0.427-0.307-0.769-0.358
		c-0.188-0.034-0.444-0.085-0.769-0.154c-0.973-0.205-1.912-0.324-2.817-0.358c-0.324-0.017-0.7-0.051-1.127-0.103L605.063-78.656z"
		/>
	<path fill="#FFC000" d="M643.357-47.073c0.444-0.239,1.102-0.414,1.973-0.525c0.87-0.111,1.655-0.294,2.356-0.551
		c0.085-0.341,0.137-0.589,0.153-0.743c0.034-0.239,0.052-1.059,0.052-2.459l-0.026-5.712l0.103-3.074l-0.051-2.382l0.051-1.383
		c0.052-1.861,0.077-3.603,0.077-5.225c0-3.552-0.042-5.823-0.128-6.813l-1.512-0.308c-1.383-0.085-2.305-0.17-2.767-0.256
		l-0.051-1.537l0.103-0.282c0.854-0.136,1.64-0.205,2.356-0.205c0.394,0,1.188-0.008,2.382-0.025
		c1.229,0.103,1.896,0.154,1.998,0.154l1.357-0.077l3.202-0.153c1.998-0.205,4.107-0.308,6.327-0.308c3.5,0,6.284,0.893,8.35,2.677
		c2.066,1.785,3.1,3.83,3.1,6.135c0,1.725-0.558,3.292-1.672,4.7c-1.115,1.409-2.83,2.472-5.145,3.189
		c0.204,0.358,0.477,0.777,0.816,1.255c0.716,1.025,1.294,1.896,1.736,2.613l4.084,6.634c1.025,1.759,1.695,2.788,2.012,3.086
		c0.315,0.299,0.969,0.627,1.959,0.986c0.769,0.291,1.357,0.581,1.768,0.871c0.103,0.291,0.153,0.547,0.153,0.769
		c0,0.154-0.009,0.351-0.025,0.589h-0.691l-0.513,0.025l-1.332-0.179h-1.05c-0.547-0.085-1.221-0.128-2.023-0.128l-2.562-0.026
		c-0.188,0-0.785,0.06-1.793,0.179c-0.461,0.051-0.829,0.094-1.102,0.128l-0.871-1.69c-0.717-1.281-1.221-2.237-1.511-2.869
		c-0.752-1.656-2.041-4.294-3.868-7.915c-0.854-1.673-1.451-2.621-1.793-2.843c-0.513-0.359-1.393-0.538-2.639-0.538
		c-0.342,0-0.922,0.017-1.741,0.051c-0.052,0.496-0.077,1.084-0.077,1.768l0.128,5.686l-0.153,4.816
		c0.478,0.291,1.102,0.512,1.87,0.666c1.331,0.273,2.476,0.598,3.432,0.974c0,0.837-0.034,1.469-0.103,1.896
		c-0.324-0.017-0.528-0.026-0.614-0.026l-1.05,0.051c-3.672-0.324-5.85-0.486-6.532-0.486c-0.444,0-0.76,0.009-0.947,0.025
		l-3.535,0.23c-1.076,0.12-2.058,0.179-2.945,0.179h-1.102c-0.035-0.426-0.052-0.7-0.052-0.819
		C643.28-46.467,643.305-46.731,643.357-47.073z M654.883-63.646c0.819,0.034,1.418,0.051,1.793,0.051
		c2.903,0,4.961-0.521,6.173-1.563c1.213-1.042,1.819-2.434,1.819-4.175c0-1.076-0.15-2.087-0.447-3.035
		c-0.298-0.948-0.669-1.652-1.111-2.113c-0.63-0.666-1.456-1.169-2.478-1.511c-0.75-0.256-1.951-0.384-3.603-0.384
		c-0.784,0-1.457,0.043-2.019,0.128l-0.051,0.487l0.051,3.458l-0.076,2.1l0.025,2.792c-0.034,0.786-0.061,1.802-0.077,3.048V-63.646
		z"/>
	<path fill="#FFC000" d="M679.883-45.485v-1.844c0.339-0.103,0.899-0.248,1.68-0.436c1.104-0.273,1.927-0.555,2.47-0.845
		c0.308-0.529,0.461-1.264,0.461-2.203l-0.025-3.023l0.051-5.84l-0.025-1.383c0.137-3.381,0.205-5.123,0.205-5.225l-0.052-3.407
		l0.077-1.383l-0.128-2.92l-0.051-1.102c-0.018-0.17-0.077-0.444-0.18-0.82c-0.7-0.324-1.835-0.529-3.406-0.615
		c-0.376-0.017-0.676-0.042-0.897-0.077l-0.051-2.254l7.324,0.308c0.904,0.035,1.468,0.051,1.689,0.051
		c1.007,0,2.62-0.068,4.84-0.205c1.245-0.085,2.03-0.136,2.355-0.154c0.02,0.325,0.03,0.598,0.03,0.82
		c0,0.291-0.021,0.666-0.062,1.127c-0.682,0.24-1.461,0.466-2.339,0.679c-0.877,0.214-1.597,0.432-2.16,0.653
		c-0.101,0.444-0.152,1.085-0.152,1.921c0,0.734,0.025,1.332,0.077,1.793c-0.052,2.886-0.077,5.106-0.077,6.66l0.025,6.762
		l-0.128,3.432l0.103,5.123l-0.077,0.973c0,0.137,0.052,0.333,0.154,0.589c1.035,0.222,1.978,0.376,2.826,0.461
		c0.153,0.018,0.671,0.086,1.554,0.205c0.068,0.512,0.103,0.939,0.103,1.281c0,0.188-0.009,0.478-0.025,0.871
		c-0.222,0-0.393,0.009-0.512,0.026c-0.546,0.034-0.861,0.051-0.946,0.051c-0.119,0-0.341-0.026-0.665-0.077
		c-0.238-0.034-1.373-0.153-3.401-0.358l-4.526-0.051c-0.903,0-2.217,0.086-3.938,0.256
		C680.957-45.562,680.224-45.501,679.883-45.485z"/>
	<path fill="#FFC000" d="M698.838-76.632l-0.103-1.793h2.177l0.743-0.025c1.024-0.051,1.732-0.077,2.126-0.077
		c0.205,0,0.803,0.018,1.793,0.051c0.222,0.018,0.409,0.026,0.563,0.026c0.153,0,0.691-0.017,1.613-0.051
		c0.923-0.034,1.443-0.051,1.563-0.051c0.188,0,0.452,0.009,0.794,0.025c2.63,2.391,4.773,4.449,6.43,6.173
		c1.656,1.725,7.701,7.761,18.135,18.109v-0.64l-0.103-2.972c-0.051-1.742-0.119-3.12-0.205-4.137
		c-0.085-1.016-0.137-2.229-0.153-3.637s-0.077-2.685-0.18-3.829c-0.204-2.237-0.307-3.526-0.307-3.868
		c-0.017-1.109-0.137-1.784-0.359-2.023c-0.358-0.375-1.178-0.657-2.459-0.845c-0.938-0.154-1.639-0.35-2.1-0.589l0.025-1.511
		l0.666-0.077l5.046-0.154l5.636-0.153c0.375-0.017,0.733-0.026,1.075-0.026l0.025,1.665c-0.393,0.205-0.794,0.358-1.203,0.461
		c-1.093,0.256-1.726,0.436-1.896,0.538c-0.871,0.496-1.341,0.794-1.409,0.896c-0.153,0.205-0.23,0.521-0.23,0.948
		c0,0.103,0.017,0.461,0.051,1.076c0.018,0.308,0.026,1.024,0.026,2.152c0.017,2.476,0.085,4.431,0.204,5.866
		c0.035,0.461,0.061,0.982,0.077,1.563l0.282,8.991c0.017,0.632,0.025,1.076,0.025,1.332v3.151l0.077,1.332l-0.077,1.383
		c0.067,0.701,0.103,1.119,0.103,1.255v1.357l-2.946,0.103l-3.048-3.15l-6.225-6.173l-4.354-4.354l-3.202-3.279
		c-2.084-2.049-3.979-3.85-5.687-5.404l-4.175-3.766l0.23,9.529c0.017,0.581,0.025,1.178,0.025,1.793l-0.025,1.819l0.153,3.355
		c0.051,1.4,0.145,2.92,0.282,4.559c0.034,0.444,0.076,0.756,0.128,0.935c0.051,0.179,0.153,0.44,0.307,0.781
		c0.666,0.239,2.117,0.418,4.354,0.538c0.154,0.034,0.376,0.094,0.666,0.179l0.103,2.075l-0.999,0.025
		c-0.547,0-2.271-0.128-5.174-0.384c-2.715,0.035-4.524,0.086-5.431,0.154c-0.905,0.068-1.399,0.103-1.485,0.103
		c-0.205,0-0.486-0.034-0.845-0.103c-0.035-0.393-0.052-0.734-0.052-1.024c0-0.188,0.009-0.495,0.025-0.922
		c0.479-0.085,0.871-0.128,1.179-0.128c0.103,0,0.436,0.017,0.999,0.051c1.435,0,2.283-0.106,2.549-0.32
		c0.265-0.213,0.413-0.79,0.448-1.729c0.119-2.715,0.179-4.371,0.179-4.969v-1.409l0.052-8.325l-0.077-5.2
		c-0.017-1.98-0.145-3.355-0.384-4.124c-0.103-0.393-0.299-0.734-0.59-1.024c-0.598-0.615-1.264-1.076-1.998-1.383
		C701.851-76.103,700.699-76.341,698.838-76.632z"/>
	<path fill="#FFC000" d="M775.963-76.504c0.119,0.495,0.256,1.473,0.409,2.933c0.154,1.46,0.231,2.523,0.231,3.189
		c0,0.256-0.061,0.572-0.18,0.948c-0.734-0.017-1.357-0.085-1.87-0.205c-1.297-1.998-2.212-3.253-2.74-3.765
		c-0.99-0.956-2.264-1.768-3.817-2.433c-1.144-0.495-2.459-0.743-3.944-0.743c-2.852,0-5.362,1.28-7.53,3.839
		c-2.169,2.559-3.253,6.364-3.253,11.414c0,2.372,0.422,4.675,1.268,6.91s2.113,3.988,3.804,5.259
		c1.69,1.271,3.68,1.907,5.968,1.907c1.11,0,2.289-0.144,3.535-0.434c0.632-0.136,1.144-0.408,1.537-0.816
		c0.272-0.272,0.452-0.68,0.538-1.224c0.137-0.986,0.205-2.389,0.205-4.208c0-1.768-0.026-2.984-0.077-3.647
		c-0.119-0.255-0.234-0.42-0.346-0.497c-0.111-0.076-0.457-0.2-1.038-0.37l-2.279-0.612c-0.495-0.119-0.803-0.265-0.922-0.436
		c-0.035-0.222-0.052-0.384-0.052-0.487c0-0.239,0.061-0.572,0.18-0.999c0.308-0.102,0.521-0.153,0.641-0.153
		c1.86,0,3.475,0.062,4.841,0.185c0.478,0.031,0.999,0.046,1.563,0.046l4.047-0.051l1.717-0.051c0.204-0.017,0.777,0,1.716,0.051
		c0.017,0.444,0.025,0.82,0.025,1.127c0,0.188-0.06,0.401-0.179,0.641c-0.291,0.174-0.785,0.392-1.486,0.652
		c-0.7,0.261-1.093,0.435-1.178,0.522c-0.138,0.136-0.23,0.35-0.282,0.639c-0.051,0.29-0.077,1.304-0.077,3.043
		c0,2.012-0.009,3.213-0.025,3.606c-0.067,1.261-0.103,1.977-0.103,2.147c0,0.631-0.085,1.023-0.256,1.177
		c-0.478,0.477-1.96,1.019-4.444,1.624c-2.484,0.604-5.375,0.908-8.67,0.908c-2.306,0-4.308-0.184-6.007-0.551
		s-3.146-0.909-4.342-1.626c-1.604-0.956-2.98-2.117-4.124-3.483s-1.998-2.843-2.562-4.432c-0.785-2.254-1.178-4.499-1.178-6.736
		c0-2.51,0.58-5.055,1.741-7.633c0.854-1.861,2.054-3.539,3.599-5.033c1.546-1.494,3.48-2.685,5.802-3.573
		c2.322-0.888,4.851-1.332,7.582-1.332c0.342,0,0.896,0.043,1.665,0.128c2.084,0,4.03,0.261,5.84,0.781
		C773.265-77.84,774.768-77.221,775.963-76.504z"/>
</g>
</svg>
