<?xml version="1.0" encoding="utf-8"?>
<!-- Generator: Adobe Illustrator 15.1.0, SVG Export Plug-In . SVG Version: 6.00 Build 0)  -->
<!DOCTYPE svg PUBLIC "-//W3C//DTD SVG 1.1//EN" "http://www.w3.org/Graphics/SVG/1.1/DTD/svg11.dtd">
<svg version="1.1" id="Layer_1" xmlns="http://www.w3.org/2000/svg" xmlns:xlink="http://www.w3.org/1999/xlink" x="0px" y="0px"
	 width="823.597px" height="40px" viewBox="0 0 823.597 40" enable-background="new 0 0 823.597 40" xml:space="preserve">
<g>
	<g>
		<path fill="#FDC010" d="M525.949,38.171c-1.649-0.209-2.063-1.33-2.229-2.754V4.739c0.111-1.787,0.469-2.654,1.957-2.908
			c0.635-0.096,1.118-0.146,2.537-0.15V0.769c-1.031-0.004-1.063-0.009-1.11-0.009h-14.855c-0.071,0-0.122,0.009-1.146,0.009v0.912
			c1.721,0,2.639,0.055,3.07,0.15c1.818,0.358,2.258,1.175,2.367,2.908l-0.067,12.133h-21.467V4.739
			c0.11-1.787,0.466-2.654,1.952-2.908c0.641-0.096,1.123-0.146,2.54-0.15V0.769c-1.029-0.004-1.06-0.009-1.106-0.009h-14.862
			c-0.069,0-0.117,0.009-1.142,0.009v0.912c1.725,0,2.635,0.055,3.071,0.15c1.814,0.358,2.173,1.175,2.283,2.908
			c0.111,1.629,0.275,28.485,0,30.627c-0.221,1.475-0.579,2.596-1.679,2.805c-0.479,0.096-1.12,0.191-2.862,0.199v0.904
			c1.005,0.004,1.042,0.017,1.102,0.017h15.52c0.008,0,0.019-0.004,1.049-0.004v-0.921c-1.833-0.013-2.921-0.104-3.635-0.195
			c-1.651-0.209-2.065-1.33-2.23-2.754V19.68h21.453l-0.083,15.687c-0.221,1.475-0.494,2.596-1.596,2.805
			c-0.479,0.096-1.121,0.191-2.862,0.199v0.904c1.006,0.004,1.041,0.017,1.1,0.017h15.52c0.011,0,0.021-0.004,1.049-0.004v-0.921
			C527.753,38.354,526.666,38.262,525.949,38.171L525.949,38.171L525.949,38.171z"/>
		<path fill="#FDC010" d="M680.722,38.316c-1.434-0.175-1.791-1.146-1.934-2.388V9.318c0.096-1.55,0.402-2.3,1.694-2.521
			c0.556-0.087,0.973-0.129,2.2-0.133V5.872c-0.891,0-0.919-0.004-0.957-0.004h-12.893c-0.061,0-0.103,0.004-0.994,0.004v0.792
			c1.5,0,2.287,0.046,2.665,0.133c1.572,0.309,1.958,1.017,2.054,2.521l-0.059,10.524h-18.626V9.318c0.101-1.55,0.409-2.3,1.7-2.521
			c0.55-0.087,0.969-0.129,2.2-0.133V5.872c-0.896,0-0.925-0.004-0.963-0.004H643.92c-0.059,0-0.101,0.004-0.989,0.004v0.792
			c1.495,0,2.285,0.046,2.664,0.133c1.572,0.309,1.958,1.017,2.05,2.521c0.096,1.416,0.096,24.711-0.142,26.564
			c-0.193,1.288-0.432,2.259-1.383,2.434c-0.419,0.087-0.974,0.171-2.486,0.175v0.787c0.873,0,0.902,0.013,0.957,0.013h13.463
			c0.009,0,0.018-0.004,0.906-0.004v-0.796c-1.589-0.013-2.528-0.092-3.151-0.175c-1.434-0.175-1.794-1.146-1.936-2.388V22.275
			h18.614l-0.073,13.607c-0.192,1.288-0.429,2.259-1.386,2.434c-0.418,0.087-0.969,0.171-2.48,0.175v0.787
			c0.87,0,0.904,0.013,0.953,0.013h13.463c0.008,0,0.016-0.004,0.912-0.004v-0.796C682.284,38.479,681.341,38.399,680.722,38.316
			L680.722,38.316L680.722,38.316z"/>
		<path fill="#FDC010" d="M636.554,39.283v-0.788c-1.513-0.004-2.555-0.092-3.219-0.179c-1.434-0.175-1.979-1.138-1.979-2.388
			c0-2.679,0-27.586,0-27.586l5.893,0.134c4.252,0.087,5.544,1.325,5.635,2.475l0.021,1.325h1.048V6.039h-31.178
			c-0.004,0.021-0.008,0.029-0.013,0.05c-0.1,0.354-0.997,4.358-1.245,5.746h1.019c0.356-1.013,0.583-1.471,0.989-2.033
			c0.717-0.976,1.86-1.192,4.631-1.279l6.993-0.18c0,0,0.24,25.687,0,27.54c-0.141,1.288-0.549,2.259-1.504,2.434
			c-0.401,0.083-0.941,0.162-2.464,0.175v0.792H636.554L636.554,39.283L636.554,39.283z"/>
		<path fill="#FDC010" d="M615.575,32.396c-0.381,0-0.475,0.263-0.524,0.663c-0.097,0.841-0.667,2.074-1.244,2.649
			c-1.189,1.195-3.052,1.237-5.585,1.237c-3.723,0-4.962-0.308-5.774-0.971c-1.002-0.796-1.002-3.846-1.002-9.504v-7.782
			c0-6.721,0-7.958,0.096-9.37c0.096-1.55,0.477-2.3,1.765-2.521c0.57-0.091,1.333-0.133,1.864-0.133
			c0.024,0,0.05-0.004,0.873-0.004V5.876l-15.045-0.008v0.8c1.533,0.009,2.004,0.055,2.329,0.129
			c1.576,0.309,1.958,1.017,2.054,2.521c0.096,1.412,0.096,2.649,0.096,9.37v7.782c0,4.067-0.121,7.546-0.237,9.412
			c-0.11,1.763-0.633,2.492-2.973,2.617c-4.608-0.238-5.406-4-6.725-6.825c-3.11-6.691-11.789-26.781-11.789-26.781h-0.992
			l-12.753,29.531c-0.954,2.213-1.86,3.717-4.056,3.979c-0.265,0.034-0.667,0.063-1.551,0.075l1.099-5.925l-0.989,0.013
			c-0.029,0.434-0.059,0.538-0.084,0.667c-0.331,1.813-0.906,2.741-2.146,3.271c-1.243,0.529-3.248,0.529-4.489,0.529
			c-4.869,0-5.631-0.658-5.727-3.713c-0.049-1.278,0-5.35,0-6.85v-3.495c0-0.263,0.045-0.441,0.285-0.441
			c1.144,0,5.87,0.046,6.779,0.133c1.764,0.175,2.435,0.838,2.67,1.725c0.146,0.571,0.146,1.15,0.196,1.592
			c0,0.046,0.004,0.084,0.017,0.43h0.779l0.607-7.416h-0.691c-0.112,0.287-0.229,0.42-0.377,0.574
			c-0.432,0.441-1.147,0.575-2.296,0.667c-1.098,0.083-6.589,0.083-7.639,0.083c-0.286,0-0.331-0.175-0.331-0.483V8.651
			c0-0.309,0.096-0.441,0.331-0.441c0.958,0,5.966,0.087,6.778,0.175c2.39,0.267,2.867,0.8,3.202,1.592
			c0.239,0.533,0.285,1.283,0.285,1.596c0,0.004,0,0.004,0,0.604h0.925c0,0,0.596-5.945,0.601-6.258h-22.949v0.733
			c0.675,0.004,2.279,0.055,2.661,0.146c1.576,0.309,1.958,1.017,2.056,2.521c0.092,1.412,0.092,2.649,0.092,9.37v7.782
			c0,4.067,0,7.559-0.235,9.412c-0.194,1.288-0.432,2.259-1.386,2.434c-0.431,0.087-1.721,0.179-2.445,0.179v0.775l34.29,0.021
			v-0.796h-1.393c-1.479,0-1.908-0.574-1.908-1.37c0-0.529,0.24-1.592,0.717-2.7l2.579-6.316c0.092-0.267,0.192-0.358,0.427-0.358
			h10.647c0.24,0,0.382,0.092,0.476,0.309l3.82,9.374c0.235,0.529-0.096,0.926-0.427,1.017c-0.094,0.009-0.165,0.021-0.654,0.029
			v0.759h10.903h1.296h22.486c0,0,0.717-5.604,0.717-6.092C615.957,32.612,615.913,32.396,615.575,32.396L615.575,32.396
			L615.575,32.396z M576.432,25.542h-8.787c-0.185,0-0.235-0.133-0.185-0.313l4.391-10.874c0.046-0.18,0.14-0.4,0.285-0.4
			c0.143,0,0.192,0.221,0.238,0.4l4.3,10.92C576.72,25.409,576.674,25.542,576.432,25.542L576.432,25.542L576.432,25.542z"/>
		<path fill="#FDC010" d="M822.788,32.566c-0.028,0.434-0.058,0.538-0.083,0.667c-0.333,1.813-0.906,2.741-2.149,3.271
			c-1.237,0.529-3.242,0.529-4.485,0.529c-4.872,0-5.635-0.658-5.729-3.713c-0.046-1.278,0-5.35,0-6.85v-3.495
			c0-0.263,0.048-0.441,0.285-0.441c1.147,0,5.874,0.046,6.776,0.133c1.769,0.175,2.436,0.838,2.678,1.725
			c0.144,0.571,0.144,1.15,0.189,1.592c0,0.046,0.012,0.084,0.017,0.43h0.783l0.608-7.416h-0.691
			c-0.111,0.287-0.228,0.42-0.382,0.574c-0.429,0.441-1.146,0.575-2.292,0.667c-1.096,0.083-6.589,0.083-7.637,0.083
			c-0.287,0-0.335-0.175-0.335-0.483V8.651c0-0.309,0.094-0.441,0.335-0.441c0.956,0,5.965,0.087,6.777,0.175
			c2.385,0.267,2.866,0.8,3.201,1.592c0.238,0.533,0.285,1.283,0.285,1.596c0,0.004,0,0.004,0,0.604h0.921
			c0,0,0.604-5.945,0.608-6.258h-22.959v0.733c0.682,0.004,2.283,0.055,2.669,0.146c1.575,0.309,1.956,1.017,2.052,2.521
			c0.094,1.416,0.094,2.649,0.094,9.37v7.782c0,4.067,0,7.559-0.235,9.412c-0.167,1.112-0.369,1.987-1.04,2.316
			c-1.147,0-2.585-0.908-4.605-2.845c-2.818-2.742-6.112-6.675-10.362-11.625c4.823-3.629,6.302-6.633,6.302-9.903
			c0-2.967-1.906-5.217-3.243-6.058c-2.581-1.638-5.779-1.9-8.787-1.9l-14.391,0.004v0.792c1.635,0.004,2.381,0.046,2.741,0.133
			c1.579,0.309,1.885,1.017,1.983,2.521v26.564c0,1.509-0.79,2.521-1.767,2.521c-3.162,0-4.529-4.216-5.693-6.729
			c-3.119-6.691-11.793-26.781-11.793-26.781h-0.988l-12.757,29.531c-1.811,4.804-5.071,3.475-5.071,3.475l1.533-8.054h-1.243
			c-0.215,0.68-0.243,0.813-0.281,0.983c-0.221,0.917-0.933,2.396-1.868,3.362c-2.204,2.346-5.175,2.854-10.077,2.854
			c-7.372,0-17.332-6.013-17.332-18.141c0-4.946,1.046-9.787,5.063-13.199c2.425-2.042,5.56-3.163,10.345-3.163
			c5.063,0,9.357,1.38,11.172,3.163c1.224,1.175,2.125,2.512,2.101,5.816h1.281V1.51c-0.112-0.041-0.246-0.07-0.411-0.087
			c-1.647-0.15-3.41-0.608-5.501-0.863c-2.531-0.308-4.564-0.512-7.979-0.512c-8.197,0-13.426,2.037-17.391,5.399
			c-5.28,4.487-6.437,10.499-6.437,13.97c0,4.941,1.429,10.646,6.822,15.028c5.008,4.025,11.335,5.554,18.874,5.554
			c3.525,0,10.297-0.712,10.297-0.712c0.884,0,12.366,0.004,12.366,0.004v-0.796h-1.392c-1.479,0-1.908-0.574-1.908-1.37
			c0-0.529,0.24-1.592,0.717-2.7l2.575-6.316c0.1-0.267,0.195-0.358,0.431-0.358h10.647c0.239,0,0.382,0.092,0.476,0.309l3.82,9.374
			c0.239,0.529-0.096,0.926-0.432,1.017c-0.09,0.009-0.16,0.021-0.649,0.029v0.759c0,0,22.888,0.004,23.303,0v-0.75
			c-1.369-0.013-2.292-0.088-2.95-0.171c-1.434-0.175-1.719-1.146-1.864-2.434c-0.237-1.854-0.237-5.345-0.237-9.458v-0.62
			c0-0.263,0.142-0.354,0.383-0.354l4.154,0.092c0.335,0,0.621,0.046,0.858,0.309c0.62,0.662,2.816,3.67,4.727,6.1
			c2.671,3.404,4.489,5.482,6.539,6.499c1.239,0.621,2.438,0.842,5.108,0.842h4.533c0.142,0,0.264-0.008,0.373-0.021l17.659,0.013
			l0.774-6.725L822.788,32.566L822.788,32.566L822.788,32.566z M754.854,25.542h-8.782c-0.196,0-0.244-0.133-0.196-0.313
			l4.396-10.874c0.045-0.18,0.141-0.4,0.287-0.4c0.14,0,0.189,0.221,0.235,0.4l4.296,10.92
			C755.141,25.409,755.091,25.542,754.854,25.542L754.854,25.542L754.854,25.542z M785.937,22.667
			c-0.862,0.575-1.483,0.75-3.39,0.75c-1.195,0-2.631-0.129-3.631-0.441c-0.337-0.134-0.429-0.309-0.429-0.796V8.739
			c0-0.354,0.092-0.529,0.429-0.617c0.479-0.133,1.338-0.179,2.529-0.179c2.818,0,7.304,1.816,7.304,8.091
			C788.749,19.659,787.37,21.692,785.937,22.667L785.937,22.667L785.937,22.667z"/>
	</g>
	<path fill="#FDC010" d="M44.029,0v0.778c-0.165,0.053-1.637,0.13-2.308,0.234c-1.502,0.26-1.947,1.141-2.06,2.966
		C39.55,5.644,39.55,7.102,39.55,15.012v5.572c0,5.776-0.611,11.92-5.291,15.668c-3.952,3.175-7.962,3.747-11.582,3.747
		c-2.955,0-8.3-0.156-12.367-3.593c-2.839-2.392-4.958-6.246-4.958-13.791v-7.604c0-7.91,0-9.368-0.109-11.033
		C5.131,2.21,4.687,1.375,2.849,1.013C2.402,0.908,0.161,0.829,0,0.767V0h16.805v0.8c-0.142,0.039-1.482,0.108-2.151,0.213
		c-1.504,0.26-1.948,1.141-2.059,2.966c-0.112,1.665-0.112,3.123-0.112,11.033v7.291c0,7.545,1.615,10.722,4.346,12.806
		c2.506,1.923,5.068,2.131,6.961,2.131c2.449,0,5.457-0.729,7.685-2.809c3.064-2.864,3.232-7.549,3.232-12.909v-6.51
		c0-7.91,0-9.368-0.112-11.033c-0.112-1.769-0.556-2.604-2.395-2.966c-0.447-0.104-2.297-0.165-2.415-0.182V0H44.029L44.029,0
		L44.029,0z"/>
	<path fill="#FDC010" d="M70.665,5.076v0.726c0.315,0.052,2.583,0.077,3.308,0.35c1.167,0.452,1.601,1.311,1.648,4.072l0.033,19.951
		L48.804,4.298h-1.261v28.333c-0.047,3.936-0.447,5.252-1.706,5.612c-0.678,0.182-2.948,0.248-2.948,0.248v0.767h13.408v-0.787
		c0,0-2.517-0.046-3.339-0.319c-0.971-0.316-1.581-1.493-1.676-5.022V14.495c3.505,3.564,26.571,25.504,26.571,25.504h1.605
		l0.039-30.135c0.048-2.536,0.437-3.488,1.792-3.851c0.58-0.135,1.902-0.16,2.315-0.212V5.076H70.665L70.665,5.076L70.665,5.076z"/>
	<path fill="#FDC010" d="M154.862,32.421c-0.358,1.304-0.934,3.475-2.608,4.1c-1.285,0.477-3.296,0.544-4.554,0.544
		c-4.939,0-5.714-0.68-5.813-3.802c-0.046-1.314,0-5.479,0-7.017v-3.575c0-0.272,0.05-0.454,0.292-0.454
		c1.162,0,5.958,0.046,6.876,0.136c1.793,0.182,2.473,0.86,2.714,1.765c0.146,0.59,0.146,1.175,0.192,1.631
		c0,0.027,0,0.055,0.004,0.404h0.67l0.804-7.602h-0.604c-0.116,0.362-0.399,0.487-0.533,0.634c-0.438,0.451-1.166,0.587-2.325,0.679
		c-1.117,0.09-6.683,0.09-7.75,0.09c-0.292,0-0.342-0.182-0.342-0.496L141.871,7.55c0,0,7.466,0.164,8.142,0.313
		c2.824,0.622,2.583,2.247,2.629,3.626h0.945c0.088-0.708,0.604-6.3,0.604-6.3s-0.004,0.016-0.004,0h-30.592v0.763
		c0.579,0.011,0.694,0.015,0.809,0.015c0.628,0,1.355,0.046,1.937,0.228c0.435,0.135,0.627,0.498,0.627,0.86
		c0,0.406-0.192,1.085-0.433,1.673c-1.165,2.989-7.459,17.565-9.54,22.542h-0.194l-8.33-20.549
		c-0.679-1.631-1.116-2.897-1.116-3.485c0-0.408,0.146-0.725,0.485-0.949c0.358-0.25,1.002-0.309,2.594-0.317V5.188H85.968V5.92
		c4.659-0.171,4.141,2.765,4.141,2.765v27.22c0,0,0.518,2.933-4.141,2.762v0.704h14.363v-0.712c-4.385,0-4.024-2.754-4.024-2.754
		V8.685c0,0-0.027-2.529,2.201-2.325c1.216,0.11,2.61,3,3.666,5.281l12.684,28.358h1.019c0,0,12.013-25.16,13.904-29.414
		c1.306-2.9,2.033-3.667,2.662-4.075c0.35-0.217,3.248-0.921,3.248,2.175c0,1.45,0.096,25.303-0.144,27.203
		c-0.196,1.313-0.438,2.308-1.406,2.487c-0.423,0.089-0.985,0.175-2.506,0.181v0.816c0.867,0.002,0.908,0,0.958,0h21.961
		c0.316-1.183,1.079-5.51,1.333-6.951H154.862L154.862,32.421L154.862,32.421z"/>
	<path fill="#FDC010" d="M214.228,36.533c0,0,0.517,2.935-4.142,2.765v0.701h14.362v-0.712c-4.387,0-4.021-2.754-4.021-2.754V9.312
		c0,0-0.367-2.754,4.021-2.754V5.845h-14.362v0.702c4.658-0.168,4.142,2.765,4.142,2.765V36.533L214.228,36.533L214.228,36.533z"/>
	<path fill="#FDC010" d="M199.774,18.438l-1.358-0.95c-4.017-2.85-5.133-4.436-5.133-6.517c0-2.716,2.179-4.662,5.762-4.662
		c3.15,0,4.554,1.358,5.279,2.217c1.017,1.177,1.262,2.579,1.262,2.987c0,0.196,0.017,0.354,0.058,0.842h0.875l0.254-7.017
		c-0.175-0.342-3.07-1.1-7.1-1.112c-6.729-0.025-11.185,3.575-11.185,8.554c0,3.666,1.84,6.837,7.164,10.73l2.229,1.627
		c4.021,2.898,4.745,5.025,4.745,7.243c0,2.398-2.129,5.16-6.487,5.16c0,0-4.496,0.071-7.058-2.489
		c-2.56-2.561-6.199-6.835-10.51-11.903c4.892-3.712,6.392-6.791,6.392-10.142c0-3.03-1.938-5.339-3.292-6.201
		c-2.616-1.675-5.86-1.938-8.91-1.938h-14.439V5.67c0.063,0.005,4.629-0.36,4.629,2.723c0,1.45,0,25.286,0,27.203
		c0,2.95-3.392,2.675-3.995,2.679v0.785h14.966v-0.798c-2.588,0-4.842,0.017-4.842-2.666c0-1.917-0.241-10.32-0.241-10.32
		c0-0.896,5.229-0.228,5.47,0.046c0.629,0.679,2.858,3.754,4.795,6.245c2.712,3.485,3.608,4.583,5.342,5.85
		c0,0,8.306,5.506,18.713,0.442c3.112-1.515,4.554-5.25,4.554-7.877C207.715,25.684,205.586,22.65,199.774,18.438L199.774,18.438
		L199.774,18.438z M176.395,22.061c-0.871,0.59-1.504,0.77-3.438,0.77c-1.212,0-2.667-0.134-3.683-0.45
		c-0.337-0.138-0.433-0.319-0.433-0.816V7.802c0-0.361,0.096-0.544,0.433-0.634c0.485-0.133,1.358-0.179,2.566-0.179
		c2.858,0,7.412,1.854,7.412,8.282C179.252,18.981,177.849,21.065,176.395,22.061L176.395,22.061L176.395,22.061z"/>
	<path fill="#FDC010" d="M268.579,5.785v0.791c0.642,0.023,0.742,0.042,0.846,0.064c0.821,0.182,1.012,0.68,1.012,1.132
		c0,0.589-0.191,1.358-0.675,2.354c-0.679,1.404-6.778,11.362-7.266,12.449c-0.654-1.074-5.637-9.091-7.545-12.324
		c0,0-0.733-1.033-1.254-2.85c-0.229-0.804,1.716-0.807,1.716-0.807v-0.76h-30.965l-0.913,6.028c0,0,0,0,0.888,0
		c0.496-2.026,1.7-3.306,3.929-3.493c3.05-0.071,6.429,0,6.429,0v18.505c0,4.162,0,7.741-0.241,9.642
		c-0.146,1.313-0.438,2.308-1.404,2.487c-0.35,0.073-2.037,0.142-2.571,0.169v0.826h14.704v-0.837
		c-0.588-0.035-1.846-0.096-2.304-0.158c-1.45-0.18-1.742-1.175-1.887-2.441c-0.242-1.946-0.242-5.525-0.242-9.688V8.37h6.008
		c0.563,0.55,1.158,1.294,1.754,2.118c1.695,2.354,8.187,12.313,8.524,13.035c0.629,1.314,1.112,2.311,1.112,4.754v3.712
		c0,0.723,0,2.627-0.146,4.527c-0.096,1.313-0.529,2.308-1.5,2.487c-0.375,0.079-0.863,0.154-2.65,0.173v0.818h15.729v-0.809
		c-1.458-0.002-2.521-0.091-3.2-0.183c-1.45-0.18-1.887-1.175-1.983-2.487c-0.146-1.9-0.146-3.805-0.146-4.527v-3.712
		c0-1.494,0-2.897,0.725-4.526c0.871-1.946,7.654-12.583,9.25-14.396c1.066-1.221,1.6-1.763,2.617-2.217
		c0.729-0.362,1.646-0.544,2.129-0.544c0.063,0,0.121-0.002,0.875-0.006V5.785H268.579L268.579,5.785L268.579,5.785z"/>
	<path fill="#FDC010" d="M372.373,3.98c10.753,0,20.261,7.368,20.261,18.008c0,9.47-7.416,18.011-19.615,18.011
		c-10.75,0-20.257-7.37-20.257-18.011C352.761,12.522,360.178,3.98,372.373,3.98L372.373,3.98L372.373,3.98z M374.314,38.146
		c3.187,0,10.953-1.904,10.953-14.008c0-9.47-5.479-18.303-14.19-18.303c-3.184,0-10.95,1.902-10.95,14.008
		C360.127,29.309,365.603,38.146,374.314,38.146L374.314,38.146L374.314,38.146z"/>
	<path fill="#FDC010" d="M441.186,4.907v1.465c-3.438,0-4.233,1.123-5.279,4.246l-10.104,29.381h-1.445l-9.208-24.842h-0.1
		l-8.362,24.842h-1.496l-10.903-29.138c-1.441-4.004-2.188-4.343-4.825-4.489V4.907h14.632v1.465H402.8
		c-1.642,0-2.637,0.731-2.637,2.048c0,0.489,0.1,1.025,0.7,2.638l7.167,19.865h0.1l8.412-26.648h0.896l9.708,26.744h0.1l5.975-19.67
		c0.346-1.221,0.596-2.243,0.596-2.78c0-1.661-1.341-2.148-3.733-2.196V4.907H441.186L441.186,4.907L441.186,4.907z"/>
	<path fill="#FDC010" d="M463.497,34.923L450.006,5.394h-0.842l-10.953,25.917c-2.738,6.539-3.684,7.026-7.121,7.223v1.466h11.95
		v-1.466c-3.087-0.048-3.687-0.584-3.687-1.854c0-0.487,0.1-1.171,1.346-4.587l1.445-3.954h11.399l1.992,4.587
		c1.045,2.439,1.392,3.467,1.392,4.002c0,1.319-0.796,1.807-3.583,1.807v1.466h15.232v-1.466
		C465.988,38.533,464.792,37.752,463.497,34.923L463.497,34.923L463.497,34.923z M442.781,26.284l4.579-12.521l5.375,12.521H442.781
		L442.781,26.284L442.781,26.284z"/>
	<path fill="#FDC010" d="M335.283,0.844v0.818c5.045,0,4.625,3.164,4.625,3.164v31.307l0.012-0.12c0,0-0.117,3.177-4.758,3.177v0.81
		h16.512v-0.82c-4.504,0-4.625-3.166-4.625-3.166V4.706c0,0-0.416-3.167,4.625-3.167V0.721L335.283,0.844L335.283,0.844
		L335.283,0.844z"/>
	<path fill-rule="evenodd" clip-rule="evenodd" fill="#FDC010" d="M294.023,39.999c8.542,0,13.92-6.085,13.92-13.784
		c0-7.697-5.213-12.572-13.583-12.572c-10.087,0-13.887,7.429-13.887,13.179C280.474,32.772,284.374,39.999,294.023,39.999
		L294.023,39.999z M295.436,38.318c-6.454,0-10.32-5.546-10.32-12.541c0-8.37,4.404-10.521,8.271-10.521
		c5.512,0,9.849,4.671,9.849,12.204C303.235,37.177,297.789,38.318,295.436,38.318L295.436,38.318z"/>
	<path fill="#FDC010" d="M317.28,27.527c0-0.235,0.07-0.304,0.237-0.304c0.571,0,4.137,0,4.975,0.102
		c1.042,0.136,1.546,0.739,1.717,1.211c0.133,0.403,0.2,0.808,0.2,1.041c0,0.235,0.067,0.471,0.271,0.471
		c0.337,0,0.337-0.335,0.337-0.638c0-0.237,0.067-1.783,0.133-2.454c0.1-1.041,0.267-1.883,0.267-2.085s-0.066-0.302-0.2-0.302
		c-0.2,0-0.271,0.133-0.438,0.335c-0.337,0.438-0.808,0.573-1.445,0.606c-0.471,0.033-0.942,0.033-1.513,0.033l-4.304,0.033
		c-0.2,0-0.237-0.1-0.237-0.304V16.87c0-0.371,0.104-0.472,0.304-0.472l5.179,0.101c1.275,0.035,1.983,0.539,2.217,1.01
		c0.204,0.471,0.204,1.009,0.204,1.277c0.033,0.371,0.1,0.537,0.333,0.537c0.237,0,0.304-0.199,0.337-0.471
		c0.066-0.404,0.133-2.387,0.167-2.723c0.104-0.873,0.271-1.277,0.271-1.512c0-0.169-0.1-0.303-0.237-0.303
		c-0.167,0-0.333,0.134-0.538,0.2c-0.333,0.103-0.738,0.103-1.375,0.136c-0.775,0.033-7.6,0.033-8.878,0.033
		c-0.971,0-3.092-0.101-4.842-0.101c-0.504,0-0.771,0.067-0.771,0.336c0,0.202,0.233,0.269,0.571,0.269
		c0.471,0,1.042,0.035,1.312,0.102c1.108,0.233,1.379,0.773,1.446,1.917c0.066,1.075,0.066,2.017,0.066,7.127v5.916
		c0,3.227,0,5.748-0.167,7.16c-0.137,0.975-0.304,1.717-0.975,1.85c-0.304,0.067-0.708,0.136-1.212,0.136
		c-0.371,0-0.504,0.1-0.504,0.269c0,0.269,0.233,0.335,0.704,0.335c1.279,0,3.4-0.102,4.271-0.102c0.875,0,2.992,0.102,5.112,0.102
		c0.504,0,0.738-0.102,0.738-0.335c0-0.169-0.133-0.269-0.571-0.269c-0.471,0-1.208-0.068-1.679-0.136
		c-1.008-0.133-1.212-0.875-1.313-1.85c-0.17-1.412-0.17-3.934-0.17-7.16V27.527L317.28,27.527z"/>
</g>
</svg>
