<?xml version="1.0" encoding="utf-8"?>
<!-- Generator: Adobe Illustrator 15.1.0, SVG Export Plug-In . SVG Version: 6.00 Build 0)  -->
<!DOCTYPE svg PUBLIC "-//W3C//DTD SVG 1.1//EN" "http://www.w3.org/Graphics/SVG/1.1/DTD/svg11.dtd">
<svg version="1.1" id="Layer_1" xmlns="http://www.w3.org/2000/svg" xmlns:xlink="http://www.w3.org/1999/xlink" x="0px" y="0px"
	 width="583.772px" height="30px" viewBox="0 0 583.772 30" enable-background="new 0 0 583.772 30" xml:space="preserve">
<g>
	<path fill="#FDC010" d="M3.395,2.858c0-0.455-0.306-0.783-0.655-0.869L0.825,1.492C0.174,1.323,0,0.911,0,0.539
		C0,0.207,0.348,0,0.825,0h9.05c0.523,0,0.741,0.291,0.741,0.62c0,0.498-0.262,0.703-0.872,0.872L8.091,1.989
		C7.741,2.113,7.57,2.319,7.57,2.778v18.521c0,3.726,3.002,6.215,7.397,6.215c4.264,0,7.266-2.489,7.266-6.215V2.778
		c0-0.459-0.174-0.666-0.523-0.789l-1.654-0.497c-0.607-0.169-0.869-0.375-0.869-0.872c0-0.33,0.218-0.62,0.739-0.62h8.264
		c0.481,0,0.83,0.207,0.83,0.539c0,0.372-0.174,0.784-0.83,0.953l-1.911,0.497c-0.349,0.086-0.654,0.414-0.654,0.869v17.943
		c0,6.466-5.656,9.198-11.094,9.198C9.05,30,3.395,27.268,3.395,20.802V2.858z"/>
	<path fill="#FDC010" d="M33.131,5.818c0-0.403-0.274-0.701-0.583-0.774l-1.702-0.442c-0.581-0.147-0.733-0.515-0.733-0.847
		c0-0.294,0.308-0.477,0.733-0.477h5.068l14.854,20.294h0.076V5.744c0-0.407-0.156-0.588-0.465-0.7L48.91,4.602
		c-0.542-0.147-0.774-0.329-0.774-0.774c0-0.294,0.193-0.55,0.658-0.55h7.118c0.425,0,0.734,0.183,0.734,0.477
		c0,0.333-0.155,0.7-0.734,0.847l-1.706,0.442c-0.308,0.073-0.577,0.371-0.577,0.774v23.685h-2.359l-15.278-20.7h-0.076v18.233
		c0,0.406,0.153,0.589,0.462,0.7l1.472,0.441c0.537,0.148,0.771,0.33,0.771,0.772c0,0.294-0.193,0.553-0.654,0.553h-7.119
		c-0.425,0-0.733-0.183-0.733-0.478c0-0.335,0.152-0.699,0.733-0.848l1.702-0.441c0.309-0.075,0.583-0.37,0.583-0.776V5.818z"/>
	<path fill="#FDC010" d="M61.595,6.003c0-0.667-0.271-0.886-0.581-0.959L59.39,4.602c-0.502-0.147-0.812-0.294-0.812-0.623
		c0-0.519,0.502-0.702,1.083-0.702h7.58c0.581,0,1.083,0.183,1.083,0.702c0,0.328-0.31,0.475-0.811,0.623l-1.625,0.442
		c-0.309,0.073-0.582,0.293-0.582,0.959v20.774c0,0.665,0.272,0.884,0.582,0.959l1.625,0.441c0.501,0.148,0.811,0.295,0.811,0.624
		c0,0.519-0.502,0.701-1.083,0.701h-7.58c-0.581,0-1.083-0.183-1.083-0.701c0-0.329,0.31-0.476,0.812-0.624l1.625-0.441
		c0.31-0.075,0.581-0.294,0.581-0.959V6.003z"/>
	<path fill="#FDC010" d="M71.959,6.411c-0.385-1.034-0.618-1.33-1.392-1.55l-0.927-0.259c-0.619-0.182-0.928-0.368-0.928-0.736
		c0-0.406,0.346-0.588,0.735-0.588h8.005c0.504,0,0.774,0.256,0.774,0.515c0,0.401-0.193,0.627-0.502,0.7l-0.813,0.221
		c-1.043,0.294-1.16,0.588-1.16,0.883c0,0.258,0.116,0.515,0.193,0.735l6.306,17.867h0.077l6.459-18.123
		c0.077-0.221,0.156-0.406,0.156-0.627s-0.232-0.588-0.89-0.735l-1.123-0.221c-0.31-0.073-0.502-0.299-0.502-0.7
		c0-0.259,0.269-0.515,0.774-0.515h6.846c0.384,0,0.734,0.183,0.734,0.588c0,0.368-0.309,0.554-0.927,0.736l-1.393,0.442
		c-0.272,0.073-0.465,0.333-0.581,0.665l-8.972,24.053h-2.283L71.959,6.411z"/>
	<path fill="#FDC010" d="M98.03,6.003c0-0.667-0.27-0.886-0.582-0.959l-1.621-0.442c-0.505-0.147-0.813-0.294-0.813-0.623
		c0-0.519,0.501-0.702,1.083-0.702h16.671l0.384,3.608c0.041,0.294,0.041,0.589,0.041,0.882c0,0.444-0.349,0.922-0.851,0.922
		c-0.31,0-0.618-0.182-0.851-0.697l-0.967-2.028c-0.156-0.294-0.391-0.477-0.811-0.477h-7.969v9.501h6.689
		c0.581,0,0.967-0.147,1.123-0.697l0.425-1.401c0.116-0.407,0.349-0.627,0.774-0.627c0.618,0,0.851,0.147,0.851,0.774v6.117
		c0,0.623-0.232,0.77-0.851,0.77c-0.425,0-0.658-0.221-0.774-0.624l-0.425-1.401c-0.156-0.554-0.542-0.701-1.123-0.701h-6.689v9.283
		c0,0.519,0.309,0.813,0.851,0.813h7.038c0.425,0,0.774-0.294,1.006-0.587l1.974-2.804c0.229-0.332,0.537-0.589,1.004-0.589
		c0.348,0,0.734,0.404,0.734,0.736s-0.117,0.736-0.234,1.214l-1.079,4.237H96.096c-0.582,0-1.083-0.183-1.083-0.701
		c0-0.329,0.309-0.476,0.813-0.624l1.621-0.441c0.313-0.075,0.582-0.294,0.582-0.959V6.003z"/>
	<path fill="#FDC010" d="M119.535,6.003c0-0.667-0.27-0.886-0.579-0.959l-1.625-0.442c-0.505-0.147-0.813-0.294-0.813-0.623
		c0-0.519,0.5-0.702,1.083-0.702h9.052c5.532,0,8.47,2.431,8.47,7.147c0,2.833-2.285,5.671-5.185,6.702l5.34,10.057
		c0.158,0.294,0.349,0.441,0.658,0.553l1.353,0.441c0.89,0.26,1.083,0.406,1.083,0.807c0,0.371-0.348,0.519-0.695,0.519h-5.455
		L126.15,17.9h-2.901v8.877c0,0.665,0.153,0.848,0.463,0.959l1.471,0.441c0.542,0.148,0.77,0.33,0.77,0.772
		c0,0.294-0.191,0.553-0.654,0.553h-7.699c-0.583,0-1.083-0.183-1.083-0.701c0-0.329,0.309-0.476,0.813-0.624l1.625-0.441
		c0.309-0.075,0.579-0.294,0.579-0.959V6.003z M123.25,15.69h2.401c2.975,0,5.76-1.583,5.76-5.23c0-3.093-1.473-4.971-5.223-4.971
		h-2.938V15.69z"/>
	<path fill="#FDC010" d="M138.914,24.014c-0.04-0.256-0.04-0.588-0.04-0.81c0-0.663,0.233-0.995,0.814-0.995
		c0.583,0,0.774,0.442,1.044,0.995l1.392,2.802c0.542,1.134,1.467,1.73,3.947,1.73c2.668,0,5.22-1.878,5.22-4.86
		c0-1.55-1.316-3.098-2.552-3.799l-5.416-3.093c-2.591-1.473-4.061-3.353-4.061-6.225c0-4.862,4.41-6.922,8.122-6.922
		c2.05,0,4.449,0.402,6.266,1.397l0.349,3.5c0.041,0.259,0.041,0.588,0.041,0.809c0,0.661-0.43,0.995-0.931,0.995
		c-0.541,0-0.851-0.368-1.12-0.995l-0.814-1.951c-0.465-1.068-1.857-1.548-3.635-1.548c-2.399,0-4.799,1.327-4.799,3.867
		c0,1.514,1.084,3.059,2.825,4.014l5.339,2.912c2.436,1.328,4.101,3.465,4.101,6.299c0,4.017-3.984,7.809-8.899,7.809
		c-2.167,0-4.718-0.374-6.576-1.472L138.914,24.014z"/>
	<path fill="#FDC010" d="M160.495,6.003c0-0.667-0.269-0.886-0.578-0.959l-1.625-0.442c-0.501-0.147-0.814-0.294-0.814-0.623
		c0-0.519,0.506-0.702,1.084-0.702h7.583c0.582,0,1.083,0.183,1.083,0.702c0,0.328-0.309,0.475-0.814,0.623l-1.621,0.442
		c-0.313,0.073-0.582,0.293-0.582,0.959v20.774c0,0.665,0.27,0.884,0.582,0.959l1.621,0.441c0.505,0.148,0.814,0.295,0.814,0.624
		c0,0.519-0.501,0.701-1.083,0.701h-7.583c-0.578,0-1.084-0.183-1.084-0.701c0-0.329,0.313-0.476,0.814-0.624l1.625-0.441
		c0.309-0.075,0.578-0.294,0.578-0.959V6.003z"/>
	<path fill="#FDC010" d="M177.711,5.488h-4.414c-0.462,0-0.654,0.147-0.85,0.477l-1.276,2.322c-0.27,0.516-0.579,0.81-1.2,0.81
		c-0.502,0-0.888-0.368-0.888-0.957c0-0.44,0.077-0.885,0.153-1.328l0.658-3.535h19.339l0.658,3.535
		c0.076,0.442,0.156,0.888,0.156,1.328c0,0.588-0.388,0.957-0.89,0.957c-0.618,0-0.927-0.294-1.199-0.81l-1.276-2.322
		c-0.193-0.33-0.386-0.477-0.851-0.477h-4.409v21.289c0,0.665,0.274,0.884,0.577,0.959l1.631,0.441c0.5,0.148,0.81,0.295,0.81,0.624
		c0,0.519-0.502,0.701-1.083,0.701h-7.578c-0.583,0-1.084-0.183-1.084-0.701c0-0.329,0.308-0.476,0.81-0.624l1.625-0.441
		c0.309-0.075,0.583-0.294,0.583-0.959V5.488z"/>
	<path fill="#FDC010" d="M199.561,18.674l-6.11-12.303c-0.502-0.994-0.735-1.215-1.044-1.327l-1.16-0.442
		c-0.774-0.294-1.163-0.368-1.163-0.736c0-0.406,0.388-0.588,0.774-0.588h7.503c0.425,0,0.774,0.22,0.774,0.55
		c0,0.333-0.153,0.518-0.892,0.774l-0.693,0.259c-0.349,0.183-0.386,0.367-0.386,0.516c0,0.185,0.153,0.479,0.229,0.662l4.525,9.283
		l4.256-8.951c0.309-0.627,0.426-0.921,0.426-1.068c0-0.259-0.272-0.479-0.735-0.588l-0.465-0.112
		c-0.698-0.147-1.007-0.408-1.007-0.774c0-0.294,0.196-0.55,0.733-0.55h6.849c0.542,0,0.774,0.183,0.774,0.588
		c0,0.368-0.309,0.588-1.083,0.736l-0.542,0.112c-0.735,0.147-1.083,0.33-1.432,0.994l-6.42,12.966v8.103
		c0,0.665,0.153,0.848,0.462,0.959l1.356,0.441c0.502,0.183,0.89,0.33,0.89,0.772c0,0.294-0.195,0.553-0.658,0.553h-7.814
		c-0.463,0-0.659-0.259-0.659-0.553c0-0.442,0.389-0.59,0.891-0.772l1.355-0.441c0.309-0.111,0.462-0.294,0.462-0.959V18.674z"/>
	<path fill="#FDC010" d="M228.88,3.066c0-0.747-0.305-0.991-0.654-1.077l-1.829-0.497c-0.563-0.169-0.913-0.333-0.913-0.705
		c0-0.581,0.567-0.788,1.218-0.788h8.527c0.654,0,1.221,0.207,1.221,0.788c0,0.372-0.349,0.536-0.916,0.705l-1.829,0.497
		c-0.346,0.086-0.651,0.33-0.651,1.077v9.859h13.053V3.066c0-0.747-0.305-0.991-0.654-1.077l-1.825-0.497
		c-0.566-0.169-0.916-0.333-0.916-0.705c0-0.581,0.567-0.788,1.217-0.788h8.53c0.651,0,1.218,0.207,1.218,0.788
		c0,0.372-0.349,0.536-0.916,0.705l-1.825,0.497c-0.349,0.086-0.654,0.33-0.654,1.077v23.369c0,0.749,0.305,0.995,0.654,1.079
		l1.825,0.497c0.566,0.167,0.916,0.329,0.916,0.704c0,0.581-0.567,0.788-1.218,0.788h-8.53c-0.65,0-1.217-0.207-1.217-0.788
		c0-0.375,0.349-0.537,0.916-0.704l1.825-0.497c0.349-0.084,0.654-0.33,0.654-1.079V15.911h-13.053v10.523
		c0,0.749,0.305,0.995,0.651,1.079l1.829,0.497c0.566,0.167,0.916,0.329,0.916,0.704c0,0.581-0.567,0.788-1.221,0.788h-8.527
		c-0.651,0-1.218-0.207-1.218-0.788c0-0.375,0.349-0.537,0.913-0.704l1.829-0.497c0.349-0.084,0.654-0.33,0.654-1.079V3.066z"/>
	<path fill="#FDC010" d="M269.212,2.837c8.124,0,12.919,6.039,12.919,13.553c0,7.256-5.416,13.555-12.919,13.555
		c-8.121,0-12.919-6.04-12.919-13.555C256.293,9.136,261.709,2.837,269.212,2.837z M269.212,27.736
		c4.526,0,8.742-3.905,8.742-11.347c0-7.332-3.559-11.346-8.742-11.346c-4.525,0-8.742,3.906-8.742,11.346
		C260.47,23.72,264.029,27.736,269.212,27.736z"/>
	<path fill="#FDC010" d="M286.89,5.818c0-0.403-0.272-0.701-0.581-0.774l-1.702-0.442c-0.582-0.147-0.735-0.515-0.735-0.847
		c0-0.294,0.31-0.477,0.735-0.477h8.045c0.464,0,0.658,0.256,0.658,0.55c0,0.445-0.232,0.626-0.774,0.774l-1.469,0.442
		c-0.309,0.112-0.464,0.293-0.464,0.7v16.465c0,3.313,2.671,5.527,6.576,5.527c3.791,0,6.459-2.214,6.459-5.527V5.744
		c0-0.407-0.154-0.588-0.466-0.7l-1.468-0.442c-0.542-0.147-0.774-0.329-0.774-0.774c0-0.294,0.196-0.55,0.658-0.55h7.35
		c0.425,0,0.734,0.183,0.734,0.477c0,0.333-0.152,0.7-0.734,0.847l-1.702,0.442c-0.309,0.073-0.581,0.371-0.581,0.774v15.949
		c0,5.746-5.028,8.177-9.862,8.177c-4.875,0-9.902-2.431-9.902-8.177V5.818z"/>
	<path fill="#FDC010" d="M311.295,24.014c-0.04-0.256-0.04-0.588-0.04-0.81c0-0.663,0.232-0.995,0.813-0.995
		c0.579,0,0.774,0.442,1.043,0.995l1.392,2.802c0.542,1.134,1.468,1.73,3.944,1.73c2.671,0,5.224-1.878,5.224-4.86
		c0-1.55-1.316-3.098-2.553-3.799l-5.416-3.093c-2.592-1.473-4.061-3.353-4.061-6.225c0-4.862,4.409-6.922,8.121-6.922
		c2.05,0,4.449,0.402,6.267,1.397l0.349,3.5c0.037,0.259,0.037,0.588,0.037,0.809c0,0.661-0.425,0.995-0.927,0.995
		c-0.542,0-0.851-0.368-1.124-0.995l-0.811-1.951c-0.464-1.068-1.857-1.548-3.635-1.548c-2.398,0-4.797,1.327-4.797,3.867
		c0,1.514,1.083,3.059,2.824,4.014l5.34,2.912c2.435,1.328,4.097,3.465,4.097,6.299c0,4.017-3.984,7.809-8.895,7.809
		c-2.167,0-4.718-0.374-6.576-1.472L311.295,24.014z"/>
	<path fill="#FDC010" d="M332.876,6.003c0-0.667-0.269-0.886-0.579-0.959l-1.625-0.442c-0.506-0.147-0.813-0.294-0.813-0.623
		c0-0.519,0.504-0.702,1.083-0.702h7.582c0.578,0,1.083,0.183,1.083,0.702c0,0.328-0.31,0.475-0.813,0.623l-1.625,0.442
		c-0.309,0.073-0.579,0.293-0.579,0.959v20.774c0,0.665,0.27,0.884,0.579,0.959l1.625,0.441c0.504,0.148,0.813,0.295,0.813,0.624
		c0,0.519-0.505,0.701-1.083,0.701h-7.582c-0.579,0-1.083-0.183-1.083-0.701c0-0.329,0.308-0.476,0.813-0.624l1.625-0.441
		c0.31-0.075,0.579-0.294,0.579-0.959V6.003z"/>
	<path fill="#FDC010" d="M344.559,5.818c0-0.403-0.272-0.701-0.581-0.774l-1.701-0.442c-0.581-0.147-0.734-0.515-0.734-0.847
		c0-0.294,0.309-0.477,0.734-0.477h5.067l14.853,20.294h0.078V5.744c0-0.407-0.159-0.588-0.463-0.7l-1.472-0.442
		c-0.542-0.147-0.774-0.329-0.774-0.774c0-0.294,0.195-0.55,0.658-0.55h7.117c0.425,0,0.736,0.183,0.736,0.477
		c0,0.333-0.158,0.7-0.736,0.847l-1.704,0.442c-0.308,0.073-0.578,0.371-0.578,0.774v23.685H362.7l-15.279-20.7h-0.077v18.233
		c0,0.406,0.153,0.589,0.465,0.7l1.469,0.441c0.542,0.148,0.774,0.33,0.774,0.772c0,0.294-0.197,0.553-0.658,0.553h-7.117
		c-0.425,0-0.734-0.183-0.734-0.478c0-0.335,0.153-0.699,0.734-0.848l1.701-0.441c0.309-0.075,0.581-0.37,0.581-0.776V5.818z"/>
	<path fill="#FDC010" d="M392.018,9.759c0,0.885-0.544,1.068-1.118,1.068c-0.662,0-1.011-0.294-1.243-0.957l-1.004-2.69
		c-0.581-1.545-2.167-2.137-4.486-2.137c-6.499,0-9.827,4.789-9.827,11.346c0,7.33,3.561,11.347,8.744,11.347
		c2.166,0.071,4.333-0.813,5.606-1.695v-5.489c0-0.294-0.153-0.406-0.386-0.479l-1.738-0.663c-0.35-0.147-0.627-0.48-0.627-0.774
		c0-0.441,0.234-0.663,0.742-0.663h8.203c0.499,0,0.732,0.221,0.732,0.663c0,0.294-0.274,0.554-0.615,0.666l-1.862,0.697
		c-0.35,0.112-0.502,0.333-0.502,0.701v5.861c-2.246,2.171-5.802,3.42-9.517,3.384c-8.158,0-12.956-6.04-12.956-13.555
		c0-7.254,5.648-13.553,13.458-13.553c3.635,0,5.96,0.991,8.396,2.578V9.759z"/>
	<path fill="#FDC010" d="M424.631,27.139c-2.261,1.827-4.181,2.778-7.092,2.778c-4.433,0-9.003-2.984-9.003-7.665
		c0-4.229,3.435-7.458,6.608-9.82c-1.61-2.364-2.523-4.144-2.523-6.299c0-3.275,2.349-6.133,6.354-6.133
		c2.921,0,5.569,1.741,5.569,4.976c0,2.359-1.436,4.308-5.047,7.457l6.267,9.692c0.779-1.406,1.564-3.561,1.564-5.135
		c0-0.581-0.478-0.872-1.088-1.078l-1.298-0.372c-0.527-0.125-0.835-0.332-0.835-0.872c0-0.621,0.483-0.621,1.437-0.621h6.701
		c0.564,0,0.872,0.084,0.872,0.747c0,0.414-0.569,0.621-0.909,0.746l-1.875,0.663c-0.309,0.122-0.349,0.375-0.396,0.663
		c-0.174,1.492-0.436,2.819-0.825,3.854c-0.436,1.244-1.087,2.57-1.825,3.729l1.563,2.53c0.262,0.412,0.523,0.659,1.046,0.787
		l1.738,0.497c0.436,0.123,0.523,0.369,0.523,0.704c0,0.37-0.261,0.537-0.738,0.537h-5.13L424.631,27.139z M416.626,14.878
		c-2.046,1.445-4.44,4.346-4.44,7.002c0,3.063,2.656,5.304,5.702,5.304c2,0,3.91-0.749,5.355-2.113L416.626,14.878z M418.016,10.235
		c2.831-2.652,3.656-3.814,3.656-5.138c0-1.577-1.222-2.858-2.871-2.858c-1.738,0-3.046,1.366-3.046,3.023
		C415.755,6.589,416.103,7.665,418.016,10.235z"/>
	<path fill="#FDC010" d="M450.786,3.066c0-0.747-0.308-0.991-0.647-1.077l-1.834-0.497c-0.564-0.169-0.912-0.333-0.912-0.705
		c0-0.581,0.563-0.788,1.223-0.788h10.74c9.533,0,14.793,7.335,14.793,14.624c0,8.664-6.266,14.879-14.707,14.879h-10.826
		c-0.659,0-1.223-0.207-1.223-0.788c0-0.375,0.348-0.537,0.912-0.704l1.834-0.497c0.34-0.084,0.647-0.33,0.647-1.079V3.066z
		 M454.96,26.105c0,0.581,0.348,0.91,0.958,0.91h3.744c5.916,0,9.788-5.22,9.788-12.429c0-8.288-5.092-12.1-10.271-12.1h-4.22
		V26.105z"/>
	<path fill="#FDC010" d="M480.885,6.003c0-0.667-0.27-0.886-0.581-0.959l-1.622-0.442c-0.503-0.147-0.814-0.294-0.814-0.623
		c0-0.519,0.502-0.702,1.083-0.702h7.583c0.581,0,1.083,0.183,1.083,0.702c0,0.328-0.312,0.475-0.813,0.623l-1.622,0.442
		c-0.312,0.073-0.581,0.293-0.581,0.959v20.774c0,0.665,0.27,0.884,0.581,0.959l1.622,0.441c0.502,0.148,0.813,0.295,0.813,0.624
		c0,0.519-0.502,0.701-1.083,0.701h-7.583c-0.581,0-1.083-0.183-1.083-0.701c0-0.329,0.312-0.476,0.814-0.624l1.622-0.441
		c0.312-0.075,0.581-0.294,0.581-0.959V6.003z"/>
	<path fill="#FDC010" d="M492.568,5.818c0-0.403-0.27-0.701-0.581-0.774l-1.701-0.442c-0.581-0.147-0.734-0.515-0.734-0.847
		c0-0.294,0.313-0.477,0.734-0.477h5.066l14.854,20.294h0.079V5.744c0-0.407-0.158-0.588-0.465-0.7l-1.469-0.442
		c-0.544-0.147-0.776-0.329-0.776-0.774c0-0.294,0.195-0.55,0.66-0.55h7.118c0.422,0,0.733,0.183,0.733,0.477
		c0,0.333-0.158,0.7-0.733,0.847l-1.699,0.442c-0.315,0.073-0.585,0.371-0.585,0.774v23.685h-2.36l-15.276-20.7h-0.08v18.233
		c0,0.406,0.154,0.589,0.466,0.7l1.469,0.441c0.547,0.148,0.771,0.33,0.771,0.772c0,0.294-0.19,0.553-0.655,0.553h-7.117
		c-0.421,0-0.734-0.183-0.734-0.478c0-0.335,0.153-0.699,0.734-0.848l1.701-0.441c0.312-0.075,0.581-0.37,0.581-0.776V5.818z"/>
	<path fill="#FDC010" d="M521.038,6.003c0-0.667-0.274-0.886-0.581-0.959l-1.627-0.442c-0.503-0.147-0.81-0.294-0.81-0.623
		c0-0.519,0.502-0.702,1.083-0.702h7.577c0.581,0,1.083,0.183,1.083,0.702c0,0.328-0.307,0.475-0.808,0.623l-1.628,0.442
		c-0.306,0.073-0.581,0.293-0.581,0.959v20.774c0,0.665,0.275,0.884,0.581,0.959l1.628,0.441c0.501,0.148,0.808,0.295,0.808,0.624
		c0,0.519-0.502,0.701-1.083,0.701h-7.577c-0.581,0-1.083-0.183-1.083-0.701c0-0.329,0.307-0.476,0.81-0.624l1.627-0.441
		c0.307-0.075,0.581-0.294,0.581-0.959V6.003z"/>
	<path fill="#FDC010" d="M532.714,5.818c0-0.403-0.27-0.701-0.584-0.774l-1.699-0.442c-0.575-0.147-0.734-0.515-0.734-0.847
		c0-0.294,0.313-0.477,0.734-0.477h5.067l14.853,20.294h0.08V5.744c0-0.407-0.154-0.588-0.466-0.7l-1.468-0.442
		c-0.537-0.147-0.771-0.329-0.771-0.774c0-0.294,0.19-0.55,0.655-0.55h7.116c0.432,0,0.735,0.183,0.735,0.477
		c0,0.333-0.154,0.7-0.735,0.847l-1.701,0.442c-0.312,0.073-0.581,0.371-0.581,0.774v23.685h-2.364l-15.273-20.7h-0.079v18.233
		c0,0.406,0.158,0.589,0.465,0.7l1.47,0.441c0.544,0.148,0.776,0.33,0.776,0.772c0,0.294-0.195,0.553-0.66,0.553h-7.118
		c-0.422,0-0.734-0.183-0.734-0.478c0-0.335,0.159-0.699,0.734-0.848l1.699-0.441c0.314-0.075,0.584-0.37,0.584-0.776V5.818z"/>
	<path fill="#FDC010" d="M580.173,9.759c0,0.885-0.539,1.068-1.12,1.068c-0.663,0-1.004-0.294-1.237-0.957l-1.008-2.69
		c-0.576-1.545-2.168-2.137-4.486-2.137c-6.5,0-9.822,4.789-9.822,11.346c0,7.33,3.556,11.347,8.738,11.347
		c2.167,0.071,4.334-0.813,5.611-1.695v-5.489c0-0.294-0.158-0.406-0.393-0.479l-1.736-0.663c-0.349-0.147-0.618-0.48-0.618-0.774
		c0-0.441,0.232-0.663,0.734-0.663h8.2c0.502,0,0.735,0.221,0.735,0.663c0,0.294-0.271,0.554-0.619,0.666l-1.853,0.697
		c-0.351,0.112-0.509,0.333-0.509,0.701v5.861c-2.24,2.171-5.801,3.42-9.511,3.384c-8.164,0-12.961-6.04-12.961-13.555
		c0-7.254,5.648-13.553,13.463-13.553c3.635,0,5.955,0.991,8.391,2.578V9.759z"/>
</g>
</svg>
