<?xml version="1.0" encoding="utf-8"?>
<!-- Generator: Adobe Illustrator 15.1.0, SVG Export Plug-In . SVG Version: 6.00 Build 0)  -->
<!DOCTYPE svg PUBLIC "-//W3C//DTD SVG 1.1//EN" "http://www.w3.org/Graphics/SVG/1.1/DTD/svg11.dtd">
<svg version="1.1" id="Layer_1" xmlns="http://www.w3.org/2000/svg" xmlns:xlink="http://www.w3.org/1999/xlink" x="0px" y="0px"
	 width="530.322px" height="40px" viewBox="-51.87 -3.913 530.322 40" enable-background="new -51.87 -3.913 530.322 40"
	 xml:space="preserve">
<path fill="#FFC000" d="M278.27,20.892c0.593-0.884,1.289-2.002,2.117-3.243c1.238-1.94,2.239-3.353,3.239-4.882
	c1.063-1.477,2.128-3.007,4.239-5.184h-7.944l-0.888,1.943h1.293c0.944,0,1.18,0.234,1.242,0.645c0.056,0.476,0,1.594-1.003,3.007
	l-4.889,7.126l-7.19-12.721h-0.16h-6.08h-19.123l-0.598,5.95h2.36l0.235-1.356c0.061-0.768,0.354-1.121,1.122-1.651
	c1.233-0.821,4.354-0.882,6.831-0.882v21.677c0,1.001-0.06,1.642-0.354,2.531c-0.176,0.354-0.354,1.118-0.819,1.471h8.768
	l0.712-1.882h-1.299c-0.997,0-1.712-0.18-2.299-0.828c-0.287-0.291-0.349-1.008-0.349-1.769V9.641c1.296,0,5.771-0.061,6.653,0.768
	c1.185,1.116,2.882,3.588,2.882,3.588c0.583,0.986,1.24,2.059,1.882,3.064c1.702,2.651,2.818,4.593,3.712,6.779v7.069
	c0,0.998,0.053,2.052-0.3,2.942c-0.177,0.529-0.652,1.001-1.002,1.472h8.835l0.765-1.942h-1.299c-0.999,0-1.763-0.177-2.295-0.769
	c-0.289-0.351-0.352-1.006-0.352-1.822c0,0-0.119-6.599-0.063-7.427C277.203,22.544,277.682,21.776,278.27,20.892z"/>
<path fill="#FFC000" d="M221.885,19.271l-2.823-1.234c-2.828-1.243-5.357-2.598-5.009-5.128c0.709-4.709,10.959-5.302,10.016,0.712
	h2.593l1.293-5.539c-2.238-0.649-4.717-1.064-7.536-1.064c-5.894,0.063-11.191,2.831-10.664,7.602
	c0.36,3.358,3.127,5.003,6.36,6.422l2.895,1.295c3.239,1.47,5.881,2.769,5.824,5.655c-0.11,3.12-3.061,5.265-6.89,5.299
	c-5.406,0.045-7.153-1.697-7.153-1.697c-0.083-0.082-10.28-11.202-10.28-11.202c3.884-0.768,6.832-3.418,6.659-7.009
	c-0.126-4.417-5.128-6.008-9.434-5.95l-11.482,0.061l-0.762,1.818h1.061c0.762,0,1.238,0.122,1.641,0.655
	c0.655,0.647,0.775,2.417,0.775,4.242v17.55c0,1.353-0.358,2.412-1.177,3.473h8.125l0.708-1.941h-1.173
	c-1.652,0-2.126-0.884-2.126-2.236l-0.06-21.322c4.422-0.768,9.13,0.587,9.13,4.534c0,3.12-3.18,5.182-8.123,5.419l13.489,15.488
	c0,0,7.492,0.546,9.717,0.589c6.363,0.119,11.78-3.593,11.717-9.011C229.192,22.743,225.655,20.922,221.885,19.271z"/>
<path fill="#FFC000" d="M-20.24,4.567h-2.593l0.241-1.175c0.227-1.533,0.054-2.651-1.006-3.829
	c-1.295-1.413-6.242-1.181-9.544-1.298v31.102c0,1.18,0.116,2.297,0.593,2.889c0.884,1.001,1.998,1.233,3.359,1.233h1.176
	l-0.705,2.004h-10.492c0.414-0.531,0.712-1.063,0.884-1.647c0.473-1.357,0.536-2.358,0.536-3.833l0.057-31.747
	c-3.363,0-7.835,0.06-9.717,1.355c-1.067,0.824-1.531,1.472-1.659,2.651l-0.229,1.586h-2.531l0.875-7.77h32.226L-20.24,4.567z"/>
<path fill="#FFC000" d="M8.087,35.313H0.252c0.59-1.352,0.706-1.878,0.706-3.296V20.413c-1.176,0.826-2.534,0.944-3.946,1.057
	c-1.238,0.062-2.706,0.12-4.061,0.179c-2.418,0.175-3.708,0.175-6.008,0.122v9.364c0,1.588,0.589,2.3,2.356,2.3h1.12l-0.646,1.938
	h-8.249c0.656-1.172,0.944-2.176,1.061-3.534c0.06-0.527,0.06-1.054,0.06-1.769V13.289c0-0.943,0.172-2.541-0.465-3.305
	c-0.48-0.469-1.01-0.469-1.894-0.469h-1.001l0.762-1.887h7.485c-0.237,0.587-0.352,0.708-0.414,1.121
	c-0.113,0.766-0.175,2.764-0.175,3.651v6.656H0.958l-0.056-5.769c0-0.943,0.115-2.478-0.53-3.242
	c-0.416-0.474-1.001-0.53-1.829-0.53h-1.065l0.833-1.886h7.537C5.673,8.338,5.554,8.338,5.494,8.751
	c-0.179,0.822-0.232,2.764-0.232,3.651v18.787c0,1.534,0.587,2.246,2.412,2.246h1.18L8.087,35.313z"/>
<path fill="#FFC000" d="M31.175,35.313l-19.671,0.06c0.412-0.533,0.826-1.118,1.001-1.766c0.294-1.118,0.232-2.059,0.232-3.239
	V14.405c0-0.881,0-3.122-0.407-3.888c-0.474-0.767-0.944-1.058-1.885-1.058H9.444l0.709-1.829c0,0,19.432-0.055,20.379,0L29.71,13.7
	h-2.478c0.12-1.476-0.119-2.359-0.941-3.184c-0.828-0.824-3.418-1.001-5.896-1.001c-1.293,0-2.117,0.056-3.293,0.295v9.309h11.131
	c-0.705,1.885-2.12,2.296-4.065,2.529c-0.826,0.062-1.652,0.122-2.593,0.176c-1.765,0.121-2.828,0.062-4.473,0.062v8.126
	c0,0.944,0.345,2.064,0.644,2.415c0.533,0.594,2.474,0.77,4.538,0.77c2.174,0,3.884,0,5.244-1.419
	c0.881-0.882,1.289-1.59,1.528-3.061h2.828L31.175,35.313z"/>
<path fill="#FFC000" d="M85.716,35.372h-8.955l-0.056-3.534c-6.128,3.18-12.018,5.479-18.789,3.534
	c-7.775-2.236-7.365-11.539-7.421-19.729c-0.06-6.303,1.584-13.958,0.47-16.024c-0.529-0.942-1.59-1.529-2.823-1.529h-1.001
	l0.465-2.003h9.838c-0.47,0.766-0.527,1.237-0.702,2.003c-0.534,2.591-1.59,11.779-1.531,18.438
	c0.054,7.305,0.583,13.896,6.95,15.726c5.533,1.525,10.127,0.059,14.43-2.769V2.799c0-1.588,0-2.881-1.185-3.823
	c-0.888-0.768-1.709-0.886-2.817-0.886H72l0.465-2.003h9.835c-0.474,0.878-0.646,1.41-0.879,2.356
	c-0.419,1.651-0.241,2.65-0.241,4.356v24.917c0,2.004-0.06,3.707,1.593,4.89c0.947,0.649,1.709,0.828,2.824,0.828h0.708
	L85.716,35.372z"/>
<path fill="#FFC000" d="M114.988,9.75c-0.232,0.767-0.348,3.184-0.348,4.124l-0.061,21.498h-3.416
	c-0.119-1.172-0.47-1.411-1.06-2.352c-0.529-0.831-1.003-1.597-1.591-2.236L93.318,13.051v15.433c0,1.653,0.232,3.706,0.527,4.059
	c0.589,0.654,1.293,0.894,2.001,0.894l1.123,0.054l-0.651,1.885h-7.772c0.59-0.534,1.054-1.233,1.292-1.885
	c0.59-1.59,0.53-2.352,0.59-4.002l0.06-16.019c0-0.888,0-2.656-0.707-3.42c-0.414-0.474-1.002-0.587-1.825-0.587h-1.061l0.769-1.83
	h7.772c0.412,1.415,1.298,2.356,2.474,3.83l13.838,16.314V13.936c0-1.591-0.053-3.125-0.702-3.831
	c-0.417-0.473-1.004-0.647-1.829-0.647h-1.001l0.649-1.83h7.064C115.524,8.395,115.106,9.34,114.988,9.75z"/>
<path fill="#FFC000" d="M130.004,35.372h-8.656c0.298-0.469,0.708-0.943,0.888-1.411c0.354-0.94,0.412-1.593,0.412-2.593V12.279
	c0-0.874,0-1.531-0.47-2.056c-0.471-0.473-0.947-0.765-1.647-0.765h-0.947l0.646-1.83h7.9c-0.476,0.466-0.59,0.943-0.825,1.415
	c-0.361,0.767-0.361,2.18-0.361,3.653v18.2c0,0.767,0.182,1.472,0.42,1.826c0.585,0.588,1.114,0.712,2.118,0.712h1.289
	L130.004,35.372z"/>
<path fill="#FFC000" d="M155.275,14.757c-1.054,2.183-1.939,4.419-3.231,7.302c-2.132,4.715-4.305,10.253-4.425,13.495h-3.585
	c-0.417-2.534-2.775-8.901-4.949-14.258c-1.709-4.3-4.538-9.661-5.365-10.602c-0.589-0.647-1.238-1.235-2.12-1.235h-0.995
	l0.525-1.77l7.013-0.059l8.535,20.968l6.364-15.255c0.47-1.176,0.703-2.237,0.47-2.769c-0.292-0.649-0.881-1.116-1.709-1.116h-1.12
	l0.476-1.77h8.541C157.457,10.576,156.334,12.579,155.275,14.757z"/>
<path fill="#FFC000" d="M182.905,35.313l-19.671,0.06c0.405-0.533,0.819-1.118,0.995-1.766c0.297-1.118,0.233-2.059,0.233-3.239
	V14.405c0-0.881,0-3.122-0.408-3.888c-0.474-0.767-0.944-1.058-1.879-1.058h-1.006l0.703-1.829c0,0,19.438-0.055,20.379,0
	l-0.822,6.07h-2.472c0.113-1.476-0.123-2.359-0.945-3.184c-0.819-0.824-3.421-1.001-5.893-1.001c-1.293,0-2.114,0.056-3.299,0.295
	v9.309h11.131c-0.702,1.885-2.117,2.296-4.059,2.529c-0.826,0.062-1.653,0.122-2.588,0.176c-1.771,0.121-2.834,0.062-4.484,0.062
	v8.126c0,0.944,0.36,2.064,0.655,2.415c0.53,0.594,2.465,0.77,4.535,0.77c2.177,0,3.886,0,5.238-1.419
	c0.884-0.882,1.298-1.59,1.527-3.061h2.833L182.905,35.313z"/>
<path fill="#FFC000" d="M241.746,35.372h-8.656c0.289-0.469,0.705-0.943,0.881-1.411c0.355-0.94,0.414-1.593,0.414-2.593V12.279
	c0-0.874,0-1.531-0.467-2.056c-0.479-0.473-0.949-0.765-1.651-0.765h-0.944l0.646-1.83h7.898c-0.47,0.466-0.59,0.943-0.827,1.415
	c-0.348,0.767-0.348,2.18-0.348,3.653v18.2c0,0.767,0.17,1.472,0.406,1.826c0.584,0.588,1.12,0.712,2.124,0.712h1.295
	L241.746,35.372z"/>
<path fill="#FFC000" d="M326.373,19.765c1.241,6.242-1.885,12.547-8.537,13.722c-6.772,1.24-12.133-3.829-13.364-10.19
	c-1.188-6.242,1.405-12.72,8.233-13.904C319.541,8.276,325.2,13.466,326.373,19.765z M331.325,19.706
	c-1.067-8.07-8.011-13.665-17.845-12.31c-9.433,1.295-14.909,7.773-13.78,16.258c1.049,8.069,7.588,13.364,17.25,12.131
	C326.553,34.607,332.379,27.772,331.325,19.706z"/>
<path fill="#FFC000" d="M351.88,13.756h-2.475c0-1.237-0.12-2.351-1.001-3.18c-0.762-0.826-2.949-1.003-5.185-1.003
	c-1.298,0-2.123,0.061-3.301,0.295v9.307h11.077c-0.238,0.649-0.644,1.77-1.411,2.062c-1.126,0.473-3.066,0.587-5.072,0.649
	c-1.765,0.059-2.941,0.113-4.594,0v8.715c0,0.944,0.351,1.885,0.708,2.239c0.298,0.295,1.066,0.646,1.947,0.646
	c0.291,0.06,1.057-0.053,1.352-0.053c-0.295,0.994-0.583,1.938-0.583,1.938h-9.017c0.409-0.534,0.825-1.119,1.004-1.766
	c0.289-1.119,0.235-2.005,0.235-3.185V14.466c0-0.888,0.054-3.3-0.352-4.066c-0.479-0.707-1.126-0.94-2.066-0.94h-1.001l0.768-1.829
	c0,0,18.726,0.059,19.851,0L351.88,13.756z"/>
<path fill="#FFC000" d="M380.562,35.372h-10.484c0.357-0.533,0.702-0.997,0.888-1.593c0.464-1.411,0.529-2.355,0.529-3.829
	l0.06-27.679c0-1.178,0-2.243-0.773-3.12c-0.644-0.708-1.408-1.062-2.471-1.062h-0.703l0.583-2.003h9.434
	c-0.297,0.468-0.542,0.645-0.834,1.355c-0.533,1.235-0.644,3.359-0.644,5.538v26.323c0,1.119,0.11,2.242,0.59,2.833
	c0.888,1,2.001,1.298,3.354,1.298h1.179L380.562,35.372z"/>
<path fill="#FFC000" d="M408.067,19.765c1.239,6.242-1.882,12.547-8.537,13.722c-6.773,1.24-12.135-3.829-13.373-10.19
	c-1.18-6.242,1.418-12.72,8.245-13.904C401.242,8.276,406.889,13.466,408.067,19.765z M413.019,19.706
	c-1.059-8.07-8.011-13.665-17.849-12.31c-9.429,1.295-14.908,7.773-13.776,16.258c1.062,8.069,7.594,13.364,17.254,12.131
	C408.247,34.607,414.077,27.772,413.019,19.706z"/>
<path fill="#FFC000" d="M451.12,14.701c-1.054,2.117-1.996,4.419-3.232,7.245c-2.115,4.77-3.714,10.308-3.831,13.485H440.4
	c-0.41-2.476-2.464-8.07-4.473-13.606c-0.298-0.879-0.708-2.117-1.179-3.116c-0.59,1.118-0.994,1.877-2.06,4.295
	c-2.063,4.771-3.598,9.252-3.71,12.427h-3.716c-0.406-2.475-2.761-8.891-4.949-14.192c-1.697-4.298-4.526-9.723-5.354-10.601
	c-0.59-0.65-1.233-1.177-2.12-1.177h-0.947l0.596-1.83h7.129l8.069,21.087c1.233-2.71,5.59-12.662,5.532-12.783
	c-0.995-2.711-2.119-4.769-2.593-5.298c-0.647-0.65-1.232-1.177-2.18-1.177h-0.999l0.649-1.83h7.182
	c2.237,5.949,5.652,15.436,7.48,20.73l5.83-14.542c0.469-1.181,1.002-2.769,0.708-3.301c-0.298-0.706-0.941-1.058-1.773-1.058h-0.99
	l0.531-1.83h8.533C453.361,10.516,452.188,12.519,451.12,14.701z"/>
<path fill="#FFC000" d="M466.207,22.71c-2.771,0.176-5.308,0.116-8.01-0.175l4.062-10.133L466.207,22.71z M478.452,33.435h-0.994
	c-0.946,0-1.533-0.593-2.177-1.245c-0.83-0.879-3.243-6.473-5.016-10.773c-2.117-5.361-4.355-11.489-4.762-14.02h-6.303
	c1.349,2.827-1.004,8.599-3.188,13.43c-2.527,5.711-4.003,9.069-8.063,14.547h8.957l0.519-1.938h-1.12
	c-0.817,0-1.529-0.414-1.825-1.064c-0.227-0.531,0.129-1.766,0.594-2.943l1.771-4.188h6.417c1.357,0,2.65-0.292,3.475-1.295
	l4.184,11.429h6.948L478.452,33.435z"/>
</svg>
